<svg width="130" height="130" viewBox="0 0 130 130" fill="none" xmlns="http://www.w3.org/2000/svg">
<path d="M64.9942 4.65104e-05C80.0323 -0.00132369 94.6057 5.21165 106.231 14.7507C117.857 24.2898 125.815 37.5648 128.75 52.3138C131.685 67.0627 129.415 82.3731 122.327 95.6361C115.24 108.899 103.772 119.294 89.8792 125.05C75.9862 130.806 60.5272 131.567 46.1362 127.203C31.7453 122.838 19.3128 113.619 10.9571 101.116C2.6015 88.6127 -1.16032 73.5991 0.312663 58.6333C1.78565 43.6674 8.40229 29.6753 19.0352 19.0411C25.0638 12.9961 32.2275 8.20209 40.1146 4.93441C48.0018 1.66673 56.4569 -0.0101819 64.9942 4.65104e-05V4.65104e-05ZM110.205 19.7892C99.7449 9.32945 85.9816 2.82018 71.2602 1.3705C56.5388 -0.0791803 41.7702 3.62043 29.4707 11.839C17.1713 20.0575 8.10204 32.2865 3.80824 46.4422C-0.485558 60.5979 0.261783 75.8045 5.92293 89.4709C11.5841 103.137 21.8087 114.418 34.8548 121.391C47.9008 128.364 62.961 130.598 77.4693 127.711C91.9776 124.825 105.036 116.998 114.42 105.563C123.804 94.1277 128.933 79.7926 128.933 65C128.943 56.6017 127.294 48.2842 124.079 40.5254C120.865 32.7666 116.149 25.7196 110.202 19.7892H110.205Z" fill="#CE1531"/>
<path d="M64.9942 17.3301C76.0255 17.3228 86.7179 21.1409 95.2495 28.1338C103.781 35.1266 109.624 44.8615 111.782 55.6795C113.941 66.4975 112.281 77.7293 107.086 87.4608C101.891 97.1923 93.4828 104.821 83.2934 109.048C73.104 113.275 61.7643 113.837 51.2066 110.64C40.6489 107.443 31.5265 100.683 25.394 91.5137C19.2615 82.3441 16.4983 71.3318 17.5753 60.3533C18.6523 49.3748 23.5028 39.1094 31.3004 31.3064C35.7193 26.8725 40.9707 23.3553 46.753 20.9568C52.5352 18.5583 58.7343 17.3258 64.9942 17.3301V17.3301ZM97.9532 32.044C90.3287 24.4207 80.2967 19.6769 69.5667 18.6209C58.8367 17.5649 48.0725 20.262 39.1081 26.2526C30.1437 32.2432 23.5338 41.1568 20.4045 51.4745C17.2753 61.7923 17.8203 72.8759 21.9468 82.8368C26.0733 92.7978 33.5259 101.02 43.0348 106.102C52.5437 111.184 63.5206 112.812 74.0952 110.708C84.6698 108.605 94.1879 102.9 101.028 94.565C107.868 86.2304 111.606 75.7821 111.606 65.0003C111.614 58.878 110.412 52.8146 108.069 47.1583C105.726 41.5021 102.288 36.3647 97.9532 32.0413V32.044Z" fill="#CE1531"/>
<path d="M13.7316 68.9116L13.7077 67.5851H13.6069L13.3416 67.6116L12.9622 67.6382C12.8216 67.6382 12.6784 67.6541 12.5271 67.6567L5.71938 67.7761L5.63713 63.4092L13.6335 63.2686L13.6096 61.942H13.5088L13.2435 61.9686L12.8641 61.9951C12.7235 61.9951 12.5802 62.011 12.429 62.0137L4.67407 62.149L4.79611 69.1239L4.90754 69.108L5.20734 69.0761C5.33292 69.0637 5.47353 69.0531 5.62917 69.0443C5.7857 69.0443 5.94489 69.0257 6.10938 69.0231L13.7343 68.8904L13.7316 68.9116ZM13.8722 59.0953L14.9016 53.8024L13.9094 53.5371C13.9094 53.5371 13.9094 53.6247 13.8935 53.8024C13.8775 53.9802 13.8457 54.2216 13.7926 54.5453L13.2196 57.6892L10.1341 57.0896L10.9035 53.6724L9.84223 53.4071L9.22407 56.9171L6.20224 56.3308L6.79387 53.492C6.82836 53.3408 6.86019 53.1922 6.89734 53.0516C6.93448 52.911 6.96632 52.7863 6.99815 52.6669C7.02999 52.5475 7.05652 52.46 7.07509 52.4016L7.10693 52.2982L6.12795 52.0329L5.06673 57.4637H5.18081L5.4753 57.4955C5.59734 57.4955 5.7406 57.5273 5.88917 57.5512C6.03775 57.5751 6.19958 57.599 6.36407 57.6308L13.8749 59.09L13.8722 59.0953ZM15.3818 51.3537L15.809 50.1094L15.7081 50.0855L15.4428 50.0165L15.0767 49.9131C14.9414 49.8733 14.8114 49.8308 14.6628 49.7831L12.8057 49.1437L13.2302 47.9127C13.3811 47.487 13.4539 47.0376 13.4451 46.5861C13.4389 46.1842 13.3533 45.7874 13.193 45.4188C13.04 45.0668 12.8151 44.7507 12.5328 44.4907C12.2504 44.2307 11.9169 44.0327 11.5535 43.9092C11.0454 43.7191 10.4957 43.6687 9.96162 43.7633C9.45882 43.8688 9.001 44.1274 8.65101 44.5035C8.22356 44.976 7.9032 45.5353 7.71183 46.1431L6.89203 48.5149L7.00346 48.5388L7.28999 48.6104C7.40938 48.6396 7.5553 48.6794 7.69326 48.7218C7.83121 48.7643 7.9957 48.812 8.14958 48.8651L15.3818 51.3537ZM8.51836 46.6153C8.62945 46.2805 8.79726 45.9673 9.01448 45.6894C9.18546 45.4671 9.4039 45.2859 9.65387 45.1588C9.88168 45.0491 10.1306 44.9902 10.3835 44.9863C10.6438 44.9842 10.9025 45.0282 11.1475 45.1163C11.4789 45.2241 11.7787 45.4118 12.0204 45.6629C12.2448 45.8983 12.3952 46.1944 12.4528 46.5145C12.5121 46.8784 12.4755 47.2515 12.3467 47.5969L11.9222 48.828L8.20795 47.5465L8.53162 46.6047L8.51836 46.6153ZM18.263 38.8578L16.0212 34.4351C15.9575 34.3051 15.8912 34.1698 15.8222 34.061C15.7533 33.9523 15.6896 33.8355 15.6286 33.74C15.5675 33.6445 15.5198 33.5676 15.4826 33.5118L15.4243 33.4269L15.4614 33.3898L15.5702 33.472C15.6445 33.5251 15.7479 33.5967 15.8859 33.6896C16.0239 33.7825 16.1884 33.8806 16.3794 33.9947L21.7784 37.112L22.423 35.9951L22.3302 35.9527L22.0835 35.8359L21.7492 35.6608C21.6245 35.5972 21.4839 35.5282 21.3671 35.4539L14.5859 31.538L14.0235 32.6337L16.2786 37.1067C16.329 37.2076 16.3847 37.3084 16.443 37.4092C16.5014 37.51 16.5571 37.6082 16.6075 37.6957L16.7375 37.9053L16.7879 37.9876L16.7694 38.022H16.2573C16.1061 38.022 15.9443 38.022 15.7692 38.038L10.6435 38.3537L10.1128 39.3804L10.2375 39.4361L10.5506 39.5874C10.6806 39.651 10.8159 39.72 10.9698 39.7996C11.1237 39.8792 11.2669 39.9561 11.4102 40.041L17.9049 43.7898L18.4726 42.8055L18.3798 42.7631L18.149 42.6543L17.8412 42.5004C17.7298 42.4447 17.6263 42.389 17.5228 42.3306L13.2779 39.8845C13.0949 39.7784 12.9251 39.6855 12.7712 39.6192L12.3998 39.4335L12.2539 39.3645V39.3247H12.413C12.5139 39.3247 12.6518 39.3247 12.8163 39.3247C12.9808 39.3247 13.1586 39.3247 13.3469 39.3035L18.1728 39.001L18.263 38.8471V38.8578ZM20.3245 25.871C20.4983 25.6739 20.6834 25.4869 20.879 25.3112C21.0718 25.1344 21.2592 24.9752 21.4414 24.8337C21.6218 24.6825 21.789 24.5418 21.9349 24.4092L21.2981 23.6133C21.1337 23.7592 20.9639 23.9025 20.7861 24.0484C20.6084 24.1943 20.4279 24.3455 20.2555 24.51C20.0677 24.6813 19.8906 24.8638 19.7249 25.0565C19.3172 25.5091 19.013 26.0451 18.8335 26.6272C18.6776 27.1524 18.6503 27.7075 18.7539 28.2455C18.8691 28.8143 19.0944 29.355 19.4171 29.8374C19.7869 30.3983 20.2334 30.9046 20.7437 31.3416C21.1886 31.7351 21.6985 32.0484 22.2506 32.2676C22.753 32.4634 23.2903 32.5538 23.8292 32.5329C24.3642 32.5126 24.8885 32.3759 25.3653 32.1323C25.8923 31.8594 26.3609 31.4863 26.7449 31.0339C26.9515 30.7977 27.1429 30.5487 27.3179 30.2884C27.4424 30.1034 27.5541 29.9102 27.6522 29.71C27.7125 29.5876 27.7656 29.4618 27.8114 29.3333C27.827 29.2898 27.8403 29.2455 27.8512 29.2006L27.0341 28.7788C27.0341 28.7788 27.0049 28.8478 26.9439 28.9804C26.8488 29.1632 26.7434 29.3403 26.6281 29.511C26.4487 29.7847 26.2501 30.0454 26.0339 30.291C25.7797 30.5987 25.4679 30.8537 25.1159 31.0418C24.8117 31.1978 24.4782 31.2882 24.1369 31.3072C23.8004 31.3236 23.4636 31.2805 23.142 31.1798C22.7998 31.0747 22.4719 30.9277 22.1657 30.742C21.8419 30.5459 21.5357 30.3222 21.2504 30.0735C20.9024 29.7733 20.5972 29.427 20.343 29.0441C20.1178 28.7039 19.9519 28.3281 19.8522 27.9325C19.7633 27.5743 19.7561 27.2007 19.831 26.8394C19.9081 26.478 20.0771 26.1426 20.3218 25.8657L20.3245 25.871ZM29.4749 27.8608L30.483 27.0145L30.4088 26.9429L30.2177 26.7465C30.1381 26.6643 30.0532 26.5741 29.9524 26.4812C29.8516 26.3884 29.7614 26.269 29.6659 26.1549L27.7849 23.9131L28.3924 23.4037L33.4571 24.6082L34.5794 23.5814H34.4679L34.1867 23.547L33.8073 23.4886C33.672 23.4674 33.542 23.4382 33.4067 23.409L28.8302 22.3292C28.8213 21.7066 28.809 21.1592 28.793 20.687C28.7798 20.2121 28.7586 19.7982 28.7373 19.44C28.7161 19.0818 28.6896 18.7688 28.663 18.4902C28.6365 18.2116 28.602 17.9596 28.5675 17.7314C28.533 17.5033 28.4959 17.2751 28.4561 17.0549L27.4586 17.8933C27.4957 18.087 27.5328 18.2806 27.5647 18.4743C27.5965 18.668 27.6284 18.8802 27.6549 19.1137C27.6814 19.3472 27.7079 19.6231 27.7318 19.9388C27.7557 20.2545 27.7769 20.6312 27.8008 21.0716C27.8247 21.5121 27.8459 22.0347 27.8698 22.6369L27.1853 23.2127L24.6357 20.1457L23.6594 21.0478L23.7416 21.1247L23.9539 21.337C24.0423 21.4272 24.1396 21.5297 24.2457 21.6447C24.3518 21.7588 24.4606 21.8782 24.5641 22.0055L29.4749 27.8582V27.8608ZM35.8979 22.4486L36.9379 21.8729L37.5296 14.3276C37.5412 14.1066 37.5412 13.8852 37.5296 13.6643C37.5296 13.4706 37.5057 13.3168 37.4898 13.2053C37.4739 13.0939 37.4659 13.0355 37.4659 13.0329L37.5163 13.0196L37.572 13.1708C37.6118 13.269 37.6675 13.399 37.7392 13.5608C37.8108 13.7227 37.901 13.8978 38.0045 14.0914L41.0528 19.5886L42.2043 18.9519L42.1459 18.867L41.9947 18.6388C41.9337 18.5433 41.8673 18.4372 41.793 18.3178C41.7188 18.1984 41.6445 18.0737 41.5728 17.9437L37.7816 11.0908L36.7734 11.7223L36.1924 19.1508C36.1924 19.3206 36.1924 19.4904 36.1924 19.6549C36.1924 19.8194 36.1924 19.968 36.2083 20.1006C36.2243 20.2333 36.2243 20.3421 36.2296 20.4216C36.2349 20.5012 36.2296 20.5437 36.2296 20.5437L36.1686 20.5623C36.1686 20.5623 36.1447 20.4986 36.0969 20.3792C36.0492 20.2598 35.9828 20.1139 35.8953 19.9123C35.8077 19.7106 35.699 19.5116 35.5769 19.2835L32.6267 13.9535L31.4965 14.6539L31.5628 14.7468L31.73 14.9961C31.8007 15.1005 31.8759 15.219 31.9555 15.3516C32.0377 15.4843 32.12 15.617 32.1996 15.7655L35.9139 22.4486H35.8979ZM45.2367 6.8592C45.4938 6.77552 45.7411 6.66433 45.9743 6.52757C46.1731 6.40532 46.3589 6.26309 46.5287 6.10308C46.6761 5.96945 46.8102 5.82197 46.9294 5.66267C47.0294 5.53623 47.1181 5.40129 47.1947 5.25941L46.2847 4.69431C46.1759 4.88798 46.0592 5.07104 45.9398 5.24614C45.8219 5.41611 45.6818 5.56958 45.5232 5.70247C45.3578 5.83949 45.1678 5.94392 44.9634 6.01022C44.7558 6.07896 44.5371 6.10777 44.3188 6.09512C44.1149 6.08025 43.914 6.0374 43.7218 5.96778C43.5255 5.8988 43.3265 5.81655 43.1222 5.72369L42.7083 6.72124C42.8496 6.79062 42.996 6.84915 43.1461 6.89635C43.3306 6.957 43.5209 6.99877 43.7139 7.02104C43.9449 7.04605 44.1779 7.04605 44.409 7.02104C44.6858 6.9928 44.9589 6.93499 45.2234 6.84859L45.2367 6.8592ZM44.8043 17.5696L45.9345 17.2035L47.9587 9.91022C48.0193 9.69707 48.0645 9.47984 48.0941 9.26022C48.1206 9.06655 48.1365 8.91532 48.1418 8.79859C48.1471 8.68186 48.1418 8.62614 48.1418 8.62349H48.1949C48.1949 8.62349 48.1949 8.6792 48.2214 8.78267C48.2479 8.88614 48.2718 9.0241 48.3116 9.19655C48.3514 9.369 48.4071 9.56002 48.4734 9.76961L50.4155 15.747L51.6677 15.341L51.6253 15.2482L51.5218 14.9829C51.4794 14.8794 51.4343 14.76 51.3839 14.63C51.3334 14.5 51.2857 14.3647 51.2406 14.2214L48.8104 6.77961L47.6987 7.20675L45.709 14.3939C45.6639 14.5584 45.6267 14.7202 45.5975 14.8821C45.5683 15.0439 45.5471 15.1925 45.5285 15.3251C45.51 15.4578 45.4994 15.5665 45.4914 15.6461C45.4834 15.7257 45.4914 15.7682 45.4914 15.7708H45.4277C45.4277 15.7708 45.4277 15.7019 45.3932 15.5798C45.3588 15.4578 45.3349 15.288 45.2845 15.081C45.2341 14.8741 45.1704 14.6512 45.0908 14.4019L43.2045 8.5943L41.9655 9.07451L42.0132 9.17798L42.13 9.44328C42.1795 9.56002 42.2308 9.6909 42.2839 9.83594C42.3396 9.98185 42.3953 10.1331 42.4457 10.2896L44.8069 17.5563L44.8043 17.5696ZM61.6459 13.7678C61.6459 13.7678 61.6459 13.7306 61.6751 13.6537C61.7043 13.5768 61.7334 13.4388 61.7945 13.2478C61.8555 13.0568 61.9404 12.7941 62.0598 12.4519C62.1792 12.1096 62.3251 11.6984 62.5002 11.1917L63.8267 7.52512C64.0513 6.90961 64.2238 6.379 64.3441 5.93329C64.4661 5.49288 64.5483 5.15859 64.5934 4.92512C64.6385 4.69165 64.6598 4.57492 64.6571 4.57227L63.511 4.65186C63.511 4.65186 63.511 4.73941 63.4712 4.91716C63.4314 5.09492 63.3943 5.32573 63.32 5.63614C63.2457 5.94655 63.1475 6.31002 63.0149 6.73186L62.2561 9.0639C62.1712 9.3292 62.0996 9.55737 62.0385 9.76961C61.9775 9.98185 61.9351 10.157 61.9032 10.3002C61.8714 10.4435 61.8555 10.4965 61.8555 10.4992H61.8104C61.8104 10.4992 61.7812 10.4302 61.7255 10.3055C61.6698 10.1808 61.5928 10.011 61.4947 9.80145C61.3965 9.59185 61.2745 9.35573 61.1365 9.09839L58.892 4.95696L57.5443 5.08961L57.6159 5.19839C57.661 5.26737 57.722 5.36288 57.7963 5.48227C57.8706 5.60165 57.9555 5.74757 58.043 5.88818C58.1306 6.0288 58.2234 6.19329 58.3083 6.35512L61.2267 11.6612C61.1047 11.9451 60.9959 12.2131 60.8977 12.4572C60.7996 12.7012 60.7094 12.9453 60.6324 13.1708C60.5555 13.3963 60.4732 13.6245 60.3989 13.8447L61.6618 13.7572L61.6459 13.7678ZM72.7887 14.24L74.094 14.3992C74.094 14.3992 74.094 14.3621 74.094 14.2957C74.094 14.2294 74.094 14.1365 74.094 14.0304C74.094 13.9243 74.1073 13.7916 74.1179 13.651C74.1285 13.5104 74.1418 13.3672 74.1604 13.2186L75.1155 5.44512L73.7889 5.34696C73.7889 5.34696 73.7889 5.38676 73.7889 5.46104V5.76084C73.7889 5.88818 73.7757 6.02614 73.7651 6.18267C73.7545 6.3392 73.7359 6.49839 73.7173 6.66288L73.4069 9.18594L68.9179 8.6341L69.3955 4.74206L68.0689 4.6439C68.0689 4.6439 68.0689 4.68369 68.0689 4.75798C68.0689 4.83227 68.0689 4.93308 68.0689 5.05778C68.0689 5.18247 68.0557 5.32308 68.0424 5.47961C68.0291 5.63614 68.0159 5.79533 67.9973 5.95982L67.0687 13.5316L68.374 13.6908C68.374 13.6908 68.374 13.6537 68.374 13.5874C68.374 13.521 68.374 13.4308 68.374 13.3221C68.374 13.2133 68.3873 13.0833 68.3979 12.9427C68.4085 12.8021 68.4218 12.6588 68.4404 12.5102L68.8012 9.56798L73.2902 10.1198L72.7834 14.24H72.7887ZM76.962 14.9325L78.0922 15.2986L84.0165 10.5868C84.187 10.445 84.3499 10.2945 84.5047 10.1357C84.64 9.99512 84.7408 9.87043 84.8124 9.79349C84.884 9.71655 84.9212 9.66084 84.9212 9.65818L84.9663 9.68736L84.8947 9.83063C84.8496 9.92614 84.7938 10.0561 84.7249 10.218C84.6559 10.3798 84.5896 10.5682 84.5179 10.7751L82.5759 16.7525L83.8308 17.1637L83.852 17.0629C83.8679 16.9965 83.8891 16.909 83.9157 16.7976C83.9422 16.6861 83.974 16.5667 84.0138 16.4314C84.0536 16.2961 84.0908 16.1661 84.1385 16.0149L86.5581 8.56777L85.4226 8.26002L79.5859 12.9055C79.4559 13.0143 79.3206 13.1284 79.2118 13.2425C79.103 13.3565 78.9889 13.46 78.8961 13.5582L78.6759 13.7943L78.5936 13.8872L78.5379 13.8553C78.5379 13.8553 78.5698 13.7943 78.6228 13.6776C78.6759 13.5608 78.7475 13.4123 78.8271 13.2106C78.9067 13.009 78.9863 12.7941 79.0685 12.5474L80.9549 6.73982L79.6708 6.38961L79.6469 6.50104L79.5859 6.79553C79.5576 6.91757 79.5222 7.05376 79.4798 7.2041C79.44 7.35533 79.3949 7.5092 79.3445 7.66573L76.9832 14.9325H76.962ZM86.4706 18.3072L88.8053 19.4957C89.1954 19.7004 89.6125 19.8486 90.0443 19.9361C90.4138 20.0095 90.7942 20.0095 91.1638 19.9361C91.5083 19.8661 91.8311 19.7152 92.1057 19.4957C92.4053 19.2495 92.6486 18.9419 92.8193 18.5937C92.9578 18.3225 93.0374 18.025 93.0528 17.7208C93.067 17.4127 93.0117 17.1053 92.891 16.8214C92.7573 16.5091 92.5551 16.2307 92.2994 16.007V15.9831C92.8398 15.9994 93.3671 15.8151 93.7798 15.4657C94.0005 15.2773 94.181 15.0463 94.3104 14.7865C94.5045 14.4264 94.5963 14.0199 94.5757 13.6112C94.5415 13.1984 94.3803 12.8063 94.114 12.489C93.7635 12.0869 93.3335 11.7617 92.8512 11.5339L90.4634 10.3161L90.4236 10.4223L90.3122 10.6876C90.2644 10.8017 90.2087 10.9317 90.1451 11.0723C90.0814 11.2129 90.0124 11.3588 89.9381 11.5047L86.4706 18.3072ZM90.8269 15.7814C91.1252 15.9257 91.3858 16.1373 91.5883 16.3996C91.7607 16.6308 91.8613 16.9076 91.8775 17.1955C91.8903 17.4973 91.8216 17.797 91.6785 18.0631C91.54 18.3536 91.3244 18.6005 91.0551 18.7767C90.8099 18.9306 90.5246 19.0081 90.2353 18.9996C89.9115 18.9866 89.595 18.9005 89.3094 18.7476L87.9828 18.0684L89.4898 15.1076L90.8322 15.7921L90.8269 15.7814ZM92.3206 12.2768C92.734 12.4488 93.0713 12.7645 93.2704 13.1655C93.3392 13.3571 93.3642 13.5616 93.3436 13.7641C93.3229 13.9666 93.2571 14.1618 93.151 14.3355C93.0697 14.4973 92.9631 14.6451 92.8353 14.7733C92.7288 14.8779 92.6082 14.9672 92.4771 15.0386C92.3711 15.0981 92.259 15.1462 92.1428 15.1819C92.0613 15.2078 91.978 15.2273 91.8934 15.2402H91.7953L89.9063 14.2772L91.2169 11.7037L92.3206 12.2768ZM93.5171 22.4353L97.9345 25.5288L98.5738 24.7329L98.3404 24.6108C98.1891 24.5286 97.9742 24.3959 97.701 24.2155L95.0638 22.4141L96.8653 19.8406L99.6749 21.9312L100.357 21.069L97.4012 19.0765L99.1681 16.5535L101.521 18.2488C101.646 18.3416 101.768 18.4319 101.882 18.5141L102.193 18.7635L102.41 18.9439L102.492 19.0129L103.124 18.217L98.5924 15.0333L98.5393 15.1341L98.3908 15.3994C98.3297 15.5055 98.2555 15.6276 98.1732 15.7549C98.091 15.8823 98.0034 16.0202 97.9079 16.1555L93.5091 22.4353H93.5171ZM99.7863 27.0994L100.702 28.0465L100.768 27.967L100.948 27.7627C101.023 27.6778 101.11 27.5849 101.214 27.4974C101.317 27.4098 101.413 27.2904 101.519 27.187L102.933 25.8206L103.838 26.7572C104.147 27.0852 104.512 27.3548 104.917 27.5531C105.278 27.7299 105.67 27.8336 106.071 27.8582C106.454 27.8812 106.838 27.8239 107.197 27.6901C107.557 27.5562 107.885 27.3487 108.159 27.0808C108.557 26.7153 108.851 26.25 109.008 25.7331C109.143 25.2371 109.121 24.7116 108.945 24.2288C108.719 23.6296 108.366 23.0865 107.91 22.6369L106.17 20.8355L106.098 20.9231L105.904 21.1459C105.822 21.2388 105.726 21.3423 105.623 21.4537C105.52 21.5651 105.405 21.6818 105.286 21.7959L99.7916 27.1021L99.7863 27.0994ZM107.119 23.1437C107.362 23.3922 107.562 23.6802 107.708 23.9953C107.824 24.2446 107.884 24.5163 107.883 24.7912C107.878 25.0445 107.817 25.2934 107.706 25.5208C107.59 25.7534 107.433 25.9635 107.244 26.1416C106.998 26.3884 106.694 26.5707 106.361 26.6723C106.049 26.7658 105.717 26.7658 105.405 26.6723C105.054 26.56 104.737 26.3579 104.487 26.0859L103.583 25.1494L106.414 22.4167L107.106 23.1331L107.119 23.1437ZM113.688 30.9065C113.839 31.1203 113.977 31.3427 114.102 31.5725C114.224 31.7989 114.337 32.0173 114.442 32.2278C114.548 32.4374 114.649 32.631 114.744 32.8035L115.667 32.3684C115.561 32.1774 115.461 31.9784 115.357 31.7714C115.254 31.5645 115.148 31.3549 115.031 31.14C114.903 30.913 114.761 30.6941 114.606 30.4847C114.258 29.9866 113.805 29.5702 113.28 29.2643C112.803 28.9945 112.268 28.8434 111.72 28.8239C111.137 28.8065 110.556 28.9039 110.011 29.1104C109.38 29.347 108.785 29.6712 108.244 30.0735C107.761 30.4185 107.34 30.8449 107.003 31.3337C106.696 31.7784 106.485 32.2814 106.382 32.8114C106.281 33.339 106.296 33.8823 106.427 34.4033C106.574 34.9782 106.831 35.519 107.186 35.9951C107.37 36.2499 107.57 36.4927 107.785 36.722C107.938 36.885 108.101 37.0375 108.273 37.1784C108.379 37.2643 108.49 37.344 108.605 37.4171L108.724 37.4861L109.321 36.7857L109.146 36.6531C108.987 36.5186 108.835 36.3751 108.693 36.2233C108.466 35.9871 108.257 35.7354 108.066 35.4698C107.83 35.1523 107.657 34.7919 107.557 34.4086C107.475 34.0788 107.462 33.7354 107.52 33.4004C107.58 33.0694 107.697 32.7515 107.868 32.4612C108.046 32.1511 108.263 31.8641 108.512 31.6069C108.777 31.3351 109.064 31.0865 109.372 30.8641C109.743 30.5925 110.149 30.3729 110.579 30.2114C110.961 30.0686 111.365 29.9914 111.773 29.9833C112.139 29.9787 112.501 30.0557 112.834 30.2088C113.169 30.3653 113.458 30.6056 113.672 30.9065H113.688ZM109.565 39.5767L110.123 40.638L117.657 41.3649C117.878 41.3817 118.099 41.387 118.321 41.3808C118.514 41.3808 118.668 41.3623 118.78 41.349C118.891 41.3357 118.949 41.3278 118.952 41.3278V41.3782L118.801 41.4312C118.703 41.4684 118.573 41.5214 118.408 41.5904C118.244 41.6594 118.069 41.7469 117.878 41.8557L112.327 44.8059L112.945 45.968L113.03 45.9096L113.261 45.7637L113.585 45.5673C113.707 45.4957 113.832 45.4241 113.964 45.3551L120.883 41.6541L120.268 40.6353L112.839 39.9243C112.67 39.9243 112.5 39.9084 112.335 39.9084C112.171 39.9084 112.022 39.9084 111.89 39.9084L111.569 39.9243H111.446L111.428 39.8606L111.611 39.7916C111.73 39.7465 111.876 39.6829 112.083 39.598C112.29 39.5131 112.486 39.4096 112.717 39.2902L118.108 36.4223L117.429 35.2788L117.336 35.3425L117.071 35.5069C116.965 35.5759 116.845 35.6493 116.71 35.7272C116.577 35.8067 116.445 35.8863 116.291 35.9633L109.565 39.5767ZM114.275 50.4941L114.638 51.7596L114.734 51.7224L114.999 51.6269L115.357 51.5022C115.49 51.4571 115.622 51.412 115.771 51.3722L122.353 49.4859L122.794 51.2078C122.836 51.3749 122.876 51.5367 122.905 51.688C122.934 51.8392 122.961 51.9533 122.977 52.062C122.993 52.1708 123.003 52.2106 123.003 52.2133L124.011 51.9771L122.104 45.3206L121.112 45.5647C121.112 45.5647 121.13 45.6071 121.162 45.6841C121.194 45.761 121.234 45.8751 121.287 46.0157C121.34 46.1563 121.393 46.3235 121.454 46.5171L122.014 48.2841L114.291 50.4994L114.275 50.4941ZM115.62 56.1982L116.371 61.5361L117.392 61.4565C117.392 61.4565 117.368 61.3716 117.323 61.1912C117.278 61.0108 117.23 60.7773 117.177 60.4537L116.689 57.3071L119.801 56.8694L120.178 60.3555L121.273 60.2653L120.714 56.7447L123.762 56.3175L124.128 59.1935C124.147 59.3473 124.163 59.4986 124.173 59.6418C124.184 59.7851 124.194 59.9204 124.202 60.0398C124.21 60.1592 124.202 60.252 124.218 60.3237C124.234 60.3953 124.218 60.4298 124.218 60.4298L125.226 60.3529L124.457 54.8743L124.348 54.9035L124.062 54.9698C123.94 54.9963 123.796 55.0255 123.653 55.052C123.51 55.0786 123.343 55.1078 123.178 55.1316L115.601 56.1929L115.62 56.1982ZM116.32 65.8182L116.296 67.1447H116.4L116.665 67.1288L117.044 67.1129C117.185 67.1129 117.331 67.1129 117.48 67.1129L124.327 67.2322L124.245 69.0071C124.245 69.1796 124.226 69.3467 124.21 69.498C124.194 69.6492 124.181 69.7792 124.171 69.8773C124.16 69.9755 124.152 70.0259 124.152 70.0286L125.187 70.0975L125.309 63.1757L124.287 63.12C124.287 63.12 124.287 63.1651 124.287 63.2473C124.287 63.3296 124.301 63.449 124.309 63.6002C124.316 63.7514 124.309 63.9265 124.309 64.1308L124.327 65.988L116.294 65.8473L116.32 65.8182Z" fill="#CE1531"/>
<path d="M9.54517 88.8238L10.0758 90.0257L10.166 89.9753L10.4074 89.8453L10.7443 89.6728C10.869 89.6092 11.0097 89.5481 11.137 89.4871L12.9331 88.6912L13.4637 89.8824C13.6436 90.2946 13.8962 90.6712 14.2092 90.9941C14.4875 91.2836 14.8202 91.5153 15.1882 91.6759C15.5403 91.8287 15.9204 91.9062 16.3042 91.9034C16.688 91.9007 17.0669 91.8178 17.4168 91.66C17.9165 91.4529 18.3516 91.1157 18.677 90.6836C18.9729 90.2636 19.1314 89.7622 19.1307 89.2483C19.1205 88.6115 18.973 87.9844 18.6982 87.4098L17.6795 85.1228L17.5813 85.1812L17.316 85.3245C17.2072 85.3855 17.0825 85.4492 16.9446 85.5181C16.8066 85.5871 16.6607 85.6587 16.5121 85.7251L9.54517 88.8238ZM17.7882 87.6141C17.9333 87.9326 18.023 88.2735 18.0535 88.6222C18.0776 88.9004 18.0395 89.1804 17.9421 89.442C17.8501 89.6776 17.7079 89.8903 17.5256 90.0655C17.3364 90.244 17.1173 90.3877 16.8782 90.49C16.5625 90.6374 16.2154 90.7048 15.8674 90.6863C15.5428 90.6667 15.231 90.5523 14.9707 90.3573C14.6833 90.1307 14.4594 89.8337 14.3207 89.4951L13.7901 88.3039L17.385 86.712L17.7909 87.622L17.7882 87.6141ZM14.1615 97.632L17.255 102.049L18.1278 101.519L17.9501 101.325C17.836 101.195 17.6848 100.999 17.4858 100.736L15.6286 98.1414L18.2021 96.34L20.1256 99.2583L21.0594 98.6932L18.9635 95.8094L21.4839 94.0424L23.1156 96.4302C23.2005 96.5602 23.2854 96.6955 23.3597 96.8096L23.5666 97.1492C23.6276 97.2526 23.6754 97.3322 23.7099 97.3932L23.7629 97.4861L24.6252 96.9555L21.4415 92.4241L21.3566 92.4983L21.1311 92.6867C21.0356 92.7663 20.9268 92.8538 20.8048 92.952C20.6827 93.0502 20.5527 93.143 20.4174 93.2385L14.1615 97.632ZM20.2052 105.437L21.1019 106.4L21.1682 106.323L21.3539 106.122C21.4309 106.04 21.5184 105.949 21.6192 105.857C21.7201 105.764 21.8209 105.655 21.9297 105.551L23.6568 103.941L24.7897 105.156L23.5401 109.117L24.5721 110.131C24.5721 110.131 24.5721 110.07 24.6013 109.961C24.6305 109.852 24.649 109.709 24.6888 109.536C24.7286 109.364 24.7737 109.178 24.8294 108.984L25.8005 105.737C26.0916 105.913 26.4143 106.03 26.7503 106.082C27.0903 106.131 27.4372 106.101 27.7637 105.994C28.1361 105.869 28.4759 105.662 28.7586 105.39C29.1224 105.064 29.3842 104.64 29.5121 104.169C29.627 103.686 29.5947 103.18 29.4192 102.715C29.1923 102.12 28.8455 101.579 28.4005 101.123L26.6919 99.2928L26.6176 99.3804L26.4213 99.6006C26.339 99.6934 26.2409 99.7943 26.1321 99.903C26.0233 100.012 25.9092 100.129 25.7899 100.24L20.2078 105.445L20.2052 105.437ZM27.6072 101.612C27.921 101.927 28.1666 102.304 28.3288 102.718C28.447 103.025 28.4628 103.362 28.3739 103.678C28.2646 103.986 28.0825 104.263 27.8433 104.485C27.604 104.707 27.3146 104.868 26.9997 104.954C26.6973 105.026 26.3804 105.006 26.0897 104.896C25.7485 104.765 25.4432 104.555 25.1982 104.283L24.3094 103.331L26.9254 100.89L27.6045 101.62L27.6072 101.612ZM32.6958 113.458L37.2299 111.449C37.3625 111.393 37.4952 111.332 37.6145 111.271C37.7339 111.21 37.848 111.152 37.9462 111.094L38.1796 110.958L38.2672 110.905L38.3043 110.945L38.2168 111.051C38.1611 111.123 38.0815 111.224 37.9833 111.354C37.8852 111.484 37.7764 111.645 37.6517 111.831L34.2558 117.06L35.3382 117.763L35.386 117.673L35.516 117.432C35.5717 117.334 35.6327 117.225 35.7043 117.103C35.776 116.981 35.8503 116.859 35.9325 116.734L40.1986 110.165L39.1374 109.55L34.5503 111.569C34.4468 111.614 34.3433 111.664 34.2372 111.717L33.9427 111.866L33.7252 111.985L33.6403 112.03L33.6084 112.009C33.6084 112.009 33.6084 111.959 33.6084 111.866C33.6084 111.773 33.6084 111.653 33.627 111.502C33.6456 111.351 33.627 111.189 33.627 111.014L33.5792 105.88L32.5976 105.326L32.5339 105.448L32.3668 105.753C32.2978 105.88 32.2182 106.018 32.1307 106.162C32.0431 106.305 31.9582 106.451 31.8654 106.589L27.7823 112.879L28.7348 113.497L28.7825 113.407L28.9045 113.182C28.955 113.089 29.0107 112.991 29.0743 112.882C29.138 112.773 29.1964 112.672 29.2627 112.574L31.9158 108.47C32.0299 108.292 32.1333 108.128 32.2182 107.979C32.3031 107.83 32.3721 107.714 32.4225 107.618L32.4994 107.478H32.5392C32.5392 107.478 32.5392 107.533 32.5233 107.637C32.5074 107.74 32.5021 107.873 32.4915 108.037C32.4809 108.202 32.4915 108.38 32.4915 108.568L32.5419 113.37L32.6931 113.468L32.6958 113.458ZM53.586 115.187L52.4133 114.922L52.3947 115.033L52.3364 115.328C52.3125 115.453 52.2807 115.593 52.2462 115.742C52.2117 115.89 52.1692 116.05 52.1241 116.206L50.9011 120.467C50.8137 120.785 50.6767 121.088 50.4952 121.364C50.3316 121.611 50.1195 121.822 49.8717 121.984C49.6244 122.143 49.3438 122.242 49.0519 122.274C48.717 122.307 48.3789 122.274 48.057 122.175C47.7166 122.084 47.3969 121.928 47.1152 121.717C46.8774 121.535 46.6856 121.301 46.5554 121.032C46.4299 120.763 46.3621 120.471 46.3564 120.175C46.3502 119.846 46.395 119.517 46.489 119.201L48.0809 113.614L46.7862 113.309L46.7676 113.42L46.7092 113.715C46.6845 113.839 46.6535 113.976 46.6164 114.126C46.5819 114.277 46.5421 114.434 46.497 114.593L45.2792 118.838C45.1407 119.295 45.0823 119.772 45.1068 120.249C45.1286 120.672 45.2427 121.085 45.4411 121.459C45.643 121.834 45.9268 122.159 46.2715 122.409C46.6722 122.697 47.1216 122.91 47.598 123.038C48.1133 123.194 48.6525 123.256 49.1898 123.221C49.6265 123.192 50.0511 123.066 50.4323 122.851C50.8135 122.636 51.1414 122.338 51.3919 121.979C51.6492 121.61 51.8421 121.2 51.9623 120.767L53.5541 115.179L53.586 115.187ZM61.7521 125.425L62.8133 125.388L63.6092 116.402L62.4445 116.365C62.4445 116.365 62.4445 116.405 62.4445 116.479C62.4445 116.554 62.4445 116.654 62.4445 116.782C62.4445 116.909 62.4445 117.047 62.4445 117.204C62.4445 117.36 62.4286 117.519 62.4127 117.684L61.9935 122.481C61.9935 122.611 61.9776 122.746 61.9749 122.879C61.9723 123.011 61.9749 123.144 61.9749 123.261C61.9749 123.377 61.9749 123.473 61.9749 123.544C61.9749 123.616 61.9749 123.656 61.9749 123.659H61.9352L61.8954 123.555C61.8662 123.486 61.8317 123.399 61.7866 123.29C61.7415 123.181 61.6884 123.067 61.6301 122.948C61.5717 122.828 61.5133 122.711 61.4523 122.6L57.7194 115.874L56.5945 115.84C56.5945 115.84 56.5945 115.88 56.5945 115.954C56.5945 116.028 56.5945 116.129 56.5945 116.257C56.5945 116.384 56.5945 116.522 56.5945 116.678C56.5945 116.835 56.5786 116.997 56.5654 117.159L55.8994 124.77L57.0456 124.871C57.0456 124.871 57.0456 124.834 57.0456 124.768C57.0456 124.701 57.0456 124.608 57.0456 124.502C57.0456 124.396 57.0456 124.263 57.0456 124.123C57.0456 123.982 57.0588 123.839 57.0721 123.69L57.5019 118.777C57.5019 118.689 57.5019 118.586 57.5019 118.464C57.5019 118.342 57.5019 118.217 57.5019 118.095C57.5019 117.973 57.5019 117.872 57.5019 117.79C57.5019 117.708 57.5019 117.663 57.5019 117.663H57.539L57.5894 117.782C57.6213 117.856 57.6611 117.952 57.7115 118.063C57.7619 118.175 57.8123 118.291 57.868 118.403C57.9237 118.514 57.9688 118.612 58.0113 118.689L61.7574 125.418L61.7521 125.425ZM67.9311 125.322L69.2417 125.208C69.2417 125.208 69.2417 125.173 69.2231 125.107C69.2045 125.041 69.1966 124.951 69.178 124.842C69.1594 124.733 69.1435 124.606 69.1249 124.465C69.1064 124.324 69.0905 124.181 69.0772 124.033L68.3954 116.23L67.0688 116.41L67.09 116.522L67.1405 116.819C67.1617 116.943 67.182 117.082 67.2015 117.238C67.2227 117.392 67.2413 117.554 67.2572 117.716L67.9231 125.327L67.9311 125.322ZM76.8082 121.695C76.7843 121.884 76.7658 122.061 76.7551 122.226C76.7445 122.39 76.7339 122.544 76.7313 122.674C76.7286 122.804 76.7313 122.908 76.7313 122.982C76.7313 123.056 76.7313 123.093 76.7313 123.096H76.6809L76.6013 122.913C76.5482 122.796 76.4739 122.648 76.3758 122.449C76.2776 122.25 76.1635 122.045 76.0282 121.815L72.5102 115.978L71.2341 116.304C71.2341 116.304 71.2739 116.36 71.3535 116.466C71.4331 116.572 71.5392 116.731 71.6745 116.928C71.8098 117.124 71.9637 117.373 72.1388 117.663L76.2696 124.447L77.3707 124.155L78.4611 117.174C78.5062 116.877 78.546 116.596 78.5805 116.333C78.6149 116.071 78.6335 115.803 78.6468 115.567C78.66 115.331 78.6468 115.065 78.6468 114.811L77.5564 115.023C77.5564 115.227 77.5564 115.434 77.5564 115.641C77.5564 115.848 77.5405 116.068 77.5192 116.294C77.498 116.519 77.4715 116.769 77.4343 117.034L76.8162 121.682L76.8082 121.695ZM84.2686 122.39L89.267 120.371L88.9486 119.387L88.7205 119.517C88.5666 119.599 88.3411 119.705 88.0413 119.838L85.0937 121.069L83.9158 118.151L87.2003 116.933L86.8474 115.89L83.5656 117.299L82.4115 114.444L85.1149 113.383C85.2609 113.33 85.4015 113.277 85.5394 113.229L85.9188 113.105L86.1841 113.02L86.2876 112.991L85.9692 112.03L80.8409 114.102L80.8939 114.203L81.0266 114.468C81.0823 114.58 81.1433 114.707 81.207 114.845C81.2707 114.983 81.337 115.132 81.398 115.285L84.2633 122.38L84.2686 122.39ZM93.289 118.392L94.4298 117.734L94.3688 117.652L94.2149 117.427C94.1513 117.334 94.0823 117.228 94.008 117.108C93.9337 116.989 93.8568 116.867 93.7825 116.737L92.586 114.689L94.0239 113.858L97.6029 115.967L98.8207 115.19L98.6615 115.124C98.5607 115.079 98.428 115.02 98.2662 114.943C98.1043 114.866 97.9345 114.779 97.7594 114.678L94.8145 113.001C95.051 112.757 95.2375 112.468 95.3637 112.152C95.4874 111.832 95.5355 111.488 95.5043 111.147C95.4658 110.755 95.3407 110.377 95.1382 110.04C94.9024 109.613 94.5476 109.262 94.1168 109.032C93.6718 108.812 93.171 108.73 92.6788 108.796C92.0499 108.885 91.4458 109.101 90.9039 109.433L88.7364 110.685L88.8027 110.775L88.9725 111.017C89.0441 111.118 89.1211 111.237 89.2033 111.364C89.2856 111.492 89.3731 111.63 89.4527 111.773L93.2731 118.39L93.289 118.392ZM91.2249 110.319C91.6025 110.084 92.0242 109.93 92.4639 109.865C92.7891 109.82 93.1203 109.88 93.4084 110.038C93.6836 110.214 93.9122 110.453 94.0748 110.736C94.2374 111.02 94.3291 111.338 94.3423 111.664C94.3425 111.975 94.2501 112.279 94.077 112.537C93.8723 112.838 93.5997 113.087 93.2811 113.264L92.1535 113.917L90.3654 110.818L91.2276 110.319H91.2249ZM98.6535 105.031C98.8126 104.892 98.9791 104.762 99.1523 104.641C99.3115 104.53 99.468 104.429 99.6192 104.336L100.073 104.055C100.224 103.96 100.378 103.851 100.537 103.734L100.007 102.845C99.8315 102.97 99.6696 103.079 99.5131 103.18L99.0568 103.469C98.9056 103.562 98.7543 103.662 98.6005 103.774C98.4466 103.885 98.2794 104.015 98.107 104.164C97.6808 104.518 97.3352 104.96 97.0935 105.459C96.8943 105.87 96.8161 106.33 96.868 106.785C96.9298 107.236 97.1257 107.659 97.4305 107.998C97.6392 108.244 97.8943 108.448 98.1813 108.597C98.4374 108.724 98.716 108.798 99.0011 108.817C99.2932 108.834 99.5861 108.809 99.8713 108.743C100.18 108.673 100.483 108.577 100.776 108.457C101.078 108.334 101.363 108.231 101.63 108.146C101.873 108.066 102.124 108.013 102.378 107.987C102.596 107.964 102.815 107.988 103.023 108.056C103.23 108.136 103.413 108.267 103.554 108.438C103.749 108.65 103.861 108.927 103.869 109.215C103.863 109.518 103.771 109.812 103.604 110.064C103.396 110.392 103.138 110.686 102.84 110.934C102.625 111.123 102.4 111.3 102.166 111.465C101.951 111.616 101.755 111.73 101.582 111.839C101.41 111.948 101.272 112.012 101.174 112.062L101.02 112.134L101.665 112.877L101.803 112.823C101.893 112.786 102.02 112.725 102.185 112.638C102.385 112.527 102.58 112.407 102.768 112.277C103.024 112.098 103.27 111.906 103.506 111.701C103.991 111.298 104.396 110.808 104.7 110.255C104.939 109.821 105.043 109.326 105 108.833C104.941 108.348 104.732 107.894 104.403 107.533C104.186 107.271 103.915 107.06 103.607 106.915C103.334 106.795 103.037 106.738 102.739 106.748C102.42 106.76 102.104 106.811 101.797 106.902C101.468 106.995 101.129 107.109 100.773 107.244C100.44 107.374 100.095 107.472 99.7439 107.539C99.4698 107.594 99.1866 107.586 98.9162 107.515C98.654 107.436 98.4213 107.281 98.2476 107.069C98.0873 106.893 97.9845 106.673 97.9531 106.438C97.9266 106.198 97.9718 105.956 98.0831 105.742C98.2229 105.472 98.4161 105.233 98.6509 105.039L98.6535 105.031ZM109.186 106.207L110.083 105.244L110.001 105.183L109.786 105.013C109.698 104.941 109.6 104.862 109.494 104.769C109.388 104.676 109.279 104.583 109.17 104.48L103.464 99.1363L102.604 100.152L102.694 100.221L102.93 100.407C103.029 100.485 103.138 100.573 103.257 100.672C103.376 100.773 103.498 100.879 103.617 100.991L109.205 106.201L109.186 106.207ZM114.275 99.8792L115.028 98.802L114.938 98.7516L114.702 98.6137C114.604 98.5553 114.498 98.489 114.378 98.4147C114.259 98.3404 114.139 98.2608 114.017 98.1732L108.409 94.2467L109.47 92.822C109.574 92.6841 109.674 92.5567 109.772 92.4347C109.871 92.3126 109.953 92.2171 110.017 92.1428C110.08 92.0685 110.115 92.0288 110.117 92.0288L109.3 91.3867L105.321 97.059L106.135 97.6771L106.196 97.563C106.239 97.4887 106.3 97.3879 106.377 97.2579C106.454 97.1279 106.549 96.9926 106.663 96.8122L107.685 95.2655L114.267 99.8739L114.275 99.8792ZM119.316 91.4663L119.846 90.2645L119.748 90.2326L119.483 90.1424L119.127 90.0071C118.997 89.9567 118.862 89.901 118.727 89.84L116.57 88.8769L114.296 85.7251C114.031 85.3377 113.787 85.0114 113.572 84.7514C113.357 84.4914 113.187 84.2951 113.062 84.1651C112.938 84.0351 112.871 83.9688 112.869 83.9688L112.365 85.1016C112.365 85.1016 112.471 85.1998 112.67 85.4014C112.869 85.603 113.137 85.9161 113.479 86.3379L115.546 88.922L110.407 89.3465L109.876 90.673L109.995 90.6518L110.308 90.6014L110.749 90.5377L111.25 90.4741L116.068 90.0177L119.313 91.461L119.316 91.4663Z" fill="#CE1531"/>
<path fill-rule="evenodd" clip-rule="evenodd" d="M10.7496 77.2734C10.9694 77.2734 11.1844 77.3386 11.3672 77.4608C11.55 77.5829 11.6924 77.7565 11.7766 77.9597C11.8607 78.1628 11.8827 78.3863 11.8398 78.6019C11.797 78.8176 11.6911 79.0156 11.5356 79.1711C11.3801 79.3266 11.1821 79.4324 10.9664 79.4753C10.7508 79.5182 10.5273 79.4962 10.3242 79.4121C10.121 79.3279 9.94743 79.1855 9.82528 79.0027C9.70314 78.8198 9.63794 78.6049 9.63794 78.3851C9.63794 78.0902 9.75506 77.8075 9.96353 77.599C10.172 77.3906 10.4547 77.2734 10.7496 77.2734V77.2734Z" fill="#CE1531"/>
<path fill-rule="evenodd" clip-rule="evenodd" d="M119.241 77.2734C119.461 77.2734 119.676 77.3386 119.859 77.4608C120.042 77.5829 120.184 77.7565 120.268 77.9597C120.352 78.1628 120.374 78.3863 120.332 78.6019C120.289 78.8176 120.183 79.0156 120.027 79.1711C119.872 79.3266 119.674 79.4324 119.458 79.4753C119.242 79.5182 119.019 79.4962 118.816 79.4121C118.613 79.3279 118.439 79.1855 118.317 79.0027C118.195 78.8198 118.13 78.6049 118.13 78.3851C118.13 78.0902 118.247 77.8075 118.455 77.599C118.664 77.3906 118.946 77.2734 119.241 77.2734V77.2734Z" fill="#CE1531"/>
<path d="M65.8405 30.4469V31.2694H70.1464V30.4469H68.7642V22.4824H68.5652L65.5168 23.1802L65.5779 23.8381L67.5438 23.663V30.4469H65.8405Z" fill="#CE1531"/>
<path d="M76.5455 23.2403L76.4235 22.2852C75.464 22.3752 74.534 22.6653 73.6935 23.1368C72.9606 23.5661 72.3715 24.2032 72.0008 24.9674C71.5881 25.8731 71.3892 26.8617 71.4198 27.8566C71.4165 28.3297 71.4827 28.8008 71.6161 29.2547C71.7353 29.6595 71.9277 30.039 72.1839 30.3743C72.4256 30.6876 72.7349 30.9424 73.0886 31.1198C73.4642 31.3 73.8765 31.3908 74.2931 31.3852C74.7245 31.3925 75.1531 31.3131 75.5533 31.1517C75.898 31.0098 76.207 30.7933 76.458 30.5176C76.6957 30.2481 76.8763 29.9331 76.9886 29.5917C77.1125 29.2324 77.1744 28.8547 77.1716 28.4747C77.1763 28.103 77.1134 27.7335 76.9859 27.3843C76.8706 27.0873 76.6964 26.8165 76.4739 26.5884C76.2591 26.3703 76.0017 26.1987 75.7178 26.0843C75.4239 25.9684 75.1105 25.9099 74.7945 25.9119C74.488 25.9101 74.1827 25.9503 73.8872 26.0313C73.6175 26.1064 73.3614 26.2237 73.1284 26.3788C72.9106 26.5247 72.724 26.7122 72.5792 26.9307C72.6222 26.4575 72.7386 25.9938 72.9241 25.5564C73.0807 25.1906 73.2997 24.8548 73.5714 24.5641C73.8274 24.2905 74.1246 24.0587 74.4523 23.877C74.7743 23.7025 75.1141 23.5629 75.4657 23.4605C75.8198 23.3591 76.1807 23.2828 76.5455 23.2323V23.2403ZM72.7994 28.7056C72.7978 28.4673 72.8327 28.2302 72.9029 28.0025C72.9675 27.7913 73.073 27.5948 73.2133 27.4241C73.3578 27.2544 73.5393 27.12 73.7439 27.0315C73.9753 26.9332 74.2247 26.8844 74.4761 26.8882C74.7626 26.8821 75.0448 26.9595 75.288 27.1111C75.5148 27.2582 75.6937 27.4685 75.8027 27.716C75.928 27.9998 75.9896 28.3078 75.9831 28.618C75.9919 28.9506 75.9341 29.2817 75.8133 29.5917C75.7091 29.858 75.5234 30.0846 75.2827 30.239C75.0053 30.403 74.6867 30.4841 74.3647 30.4725C74.1324 30.4762 73.9027 30.4224 73.6961 30.316C73.5057 30.2169 73.3391 30.0774 73.208 29.9074C73.0748 29.7377 72.9732 29.5453 72.9082 29.3396C72.8411 29.1359 72.8071 28.9227 72.8074 28.7082L72.7994 28.7056Z" fill="#CE1531"/>
<path d="M53.1325 30.4469V31.2694H57.4384V30.4469H56.0562V22.4824H55.8572L52.8088 23.1802L52.8725 23.8381L54.8384 23.663V30.4469H53.1325Z" fill="#CE1531"/>
<path d="M59.2209 30.5347L59.3456 31.4818C60.3051 31.3918 61.2351 31.1017 62.0756 30.6302C62.8086 30.201 63.3977 29.5639 63.7683 28.7996C64.1802 27.8955 64.379 26.9088 64.3493 25.9157C64.3535 25.4425 64.2873 24.9713 64.153 24.5176C64.0338 24.1128 63.8414 23.7333 63.5852 23.398C63.3434 23.0847 63.0342 22.8299 62.6805 22.6525C62.3049 22.4721 61.8926 22.3813 61.476 22.3871C61.0446 22.3801 60.6161 22.4595 60.2158 22.6206C59.8723 22.7621 59.5643 22.9777 59.3138 23.252C59.0761 23.5226 58.8956 23.8385 58.7832 24.1806C58.659 24.5398 58.5971 24.9175 58.6001 25.2976C58.5954 25.6695 58.6592 26.0392 58.7885 26.388C58.9008 26.6899 59.0742 26.9654 59.2979 27.1971C59.5124 27.4149 59.7699 27.5857 60.054 27.6986C60.3474 27.8164 60.661 27.8759 60.9772 27.8737C61.2837 27.8752 61.589 27.835 61.8846 27.7543C62.1537 27.68 62.4091 27.5626 62.6407 27.4067C62.8527 27.2601 63.0331 27.0725 63.1713 26.8549C63.1309 27.3288 63.0163 27.7935 62.8317 28.2318C62.6773 28.5975 62.46 28.9333 62.1897 29.2241C61.936 29.4914 61.6424 29.7178 61.3195 29.8953C60.9982 30.0714 60.6583 30.2112 60.306 30.3118C59.9521 30.4126 59.5911 30.4871 59.2262 30.5347H59.2209ZM62.967 25.0959C62.9697 25.3299 62.9348 25.5628 62.8636 25.7857C62.7991 25.9941 62.6946 26.1879 62.5558 26.3561C62.4114 26.5253 62.2298 26.6588 62.0252 26.7461C61.7927 26.844 61.5425 26.8928 61.2903 26.8894C61.0071 26.8993 60.7277 26.8215 60.4903 26.6667C60.2529 26.5119 60.069 26.2877 59.9638 26.0245C59.8376 25.7232 59.7761 25.3987 59.7834 25.072C59.7771 24.7581 59.8395 24.4466 59.9664 24.1594C60.0785 23.9041 60.263 23.6874 60.497 23.5359C60.7683 23.3761 61.0791 23.2961 61.3938 23.3051C61.6278 23.3017 61.8591 23.3554 62.0677 23.4616C62.266 23.5602 62.4393 23.7027 62.5744 23.8782C62.7056 24.0497 62.8061 24.2427 62.8715 24.4486C62.9382 24.6579 62.9722 24.8762 62.9723 25.0959H62.967Z" fill="#CE1531"/>
<path d="M34.0887 33.4785H96.4966V76.803C96.4204 85.1075 93.068 93.046 87.1686 98.8915C81.2693 104.737 73.3004 108.016 64.9955 108.016C56.6906 108.016 48.7217 104.737 42.8224 98.8915C36.923 93.046 33.5706 85.1075 33.4944 76.803V33.4785H34.0887ZM64.9942 34.6697H34.6856V76.803C34.7604 84.7926 37.9866 92.4295 43.6627 98.0527C49.3388 103.676 57.0056 106.831 64.9955 106.831C72.9854 106.831 80.6522 103.676 86.3283 98.0527C92.0043 92.4295 95.2306 84.7926 95.3054 76.803V34.6697H64.9942Z" fill="#CE1531"/>
<path d="M78.1933 81.5393H78.2065L78.5992 81.6427V99.8321L77.9678 99.7048C73.4814 98.7921 69.1092 99.4925 64.9943 101.297C60.8847 99.4978 56.5045 98.8027 52.0208 99.7048L51.3894 99.8321V81.648L51.7821 81.5446H51.798C52.4315 81.382 53.0749 81.2606 53.7241 81.1811C54.4153 81.0955 55.1104 81.045 55.8067 81.0299C59.2716 80.9476 63.0204 81.656 64.9943 82.9401C66.9682 81.6587 70.7169 80.9476 74.1818 81.0299C74.8782 81.045 75.5733 81.0955 76.2645 81.1811C76.9137 81.2606 77.5571 81.382 78.1906 81.5446L78.1933 81.5393ZM53.9257 85.5189C54.5386 85.4472 55.1727 85.4048 55.8121 85.3889C58.3749 85.3278 61.089 85.6993 63.1106 86.4183V87.1558C61.1712 86.4129 58.428 86.0229 55.828 86.0946C55.178 86.1105 54.5386 86.1529 53.9231 86.2272V85.5268L53.9257 85.5189ZM53.9257 88.4372C54.5386 88.3656 55.1727 88.3231 55.8121 88.3072C58.3749 88.2462 61.089 88.6176 63.1106 89.3393V90.0768C61.1712 89.334 58.428 88.944 55.828 89.0156C55.178 89.0315 54.5386 89.074 53.9231 89.1482V88.4478L53.9257 88.4372ZM53.9257 91.3556C54.5386 91.284 55.1727 91.2415 55.8121 91.2256C58.3749 91.1646 61.089 91.536 63.1106 92.255V92.9925C61.1712 92.2497 58.428 91.8597 55.828 91.9313C55.178 91.9472 54.5386 91.9897 53.9231 92.064V91.3636L53.9257 91.3556ZM53.9257 94.274C54.5386 94.2023 55.1727 94.1599 55.8121 94.144C58.3749 94.0829 61.089 94.4544 63.1106 95.176V95.9136C61.1712 95.1707 58.428 94.7807 55.828 94.8523C55.178 94.8682 54.5386 94.9107 53.9231 94.985V94.2846L53.9257 94.274ZM64.4637 99.925V83.8368C62.6967 82.6456 59.1443 81.9797 55.8253 82.0646C55.1654 82.0792 54.5066 82.127 53.8514 82.2078C53.3606 82.2689 52.8884 82.3511 52.4374 82.4519V98.5534C56.4956 97.8782 60.6617 98.3533 64.4637 99.925V99.925ZM76.0655 86.2246C75.4527 86.1503 74.8106 86.1052 74.1633 86.0893C71.5633 86.0256 68.82 86.4156 66.8806 87.1505V86.4129C68.9023 85.694 71.6163 85.3199 74.1792 85.3836C74.8186 85.3995 75.4553 85.4419 76.0655 85.5136V86.2246ZM76.0655 89.1429C75.4527 89.0687 74.8106 89.0236 74.1633 89.0076C71.5633 88.9466 68.82 89.334 66.8806 90.0689V89.3313C68.9023 88.6123 71.6163 88.2383 74.1792 88.2993C74.8186 88.3152 75.4553 88.3576 76.0655 88.4293V89.1429ZM76.0655 92.0613C75.4527 91.987 74.8106 91.9419 74.1633 91.926C71.5633 91.865 68.82 92.2523 66.8806 92.9872V92.2497C68.9023 91.5307 71.6163 91.1566 74.1792 91.2203C74.8186 91.2362 75.4527 91.2787 76.0655 91.3503V92.0613ZM76.0655 94.9797C75.4527 94.9054 74.8106 94.8603 74.1633 94.8444C71.5633 94.7833 68.82 95.1707 66.8806 95.9056V95.168C68.9023 94.4491 71.6163 94.075 74.1792 94.136C74.8186 94.1519 75.4553 94.1944 76.0655 94.266V94.9691V94.9797ZM77.5459 82.4466C77.0976 82.3458 76.6227 82.2636 76.1318 82.2025C75.4767 82.1217 74.8179 82.0739 74.158 82.0593C70.839 81.9797 67.2865 82.6403 65.5196 83.8315V99.9117C69.3223 98.3428 73.4885 97.8704 77.5459 98.548V82.4599V82.4466Z" fill="#CE1531"/>
<path d="M34.0781 76.2695H95.9104V77.3308H34.0781V76.2695Z" fill="#CE1531"/>
<path d="M83.5497 58.7419L88.5639 68.5158L88.6223 68.6272V75.8409H88.0917C87.8529 75.8409 87.6141 75.8409 87.2294 75.8409C84.3243 75.7825 81.7137 75.1882 81.6448 69.0411L78.1799 66.6851L78.0737 66.7594C77.412 67.2143 76.6998 67.5909 75.9513 67.8817C75.3096 68.1286 74.6421 68.3021 73.9615 68.399L73.208 72.1956H73.3513C74.6327 72.2672 75.3437 72.827 75.739 73.6972C76.1343 74.5674 76.1662 75.6233 76.1662 76.8172V77.3478H66.2331V75.6127V75.0821V72.2672H64.185V71.7366V71.6862V71.6331V71.5376V71.4368V71.3333V71.2404V71.1662V71.1211V71.0972V71.0733C64.185 71.0256 64.2009 70.9778 64.2115 70.93V70.9062V70.8823V70.8584V70.8398V70.816V70.7921V70.7443V70.7205V70.7045L64.238 70.6117L64.2672 70.5188C64.299 70.4207 64.3335 70.3278 64.3707 70.2323C64.4337 70.0784 64.5063 69.9286 64.5882 69.7839V69.7839C64.7986 69.4095 65.0673 69.071 65.3841 68.7811V68.7811C65.5004 68.6768 65.6227 68.5793 65.7503 68.4892H60.1152C59.5839 68.9816 58.9647 69.3695 58.2899 69.6327V69.6327C58.1439 69.6884 58.006 69.7335 57.8733 69.768V72.1637H57.9052C59.367 72.1637 60.155 72.7421 60.5848 73.676C60.9668 74.5249 61.0146 75.6127 61.0146 76.8066V77.3372H43.4274V72.2698H41.3819V71.7392C41.3812 71.1826 41.4967 70.632 41.721 70.1226C41.9453 69.6133 42.2735 69.1563 42.6846 68.7811C42.8178 68.6598 42.9587 68.5472 43.1064 68.4441H41.3819V67.9135C41.3847 67.2499 41.5508 66.5971 41.8654 66.0128C42.18 65.4284 42.6335 64.9304 43.186 64.5627C43.2682 64.5096 43.3531 64.4566 43.4513 64.4088V62.1537H42.4431L42.3025 61.8433C41.6767 60.4034 41.363 58.8473 41.3819 57.2774C41.3854 55.0428 41.9725 52.8479 43.0852 50.9101C44.2476 48.8648 46.0255 47.2383 48.1658 46.2619C49.77 45.5473 51.5089 45.1854 53.265 45.2007H67.5384C68.0877 44.4032 68.7815 43.7157 69.5839 43.1737C69.7431 43.0676 69.9209 42.9588 70.1146 42.8474C70.4865 42.6385 70.8752 42.461 71.2766 42.3168C71.0952 41.9695 70.9902 41.5874 70.9687 41.1961C70.9472 40.8049 71.0096 40.4135 71.1519 40.0484C71.3288 39.6285 71.6261 39.2703 72.0062 39.019C72.3876 38.7692 72.8318 38.6321 73.2876 38.6237C74.195 38.6052 75.1952 39.0721 75.9248 40.2315H82.5043C83.2339 39.0721 84.2341 38.6025 85.1415 38.6237C85.5973 38.6321 86.0415 38.7692 86.4229 39.019C86.8059 39.2736 87.1043 39.6366 87.2799 40.0617C87.6168 40.8576 87.5452 41.9188 86.7492 43.0172C90.0284 49.2307 87.9378 52.5974 83.9927 55.8394V55.927C83.9501 56.8772 83.8051 57.8201 83.5603 58.7392L83.5497 58.7419ZM59.1044 74.3949V76.2945H59.9533C59.9401 75.4349 59.8737 74.6762 59.627 74.1376C59.3803 73.599 58.8709 73.2435 57.9052 73.2435H56.8174V68.8686L57.2658 68.797C57.3739 68.7793 57.481 68.7563 57.5868 68.728C57.7035 68.6962 57.8123 68.6617 57.9105 68.6245C58.0325 68.5794 58.1519 68.5264 58.2713 68.468H54.3448C53.8129 68.9609 53.1927 69.3488 52.5168 69.6115C52.3735 69.6645 52.2303 69.7123 52.0923 69.7494L51.9544 69.7839L50.9966 72.2407C51.4176 72.2916 51.8178 72.4525 52.1569 72.7073C52.496 72.9621 52.7619 73.3017 52.928 73.6919C53.257 74.4056 53.3366 75.2996 53.3525 76.2839H57.1942V74.3843H57.7248V76.2839H58.5737V74.3843L59.1044 74.3949ZM51.3495 74.3949V76.2945H52.3019C52.2886 75.4349 52.2223 74.6762 51.9756 74.1376C51.7288 73.599 51.2195 73.2435 50.2537 73.2435H49.4844L49.7629 72.5272L51.0895 69.1419L51.2009 68.8554L51.4184 68.8209C52.605 68.4905 53.6511 67.7813 54.3974 66.8014C55.1436 65.8214 55.549 64.6244 55.5519 63.3927V63.3927C55.5561 62.2982 55.2418 61.2261 54.6472 60.3072C54.5332 60.1305 54.4092 59.9604 54.2758 59.7978C54.1723 59.6731 54.0609 59.5458 53.9442 59.4264H55.3184C55.3927 59.5272 55.4644 59.6307 55.5307 59.7368C56.2335 60.8208 56.6076 62.0849 56.6078 63.3768V63.3768C56.608 64.8317 56.1329 66.2468 55.2548 67.4068H64.2274C64.2694 67.0525 64.3586 66.7054 64.4927 66.3747C64.556 66.221 64.6287 66.0713 64.7103 65.9264V65.9264C65.0728 65.2899 65.6021 64.7643 66.2411 64.4062L66.2013 59.429H67.2625L67.297 64.7351V65.0774L66.9866 65.218C66.4136 65.4759 65.9371 65.9087 65.6256 66.4543V66.4543C65.459 66.7445 65.3441 67.0614 65.286 67.3909H67.297V68.9005L67.0105 69.0305H66.9866H66.9707L66.899 69.0649H66.8513L66.8195 69.0809L66.7929 69.0941L66.7664 69.1074L66.7399 69.1207H66.716H66.6974H66.6788H66.6603H66.6417H66.6231H66.6046L66.5595 69.1525H66.5435L66.4692 69.2109L66.4295 69.2427L66.3976 69.2719L66.3472 69.317L66.2437 69.4178L66.2092 69.4523L66.1801 69.4841L66.1641 69.5027L66.1376 69.5345L66.1217 69.5558L66.1058 69.577L66.0686 69.6221L65.9997 69.7149C65.9367 69.8002 65.8782 69.8888 65.8246 69.9802V69.9802C65.7954 70.0333 65.7662 70.0864 65.7397 70.1394V70.1527V70.1739L65.7237 70.2111V70.5719V70.5931V70.6223V70.6409V70.6674V70.6833V70.7098L65.6866 70.8213V70.8584V70.877V70.9062V70.9327V70.9619V70.9805V70.9964L65.6627 71.0919V71.1502H67.6737V75.5305V76.2149H71.3588V74.318H71.8894V76.2149H72.7384V74.318H73.269V76.2149H74.118V74.318H74.6486V76.2149H75.4976C75.4843 75.3553 75.418 74.5966 75.1713 74.058C74.9245 73.5194 74.0146 73.2249 73.0568 73.2249H71.9186L72.1601 72.0204L72.4413 70.609L72.8737 68.46L73.0011 67.81L73.078 67.4254L73.2876 66.38L73.3407 66.1147L73.5901 66.0033C74.0443 65.8033 74.4699 65.5436 74.8556 65.2313C74.9272 65.1729 75.0015 65.1092 75.0784 65.0402C75.1554 64.9713 75.2323 64.8996 75.296 64.836C76.0429 64.0884 76.565 63.1462 76.8029 62.1166C76.8496 61.9126 76.885 61.7063 76.909 61.4984C76.9342 61.2897 76.9474 61.0798 76.9488 60.8696V60.7556V59.429H78.0101V60.7556V60.8723C78.0095 61.1223 77.9954 61.372 77.9676 61.6205C77.7933 63.1196 77.1184 64.5161 76.0521 65.5841C75.9619 65.6743 75.877 65.7539 75.7868 65.8256C75.6966 65.8972 75.6143 65.9768 75.5215 66.0511C75.1349 66.362 74.7149 66.629 74.2692 66.847L74.1817 67.2821C74.6587 67.1901 75.1265 67.056 75.5799 66.8815C76.2534 66.6214 76.8944 66.284 77.4901 65.876C80.4084 63.8968 82.4619 60.3045 82.8731 56.7203C82.0772 57.3252 81.2309 57.9354 80.3527 58.5774L79.5117 59.1637L79.2039 59.3839L78.8962 59.1637L78.0658 58.5668C72.1441 54.3219 67.618 51.0533 71.4915 43.3674C71.1911 43.4824 70.8994 43.619 70.6186 43.776V43.776C70.4754 43.8556 70.3241 43.9511 70.1623 44.0599C69.3991 44.5753 68.7506 45.2428 68.2574 46.0205L68.1035 46.2645H53.2464C51.6404 46.2456 50.0491 46.5712 48.5797 47.2196C46.6401 48.1058 45.0294 49.581 43.9766 51.4354C42.9583 53.2122 42.4215 55.2241 42.4193 57.2721C42.4103 58.5815 42.6535 59.8804 43.1356 61.0978H43.4752V59.429H44.5364V61.8433H44.486V65.08L44.1782 65.2207C44.0354 65.2848 43.8979 65.3602 43.767 65.4462C43.636 65.532 43.5118 65.6278 43.3956 65.7327C42.918 66.1695 42.5973 66.7512 42.4829 67.3882H44.4913V68.8978L44.1835 69.0384C43.8975 69.1683 43.6334 69.3419 43.4009 69.5531C42.9235 69.99 42.6028 70.5717 42.4882 71.2086H44.4993V76.2733H48.0809V74.3737H48.6115V76.2733H49.4605V74.3737H49.9911V76.2733H50.8401V74.3737L51.3495 74.3949ZM86.7201 72.9013V74.7743C86.8952 74.7743 87.0756 74.7929 87.2507 74.7956H87.5664V68.8792L83.0933 60.1613C82.2573 62.4143 80.8688 64.4212 79.0554 65.998L82.4646 68.3141L82.6954 68.4707V68.736C82.6954 72.2062 83.5629 73.6786 84.8178 74.3074V72.8721H85.3484V74.5196C85.6257 74.6037 85.9098 74.6631 86.1974 74.6974V72.8721L86.7201 72.9013ZM75.2535 47.0472H78.1719L78.1003 47.5566C78.0286 48.0739 77.949 48.5143 77.8748 48.9362C77.6094 50.4856 77.376 51.759 78.0021 53.2527H80.3899C81.016 51.7617 80.7905 50.4856 80.5172 48.9362C80.4429 48.5143 80.3633 48.0739 80.2917 47.5566L80.2201 47.0472H83.1384L81.2468 47.9439C81.2919 48.2252 81.3423 48.509 81.3901 48.7823C81.7058 50.5731 81.9631 52.0296 81.077 53.8921L80.955 54.1574H77.4344L77.3123 53.8921C76.4235 52.035 76.6809 50.5731 76.9992 48.7823C77.047 48.517 77.0974 48.2252 77.1452 47.9439L75.2535 47.0499V47.0472ZM79.2013 52.7725L80.1723 52.0562L79.8009 51.4884H78.599L78.2276 52.0562L79.1986 52.7725H79.2013ZM78.6707 57.7337L79.2013 58.1105L79.7319 57.7337C85.3882 53.6666 89.6782 50.5705 85.6535 43.2401L85.4837 42.927L85.7092 42.6617C86.4176 41.7994 86.5264 41.0327 86.3009 40.4968C86.2039 40.2682 86.0414 40.0734 85.8339 39.937C85.6201 39.7963 85.3708 39.7191 85.115 39.7141C84.4968 39.7009 83.7884 40.0882 83.2578 41.0407L83.1092 41.306H75.2986L75.1501 41.0407C74.6194 40.0776 73.9164 39.6903 73.2929 39.7141C73.037 39.7191 72.7878 39.7963 72.5739 39.937C72.3665 40.0735 72.2041 40.2683 72.107 40.4968C71.8815 41.0274 71.9903 41.7994 72.6986 42.6617L72.9241 42.927L72.7543 43.2401C68.7323 50.5811 73.0197 53.6666 78.676 57.7337H78.6707Z" fill="#CE1531"/>
<path fill-rule="evenodd" clip-rule="evenodd" d="M78.1772 47.0312C78.0533 47.3153 77.8493 47.557 77.5901 47.7267C77.3309 47.8965 77.0278 47.9869 76.718 47.9869C76.4081 47.9869 76.105 47.8965 75.8458 47.7267C75.5866 47.557 75.3826 47.3153 75.2588 47.0312H78.1772Z" fill="#CE1531"/>
<path fill-rule="evenodd" clip-rule="evenodd" d="M83.1571 47.0312C83.0333 47.3153 82.8293 47.557 82.5701 47.7267C82.3109 47.8965 82.0078 47.9869 81.698 47.9869C81.3881 47.9869 81.085 47.8965 80.8258 47.7267C80.5666 47.557 80.3626 47.3153 80.2388 47.0312H83.1571Z" fill="#CE1531"/>
</svg>
