<svg width="264" height="65" viewBox="0 0 264 65" fill="none" xmlns="http://www.w3.org/2000/svg">
<g clip-path="url(#clip0_5195_425)">
<path d="M86.069 4.46537H71.8198V5.69991H73.4698V17.3887H71.8198V18.6232H77.0711V17.3887H75.4634V5.70254H82.4651V17.3913H80.8152V18.6258H86.0664V17.3913H84.4588V5.70254H86.0664V4.46537H86.069ZM102.41 14.9721H101.088L100.884 17.3782H95.8127V12.0828L100.474 12.2456V10.6775L95.8127 10.8587V5.70254H100.881L101.085 8.10858H102.407V4.46537H92.1902V5.69991H93.819V17.3887H92.1902V18.6232H102.41V14.9721ZM108.552 18.6232H114.211V17.3887H112.175V13.2254H114.25C114.953 13.2327 115.652 13.1353 116.326 12.9364C116.921 12.7624 117.474 12.4722 117.955 12.0828C118.41 11.7096 118.772 11.2367 119.012 10.7011C119.273 10.1049 119.403 9.46006 119.393 8.80991C119.418 7.96967 119.194 7.14064 118.75 6.42488C118.305 5.76261 117.665 5.252 116.918 4.96181C116.003 4.61062 115.027 4.44193 114.047 4.46537H108.552V5.69991H110.181V17.3887H108.552V18.6232ZM112.175 12.0118V5.70779H113.761C114.461 5.68642 115.156 5.82951 115.789 6.12543C116.293 6.36992 116.707 6.76364 116.976 7.25228C117.241 7.75517 117.374 8.31615 117.362 8.88346C117.365 9.29676 117.295 9.70733 117.156 10.097C117.022 10.4671 116.814 10.8065 116.545 11.0951C116.273 11.3882 115.939 11.6186 115.567 11.7702C115.148 11.9409 114.698 12.0258 114.245 12.0197L112.175 12.0118ZM125.176 18.6232H129.919V17.3887H128.29V8.06918C128.29 7.82227 128.277 7.59638 128.259 7.39412C128.24 7.19187 128.219 7.02639 128.198 6.90293C128.177 6.77948 128.166 6.71644 128.166 6.71381L128.227 6.6928C128.227 6.6928 128.251 6.75321 128.296 6.87141C128.341 6.98961 128.412 7.14722 128.507 7.34947C128.603 7.55173 128.719 7.77499 128.859 8.02716L133.174 15.1849H133.417L137.957 8.06656C138.097 7.85014 138.221 7.6246 138.33 7.3915C138.415 7.22066 138.49 7.04528 138.555 6.86616C138.605 6.72695 138.629 6.65603 138.629 6.6534L138.69 6.67441C138.69 6.67441 138.69 6.72169 138.677 6.80575C138.663 6.8898 138.653 7.00538 138.64 7.14196C138.626 7.27855 138.616 7.42827 138.605 7.58587C138.595 7.74347 138.589 7.89845 138.589 8.04817V17.3913H136.939V18.6258H142.09V17.3913H140.483V5.70254H142.09V4.46537H138.428L133.584 12.2535L129.033 4.46537H125.176V5.69991H126.783V17.3887H125.176V18.6232ZM159.063 8.6418V4.99071C159.063 4.99071 158.978 4.94343 158.798 4.862C158.553 4.75545 158.301 4.66335 158.045 4.5862C157.644 4.46468 157.235 4.37077 156.821 4.30514C156.266 4.22167 155.705 4.1804 155.144 4.18169C154.334 4.17712 153.53 4.30946 152.765 4.57306C152.062 4.81584 151.408 5.17949 150.832 5.64738C150.268 6.10814 149.782 6.65627 149.393 7.27067C149 7.8949 148.7 8.57267 148.502 9.28271C148.295 10.0233 148.191 10.7887 148.193 11.5574C148.18 12.6026 148.352 13.6419 148.701 14.628C149.011 15.492 149.502 16.2807 150.142 16.9421C150.779 17.5781 151.546 18.0708 152.392 18.3868C153.325 18.74 154.317 18.9181 155.316 18.9121C155.833 18.9119 156.35 18.8812 156.863 18.8202C157.26 18.7741 157.655 18.7066 158.045 18.618C158.375 18.5409 158.626 18.4735 158.798 18.4157C158.971 18.3579 159.059 18.3273 159.063 18.3238V14.6595H157.741L157.558 17.2862C157.261 17.3614 156.96 17.421 156.657 17.4648C156.261 17.5211 155.861 17.5492 155.462 17.5489C154.839 17.5542 154.222 17.4446 153.64 17.2258C153.105 17.0236 152.614 16.7233 152.191 16.3406C151.768 15.9563 151.411 15.5066 151.133 15.0089C150.844 14.4879 150.627 13.9303 150.488 13.3515C150.34 12.7398 150.267 12.1129 150.268 11.4839C150.268 10.903 150.329 10.3237 150.451 9.75552C150.573 9.19648 150.765 8.65473 151.022 8.14273C151.27 7.64542 151.599 7.19197 151.995 6.80049C152.398 6.40587 152.875 6.09353 153.399 5.88115C153.988 5.64929 154.617 5.53332 155.25 5.53968C155.583 5.5385 155.914 5.56751 156.242 5.62636C156.505 5.6718 156.764 5.73946 157.016 5.82862C157.206 5.89599 157.392 5.97494 157.572 6.06502L157.736 8.63392L159.063 8.6418ZM165.388 5.71042H167.016V17.3992H165.388V18.6337H170.639V17.3992H169.01V11.9304H170.597L175.404 18.6232H178.008V17.3887H176.892L172.249 10.9191L176.258 5.70254H177.44V4.46537H173.225V5.69991H174.386L171.046 10.7169H169.01V5.70254H170.639V4.46537H165.388V5.69991V5.71042ZM183.233 5.71042H184.862V17.3992H183.238V18.6337H186.861L193.516 7.8643C193.64 7.66205 193.754 7.45979 193.86 7.26016C193.961 7.06943 194.05 6.87196 194.124 6.66916L194.227 6.70856C194.174 6.90274 194.135 7.10017 194.108 7.29956C194.078 7.51985 194.063 7.74186 194.063 7.96412V17.3913H192.434V18.6258H197.686V17.3913H196.057V5.70254H197.686V4.46537H194.063L187.59 14.8828C187.448 15.1166 187.305 15.3556 187.167 15.5999C187.03 15.8442 186.903 16.1042 186.776 16.3879L186.694 16.3485C186.754 16.0669 186.795 15.7818 186.818 15.4948C186.845 15.2059 186.855 14.9117 186.855 14.6096V5.70254H188.484V4.46537H183.238V5.69991L183.233 5.71042ZM210.972 2.78954C211.388 2.78961 211.802 2.74291 212.207 2.65033C212.57 2.5698 212.924 2.45457 213.265 2.30623C213.562 2.17496 213.847 2.01853 214.116 1.83868C214.332 1.69894 214.533 1.53979 214.719 1.36325L213.619 0C213.355 0.239029 213.09 0.46755 212.852 0.688192C212.602 0.900404 212.324 1.07719 212.025 1.21353C211.692 1.36047 211.331 1.43396 210.967 1.42892C210.603 1.43396 210.242 1.36047 209.909 1.21353C209.611 1.07719 209.332 0.900404 209.082 0.688192C208.831 0.470177 208.577 0.239029 208.315 0L207.215 1.37638C207.406 1.54785 207.611 1.70253 207.829 1.83868C208.09 2.01642 208.367 2.17027 208.656 2.29835C208.996 2.44795 209.351 2.56322 209.714 2.64245C210.13 2.73597 210.556 2.78266 210.983 2.78166L210.972 2.78954ZM203.809 5.70254H205.449V17.3913H203.809V18.6258H207.432L214.087 7.85642C214.211 7.65417 214.325 7.45191 214.431 7.25228C214.533 7.06156 214.621 6.86409 214.695 6.66128L214.798 6.70068C214.746 6.89487 214.706 7.0923 214.679 7.29168C214.65 7.51197 214.635 7.73398 214.635 7.95624V17.3913H213.006V18.6258H218.257V17.3913H216.634V5.70254H218.262V4.46537H214.64L208.164 14.8828C208.022 15.1166 207.879 15.3556 207.741 15.5999C207.604 15.8442 207.477 16.1042 207.35 16.3879L207.268 16.3485C207.328 16.0669 207.369 15.7818 207.392 15.4948C207.419 15.2059 207.429 14.9117 207.429 14.6096V5.70254H209.058V4.46537H203.809V5.69991V5.70254Z" fill="#CE1531"/>
<path d="M85.4794 25.7409H80.6459V26.9754H82.2747L79.7919 33.3241C79.7125 33.5133 79.6385 33.7076 79.5671 33.9046C79.4957 34.1016 79.427 34.2855 79.3715 34.4536C79.3159 34.6217 79.271 34.7609 79.2366 34.8608C79.2022 34.9606 79.1811 35.0184 79.1811 35.0236H79.1203C79.1203 35.0236 79.1044 34.9685 79.07 34.866C79.0357 34.7636 78.9907 34.6296 78.9352 34.4615C78.8797 34.2934 78.8135 34.1069 78.7342 33.9046C78.6549 33.7024 78.5782 33.5028 78.491 33.3058L75.6406 26.9754H77.2694V25.7409H71.8198V26.9754H73.4486L78.1922 36.9043C78.0473 37.1948 77.8572 37.4607 77.629 37.6923C77.4034 37.9142 77.133 38.0861 76.8357 38.1966C76.4773 38.3249 76.0981 38.3863 75.7173 38.3779C75.5449 38.3805 75.3729 38.3637 75.2043 38.328C75.1434 38.3152 75.0833 38.2986 75.0245 38.2781V39.8961C75.0663 39.9162 75.1096 39.9329 75.1541 39.946C75.275 39.9901 75.3998 40.0226 75.5269 40.0432C75.731 40.0802 75.9381 40.0987 76.1456 40.0984C76.5951 40.1024 77.0388 39.9978 77.4386 39.7937C77.8467 39.5744 78.2063 39.2761 78.4963 38.9164C78.8375 38.4891 79.1318 38.0268 79.3741 37.5374C79.6385 36.9936 79.9214 36.3869 80.1885 35.6987L83.8718 26.9623H85.5005V25.7409H85.4794ZM90.4821 39.8961H95.7333V38.6616H94.1045V33.2532H101.31V38.6511H99.6837V39.8856H104.935V38.6511H103.306V26.9623H104.935V25.7409H99.6837V26.9754H101.312V31.9661H94.1045V26.9754H95.7333V25.7409H90.4794V26.9754H92.1082V38.6642H90.4794V39.8987L90.4821 39.8961ZM111.053 26.9649H112.682V38.6537H111.053V39.8882H114.676L121.331 29.1188C121.455 28.9166 121.569 28.7143 121.675 28.5147C121.777 28.3239 121.865 28.1265 121.939 27.9237L122.042 27.9631C121.99 28.1573 121.95 28.3547 121.923 28.5541C121.894 28.7744 121.879 28.9964 121.878 29.2186V38.6406H120.255V39.8751H125.506V38.6406H123.877V26.9518H125.506V25.7409H121.894L115.422 36.1557C115.279 36.3869 115.136 36.6285 114.998 36.8728C114.861 37.1171 114.734 37.3771 114.607 37.6608L114.525 37.6214C114.585 37.3398 114.627 37.0547 114.649 36.7677C114.676 36.4788 114.686 36.1846 114.686 35.8825V26.9649H116.315V25.7409H111.053V26.9754V26.9649ZM131.627 39.8856H137.103C137.849 39.8946 138.594 39.8063 139.317 39.6229C139.923 39.4663 140.495 39.1991 141.003 38.8349C141.46 38.5063 141.829 38.0728 142.08 37.5715C142.338 37.0377 142.469 36.4514 142.46 35.8589C142.463 35.4276 142.383 34.9998 142.225 34.5981C142.078 34.2338 141.862 33.9012 141.588 33.6183C141.311 33.3358 140.987 33.1022 140.631 32.9275C140.256 32.7457 139.857 32.6166 139.446 32.544V32.4626C139.91 32.3076 140.342 32.07 140.721 31.7613C141.07 31.475 141.353 31.1165 141.548 30.7106C141.749 30.2802 141.851 29.811 141.847 29.3368C141.864 28.6723 141.68 28.0179 141.318 27.4587C140.916 26.8891 140.353 26.4504 139.7 26.1979C138.84 25.8696 137.924 25.7143 137.003 25.7409H131.63V26.9754H133.264V38.6642H131.635V39.8987L131.627 39.8856ZM135.25 38.6511V33.0956H137.407C137.985 33.0822 138.558 33.2084 139.076 33.4634C139.509 33.6842 139.868 34.0267 140.107 34.4484C140.347 34.8827 140.468 35.3716 140.459 35.8668C140.466 36.3665 140.338 36.859 140.089 37.2931C139.838 37.7166 139.471 38.0602 139.031 38.2833C138.503 38.5417 137.919 38.6697 137.331 38.6563L135.25 38.6511ZM139.89 29.4708C139.892 29.8077 139.84 30.1427 139.737 30.4637C139.643 30.7712 139.486 31.0563 139.277 31.3016C139.063 31.5486 138.79 31.7383 138.484 31.8532H135.252V26.9649H136.902C137.395 26.9544 137.886 27.0218 138.357 27.1646C138.702 27.2681 139.018 27.4528 139.277 27.703C139.496 27.9248 139.66 28.1948 139.755 28.491C139.853 28.8066 139.901 29.1354 139.896 29.4655L139.89 29.4708ZM158.716 36.2476H157.394L157.191 38.6537H152.122V33.3347L156.784 33.4975V31.9399L152.122 32.1211V26.9649H157.191L157.394 29.371H158.716V25.7409H148.5V26.9754H150.128V38.6642H148.5V39.8987H158.719V36.2476H158.716ZM164.859 39.8882H170.517V38.6537H168.481V34.4878H170.546C171.249 34.4951 171.949 34.3977 172.622 34.1988C173.216 34.0272 173.77 33.7397 174.251 33.353C174.706 32.9798 175.068 32.5069 175.308 31.9714C175.57 31.3751 175.699 30.7303 175.689 30.0802C175.714 29.2399 175.49 28.4109 175.047 27.6952C174.601 27.033 173.961 26.5224 173.214 26.2321C172.303 25.8844 171.332 25.7175 170.356 25.7409H164.859V26.9754H166.488V38.6642H164.859V39.8987V39.8882ZM168.481 33.2769V26.9728H170.068C170.767 26.9514 171.462 27.0945 172.096 27.3905C172.599 27.6349 173.014 28.0287 173.283 28.5173C173.547 29.0202 173.68 29.5812 173.669 30.1485C173.671 30.5618 173.602 30.9724 173.463 31.362C173.329 31.7321 173.121 32.0716 172.852 32.3601C172.58 32.6529 172.247 32.8833 171.876 33.0352C171.457 33.2059 171.007 33.2908 170.554 33.2847L168.481 33.2769ZM192.331 29.8989V26.2662C192.331 26.2662 192.247 26.219 192.067 26.1375C191.821 26.031 191.57 25.9389 191.313 25.8617C190.92 25.7386 190.519 25.6421 190.113 25.5728C189.558 25.4893 188.998 25.4481 188.437 25.4493C187.627 25.4448 186.822 25.5771 186.057 25.8407C185.354 26.0835 184.7 26.4471 184.124 26.915C183.56 27.3742 183.074 27.9205 182.686 28.5331C182.292 29.1573 181.992 29.8351 181.794 30.5451C181.588 31.2823 181.484 32.0441 181.485 32.8093C181.472 33.8545 181.644 34.8938 181.993 35.8799C182.303 36.7439 182.794 37.5327 183.434 38.194C184.069 38.8376 184.837 39.3375 185.684 39.6597C186.619 40.0076 187.61 40.1803 188.608 40.1693C189.125 40.1691 189.642 40.1384 190.155 40.0774C190.553 40.0313 190.947 39.9637 191.337 39.8751C191.667 39.7981 191.918 39.7306 192.091 39.6728C192.263 39.6151 192.352 39.5844 192.355 39.5809V35.9219H191.033L190.851 38.5486C190.553 38.6237 190.252 38.6834 189.949 38.7272C189.553 38.7835 189.154 38.8116 188.754 38.8113C188.132 38.8166 187.514 38.707 186.932 38.4882C186.397 38.286 185.906 37.9857 185.483 37.603C185.06 37.2187 184.703 36.769 184.425 36.2713C184.136 35.7503 183.919 35.1927 183.78 34.6138C183.633 34.0022 183.559 33.3753 183.561 32.7463C183.56 32.1654 183.621 31.5861 183.743 31.0179C183.865 30.458 184.057 29.9153 184.314 29.4025C184.563 28.9052 184.891 28.4517 185.287 28.0603C185.69 27.6656 186.167 27.3532 186.691 27.1409C187.28 26.9091 187.909 26.7931 188.542 26.7995C188.875 26.7983 189.207 26.8273 189.534 26.8861C189.797 26.9316 190.057 26.9992 190.309 27.0884C190.498 27.1558 190.684 27.2347 190.864 27.3248L191.028 29.8937L192.331 29.8989ZM198.656 26.9676H200.285V38.6563H198.656V39.8909H202.276L208.931 29.1214C209.058 28.9192 209.169 28.7169 209.275 28.5173C209.377 28.3266 209.465 28.1291 209.539 27.9263L209.64 27.9657C209.587 28.1599 209.547 28.3573 209.521 28.5567C209.491 28.777 209.476 28.999 209.476 29.2213V38.6432H207.847V39.8777H213.117V38.6432H211.488V26.9544H213.117V25.7409H209.494L203.022 36.1557C202.879 36.3869 202.736 36.6285 202.598 36.8728C202.461 37.1171 202.334 37.3771 202.207 37.6608L202.125 37.6214C202.186 37.3399 202.228 37.0547 202.252 36.7677C202.279 36.4788 202.289 36.1846 202.289 35.8825V26.9649H203.918V25.7409H198.659V26.9754L198.656 26.9676ZM220.044 29.3736L220.248 26.9886H223.667V38.6563H221.842V39.8909H227.501V38.6563H225.668V26.9859H229.087L229.291 29.371H230.613V25.7409H218.714V29.3815L220.044 29.3736ZM246.433 36.2476H245.111L244.907 38.6537H239.849V33.3347L244.511 33.4975V31.9399L239.849 32.1211V26.9649H244.918L245.121 29.371H246.443V25.7409H236.224V26.9754H237.853V38.6642H236.224V39.8987H246.433V36.2476ZM253.39 29.3736L253.593 26.9886H257.012V38.6563H255.18V39.8909H260.838V38.6563H259.019V26.9859H262.438L262.641 29.371H263.963V25.7409H252.065V29.3815L253.39 29.3736Z" fill="#CE1531"/>
<path d="M40.7197 24.9536L44.7969 32.8494L44.8445 32.9413V38.7699H44.4161C44.2231 38.7699 44.0275 38.7699 43.7155 38.7699C41.3542 38.7227 39.2204 38.2446 39.1728 33.2775L36.3542 31.3732L36.2669 31.4336C35.727 31.8013 35.1457 32.1054 34.535 32.3398C34.0132 32.5391 33.4704 32.6793 32.9168 32.7575L32.306 35.8254H32.4224C33.4642 35.8832 34.0432 36.335 34.3658 37.039C34.6884 37.7429 34.7148 38.5966 34.7148 39.5606V39.9861H26.6264V38.5834V38.1711V35.8963H24.9606V35.4603V35.4183V35.3789V35.3001V35.2187V35.1609V35.1372V35.0637V35.0033V34.9665V34.9271C24.9606 34.8877 24.9739 34.8483 24.9818 34.8115V34.7931V34.7747V34.7354V34.717V34.6723V34.6355V34.6171V34.5988L25.003 34.5252L25.0267 34.4517C25.0532 34.3729 25.0796 34.2967 25.1114 34.2205C25.1627 34.0961 25.2218 33.975 25.2885 33.858V33.858C25.4623 33.5554 25.6837 33.2822 25.9443 33.049V33.049C26.0391 32.9645 26.1389 32.8855 26.243 32.8126H21.6502C21.2178 33.2109 20.7136 33.5245 20.1642 33.7372V33.7372C20.0452 33.7819 19.9315 33.8186 19.8257 33.8475V35.8123H19.8522C21.042 35.8123 21.6819 36.2798 22.0309 37.0337C22.3456 37.7114 22.3773 38.5913 22.3773 39.5553V39.9808H8.07788V35.8832H6.40679V35.4603C6.40596 35.0107 6.4996 34.5659 6.68172 34.1543C6.86384 33.7427 7.13043 33.3734 7.46444 33.07C7.57242 32.9754 7.68635 32.8876 7.80553 32.8074H6.40679V32.3818C6.40929 31.8459 6.54446 31.3188 6.80037 30.847C7.05628 30.3752 7.42509 29.9732 7.87428 29.6763C7.94038 29.6317 8.00913 29.5897 8.08052 29.5503V27.7273H7.28728L7.17358 27.4647C6.65785 26.3014 6.39649 25.0426 6.40679 23.7716C6.40939 21.9657 6.88701 20.1919 7.79231 18.6259C8.73716 16.9735 10.1824 15.6592 11.9224 14.8697C13.2279 14.2974 14.6417 14.0099 16.0684 14.0265H27.6762C28.126 13.3818 28.6938 12.8267 29.3499 12.3901C29.4795 12.3034 29.6143 12.2168 29.7809 12.1274C30.0839 11.9588 30.4005 11.8156 30.7275 11.6993C30.5791 11.4179 30.4933 11.108 30.476 10.7908C30.4587 10.4736 30.5102 10.1564 30.627 9.86062C30.7709 9.5209 31.0129 9.23115 31.3224 9.02796C31.6323 8.82574 31.9935 8.71465 32.3642 8.7075C33.1019 8.69174 33.9163 9.06998 34.5086 10.0077H39.8603C40.4526 9.06998 41.267 8.69437 42.0047 8.7075C42.3754 8.71465 42.7366 8.82574 43.0465 9.02796C43.3559 9.23127 43.5979 9.52098 43.7419 9.86062C44.0063 10.5042 43.9561 11.3526 43.3109 12.2483C45.9788 17.2679 44.2787 19.9865 41.0713 22.6053V22.6762C41.037 23.4457 40.9191 24.2093 40.7197 24.9536V24.9536ZM20.8384 37.5879V39.1219H21.5286C21.5541 38.5291 21.4643 37.9369 21.2642 37.3778C21.0579 36.9313 20.6507 36.6555 19.8628 36.6555H18.9664V33.1357L19.3313 33.0779C19.4204 33.0631 19.5086 33.0439 19.5957 33.0201C19.6909 32.9939 19.7782 32.9676 19.8601 32.9361C19.958 32.8993 20.0558 32.8573 20.1536 32.81H16.9569C16.5246 33.2084 16.0204 33.5221 15.4709 33.7346C15.3545 33.7792 15.2382 33.816 15.1271 33.8449L15.0161 33.8712L14.2361 35.8543C14.5794 35.8965 14.9055 36.028 15.1813 36.2356C15.4571 36.4431 15.6728 36.7194 15.8067 37.0363C16.0634 37.7065 16.1812 38.4212 16.153 39.1377H19.2758V37.6037H19.7041V39.1377H20.3942V37.6037L20.8384 37.5879ZM14.5322 37.5879V39.1219H15.3069C15.3323 38.5299 15.2425 37.9386 15.0425 37.3804C14.8363 36.9339 14.4264 36.6581 13.6411 36.6581H13.0012L13.2286 36.0802L14.3022 33.359L14.3921 33.1278L14.5692 33.1015C15.5339 32.8347 16.3843 32.2619 16.991 31.4705C17.5977 30.6791 17.9274 29.7124 17.9299 28.7176C17.9321 27.8309 17.6739 26.9627 17.1869 26.2196C17.0944 26.0766 16.9938 25.9389 16.8855 25.8072C16.8009 25.7048 16.711 25.605 16.6211 25.5078H17.7395C17.8003 25.5892 17.8585 25.6733 17.9114 25.7705C18.4757 26.6443 18.775 27.661 18.7734 28.6992C18.7732 29.8753 18.386 31.0191 17.6708 31.9563H24.9686C25.0049 31.6702 25.0796 31.3901 25.1907 31.1237C25.2422 30.9993 25.3014 30.8783 25.3678 30.7612V30.7612C25.6627 30.2465 26.0932 29.8215 26.6132 29.5319L26.5868 25.4999H27.4408L27.4699 29.7893V30.0651L27.2055 30.178C26.7402 30.3865 26.3533 30.7359 26.1003 31.1762C25.969 31.4114 25.8795 31.6673 25.8359 31.9327H27.4699V33.1541L27.2372 33.2592H27.2161H27.2029L27.1447 33.2854H27.1183H27.0918H27.0707H27.0495H27.0284H27.0072H26.9913H26.9702H26.9543H26.9067H26.8909H26.8459L26.8089 33.3117H26.7957L26.7349 33.359L26.7031 33.3852L26.6767 33.4089L26.6344 33.4456L26.5498 33.5271L26.5233 33.556L26.4995 33.5822L26.4863 33.598L26.4652 33.6243L26.4519 33.64L26.4387 33.6558L26.4096 33.6926L26.3541 33.7687C26.3026 33.8397 26.2549 33.9133 26.2113 33.9894C26.1866 34.0314 26.1637 34.0743 26.1426 34.1181V34.1338L26.1294 34.1627V34.1864V34.2074V34.2284L26.0976 34.3177V34.3466V34.3624V34.386V34.407V34.4307V34.4464L26.0791 34.5252V34.5725H27.7132V38.1106V38.6622H30.709V37.1283H31.1373V38.6622H31.8275V37.1283H32.2558V38.6622H32.9459V37.1283H33.3743V38.6622H33.8449C33.8705 38.0703 33.7807 37.4789 33.5805 36.9208C33.3743 36.4742 32.9644 36.1984 32.1791 36.1984H31.2537L31.4493 35.2239L31.6767 34.0839L32.0284 32.3477L32.1342 31.8224L32.1976 31.5124L32.3695 30.6692L32.4144 30.4512L32.618 30.3619C32.9613 30.3485 33.3019 30.2965 33.6334 30.2069V30.2069C33.6916 30.1597 33.7524 30.1098 33.8132 30.0546C33.874 29.9994 33.9375 29.9416 33.9903 29.8891C34.598 29.2856 35.0231 28.5248 35.2172 27.6932C35.2555 27.5286 35.2846 27.3619 35.3045 27.1941C35.3247 27.0259 35.3353 26.8566 35.3362 26.6872V26.5926V25.5209H36.1903V26.5874V26.6819C36.19 26.8847 36.1786 27.0872 36.1559 27.2887C36.1328 27.4883 36.0984 27.6865 36.0528 27.8823C35.8236 28.8699 35.3197 29.7737 34.5985 30.4906C34.5271 30.5642 34.4557 30.6272 34.3923 30.685C34.3288 30.7428 34.2521 30.8058 34.1754 30.8689C33.8613 31.1211 33.5199 31.3378 33.1574 31.515L33.0861 31.867C33.4739 31.7928 33.8544 31.6847 34.223 31.5439C34.7702 31.3339 35.2911 31.0615 35.7751 30.7323C38.139 29.1326 39.818 26.2354 40.1512 23.3355C39.506 23.8241 38.8159 24.3153 38.102 24.8275L37.4277 25.3108L37.1765 25.4894L36.9253 25.3108L36.2484 24.8275C31.4335 21.3786 27.7634 18.7467 30.902 12.5372C30.6571 12.6312 30.4194 12.7427 30.1907 12.8708V12.8708C30.0744 12.9338 29.9501 13.0126 29.8206 13.0993C29.2006 13.5134 28.6732 14.0499 28.2711 14.6753L28.1468 14.8723H16.0684C14.7628 14.8564 13.4689 15.1188 12.2741 15.642C10.6962 16.3605 9.38686 17.5555 8.53267 19.0567C7.70234 20.4958 7.26569 22.1259 7.26613 23.7847C7.25841 24.8428 7.45591 25.8924 7.84784 26.8763H8.11225V25.5078H8.9901V27.4568H8.93722V30.0835L8.68603 30.1991C8.57026 30.2515 8.45886 30.313 8.35287 30.3829C8.24656 30.4522 8.14579 30.5295 8.05144 30.6141C7.66342 30.9679 7.40328 31.4386 7.31108 31.9537H8.93722V33.1725L8.68603 33.288C8.45316 33.3926 8.23815 33.5326 8.04879 33.7031C7.66046 34.0559 7.39944 34.5256 7.30579 35.04H8.93722V39.1324H11.8458V37.5984H12.2741V39.1324H12.9642V37.5984H13.3926V39.1324H14.0827V37.5984L14.5322 37.5879ZM43.2977 36.3797V37.8926C43.4405 37.8926 43.5859 37.9084 43.7313 37.911H43.9957V33.1462L40.3389 26.1014C39.6608 27.9261 38.5315 29.5521 37.0549 30.8295L39.8259 32.7023L40.0137 32.8284V33.0543C40.0137 35.8569 40.717 37.0468 41.735 37.5538V36.3928H42.1634V37.7219C42.3887 37.7901 42.6196 37.8384 42.8535 37.8664V36.3928L43.2977 36.3797ZM33.9586 15.4975H36.3383L36.2802 15.9073C36.222 16.3249 36.1585 16.6821 36.0977 17.021C35.8756 18.2713 35.6932 19.3036 36.2008 20.5092H38.1416C38.6519 19.3036 38.4669 18.2739 38.2448 17.0236C38.1839 16.6821 38.1205 16.3275 38.0623 15.9099L38.0094 15.4975H40.3891L38.8503 16.2225C38.8873 16.451 38.9269 16.6795 38.9666 16.9001C39.231 18.3474 39.4346 19.5268 38.7022 21.0293L38.6044 21.2342H35.7355L35.6376 21.0293C34.9158 19.5242 35.1247 18.3474 35.3732 16.9001C35.4129 16.6795 35.4526 16.451 35.4896 16.2225L33.9586 15.4975ZM37.1712 20.1205L37.9645 19.5426L37.663 19.0855H36.6874L36.3859 19.5426L37.1792 20.1205H37.1712ZM36.7535 24.1288L37.1739 24.4282L37.5996 24.1235C42.2004 20.8375 45.688 18.3448 42.4172 12.4138L42.2797 12.1511L42.4648 11.9278C43.0412 11.2317 43.1285 10.6145 42.946 10.1784C42.8656 10.0003 42.7353 9.84893 42.5705 9.74242C42.3967 9.62922 42.1941 9.56729 41.9862 9.5638C41.4838 9.5638 40.9074 9.86587 40.4817 10.6434L40.3601 10.8666H34.0141L33.8925 10.6434C33.4668 9.85536 32.8904 9.5533 32.388 9.5638C32.1802 9.56743 31.9776 9.62935 31.8037 9.74242C31.6346 9.85237 31.5021 10.0096 31.4229 10.1942C31.2378 10.6276 31.3277 11.2449 31.9041 11.9436L32.0892 12.1668L31.9517 12.4295C28.6809 18.3606 32.1685 20.8533 36.7693 24.1393L36.7535 24.1288Z" fill="#CE1531"/>
<path fill-rule="evenodd" clip-rule="evenodd" d="M36.3382 15.498C36.2389 15.7299 36.0732 15.9277 35.8616 16.0667C35.6501 16.2057 35.402 16.2798 35.1484 16.2798C34.8947 16.2798 34.6466 16.2057 34.4351 16.0667C34.2235 15.9277 34.0578 15.7299 33.9585 15.498H36.3382Z" fill="#CE1531"/>
<path fill-rule="evenodd" clip-rule="evenodd" d="M40.389 15.498C40.2897 15.7299 40.124 15.9277 39.9124 16.0667C39.7008 16.2057 39.4528 16.2798 39.1991 16.2798C38.9455 16.2798 38.6974 16.2057 38.4859 16.0667C38.2743 15.9277 38.1085 15.7299 38.0093 15.498H40.389Z" fill="#CE1531"/>
<path d="M38.8848 49.64V50.1495H41.5685V49.64H40.7092V44.707H40.5849L38.6812 45.1378L38.7208 45.5476L39.9477 45.4399V49.64H38.8848Z" fill="#CE1531"/>
<path d="M45.5611 45.1795L45.4844 44.5938C44.8861 44.6488 44.306 44.8278 43.7816 45.1191C43.3241 45.3843 42.956 45.7782 42.7239 46.2512C42.4671 46.8112 42.3432 47.4223 42.3617 48.0373C42.3593 48.3306 42.4003 48.6227 42.4833 48.9041C42.5576 49.1549 42.6777 49.39 42.8376 49.5976C42.988 49.7917 43.1805 49.9498 43.4008 50.0599C43.6347 50.1728 43.8917 50.2303 44.1517 50.228C44.4233 50.2337 44.6931 50.1846 44.945 50.0835C45.1595 49.9948 45.3518 49.8602 45.5082 49.6895C45.6592 49.5226 45.7744 49.3269 45.8466 49.1143C45.9236 48.892 45.962 48.6585 45.9603 48.4235C45.9631 48.1933 45.9237 47.9645 45.844 47.7484C45.7728 47.5613 45.664 47.3905 45.524 47.2467C45.3903 47.1116 45.2301 47.0052 45.0534 46.9341C44.87 46.8619 44.6743 46.8254 44.477 46.8264C44.2859 46.8252 44.0955 46.8499 43.9111 46.9C43.7428 46.9464 43.5831 47.0191 43.4378 47.1154C43.3016 47.2055 43.1848 47.3216 43.0941 47.4568C43.1207 47.1638 43.1929 46.8767 43.3083 46.6058C43.4061 46.3791 43.543 46.1711 43.7128 45.9911C43.8718 45.8258 44.0556 45.6858 44.2575 45.5761C44.4581 45.4664 44.67 45.3784 44.8895 45.3135C45.1097 45.2506 45.3341 45.2032 45.5611 45.1716V45.1795ZM43.2263 48.5653C43.2249 48.4176 43.2463 48.2705 43.2898 48.1293C43.3298 47.9979 43.3954 47.8757 43.4828 47.7694C43.5714 47.6655 43.6826 47.5829 43.808 47.5278C43.9525 47.4666 44.1084 47.4362 44.2654 47.4385C44.4435 47.4345 44.619 47.4819 44.7705 47.575C44.9117 47.6666 45.0229 47.7971 45.0904 47.9507C45.1691 48.1266 45.208 48.3176 45.2041 48.5101C45.2094 48.7156 45.1735 48.9201 45.0983 49.1117C45.0338 49.277 44.918 49.4177 44.7678 49.5135C44.5951 49.6145 44.397 49.6646 44.1967 49.658C44.0524 49.6599 43.9098 49.6265 43.7816 49.5608C43.662 49.4966 43.5581 49.4069 43.4775 49.2981C43.3951 49.1928 43.3324 49.0736 43.2924 48.9462C43.2503 48.8199 43.2289 48.6878 43.2289 48.5548L43.2263 48.5653Z" fill="#CE1531"/>
<path d="M5.48391 49.64V50.1495H8.1677V49.64H7.30836V44.707H7.18409L5.28296 45.1378L5.31998 45.5476L6.54685 45.4399V49.64H5.48391Z" fill="#CE1531"/>
<path d="M9.28082 49.6954L9.3575 50.2811C9.95584 50.2262 10.5359 50.0473 11.0603 49.7558C11.5179 49.4907 11.886 49.0967 12.118 48.6237C12.3748 48.0637 12.4987 47.4526 12.4802 46.8375C12.4833 46.5442 12.4423 46.2521 12.3586 45.9707C12.2843 45.72 12.1642 45.4849 12.0043 45.2773C11.8538 45.0832 11.6613 44.9252 11.4411 44.815C11.2073 44.7019 10.9502 44.6444 10.6901 44.6469C10.4186 44.6415 10.1488 44.6907 9.89691 44.7914C9.68384 44.8789 9.49254 45.0116 9.33635 45.1801C9.18223 45.3471 9.06433 45.5438 8.98997 45.758C8.91282 45.9801 8.87437 46.2138 8.87627 46.4488C8.87217 46.6788 8.91071 46.9077 8.98997 47.1238C9.05985 47.311 9.16787 47.4818 9.30727 47.6255C9.44217 47.7616 9.60431 47.8681 9.78321 47.9381C9.96647 48.0109 10.1623 48.0475 10.3596 48.0458C10.5507 48.0468 10.7411 48.0221 10.9255 47.9723C11.093 47.9262 11.252 47.8534 11.3961 47.7569C11.531 47.6669 11.6461 47.5508 11.7346 47.4154C11.7096 47.7092 11.6382 47.9973 11.523 48.2691C11.4264 48.4958 11.2903 48.7038 11.1211 48.8837C10.9622 49.0492 10.7785 49.1892 10.5764 49.2987C10.3763 49.4094 10.1644 49.4976 9.9445 49.5614C9.72439 49.6242 9.49991 49.6707 9.27289 49.7006L9.28082 49.6954ZM11.6156 46.3253C11.6174 46.4696 11.596 46.6133 11.5521 46.7509C11.5115 46.8796 11.4459 46.9991 11.3591 47.1028C11.2707 47.207 11.1595 47.2897 11.0339 47.3445C10.8892 47.4053 10.7335 47.4357 10.5764 47.4338C10.4009 47.4411 10.2274 47.3946 10.0793 47.3006C9.9313 47.2067 9.81592 47.0698 9.74884 46.9085C9.66997 46.7224 9.63123 46.5219 9.63514 46.3201C9.63112 46.1258 9.66992 45.9331 9.74884 45.7553C9.82006 45.5966 9.93688 45.4623 10.0846 45.3692C10.2535 45.2708 10.4469 45.2216 10.6426 45.2274C10.7886 45.2253 10.9329 45.2586 11.063 45.3246C11.1828 45.3884 11.2867 45.4782 11.367 45.5872C11.4482 45.6949 11.51 45.8158 11.5495 45.9445C11.5915 46.0743 11.6129 46.2099 11.6129 46.3463L11.6156 46.3253Z" fill="#CE1531"/>
<path d="M0.483876 4.55078H51.2379V39.5514C51.2379 46.3011 48.5388 52.7744 43.7343 57.5472C38.9298 62.32 32.4135 65.0014 25.619 65.0014C18.8244 65.0014 12.3081 62.32 7.50362 57.5472C2.69913 52.7744 0 46.3011 0 39.5514L0 4.55078H0.483876ZM25.619 5.5174H0.967751V39.5514C0.967751 46.0458 3.56479 52.2743 8.18754 56.8665C12.8103 61.4588 19.0801 64.0387 25.6176 64.0387C32.1552 64.0387 38.425 61.4588 43.0478 56.8665C47.6705 52.2743 50.2675 46.0458 50.2675 39.5514V5.5174H25.619Z" fill="#CE1531"/>
<path d="M36.3515 43.375L36.6714 43.459V58.1553L36.1585 58.0529C32.5096 57.3148 28.9559 57.8821 25.6084 59.3321C22.2768 57.8795 18.7125 57.3174 15.0716 58.0503L14.5586 58.1527V43.4616L14.8785 43.3776C15.3967 43.2439 15.9231 43.1438 16.4544 43.0781C17.0161 43.0086 17.5809 42.9674 18.1467 42.9547C20.9653 42.8864 24.0114 43.4616 25.619 44.4965C27.224 43.4616 30.2727 42.8864 33.0913 42.9547C33.6571 42.9674 34.2219 43.0086 34.7835 43.0781C35.3112 43.1426 35.834 43.2408 36.3489 43.3723L36.3515 43.375ZM16.6157 46.5848C17.1128 46.527 17.6284 46.4928 18.1493 46.4797C20.1615 46.415 22.1699 46.6967 24.0854 47.3124V47.9086C22.4989 47.3097 20.2778 46.9945 18.1625 47.0444C17.6337 47.0444 17.1049 47.0917 16.6157 47.1521V46.5848V46.5848ZM16.6157 48.9488C17.1128 48.891 17.6284 48.8568 18.1493 48.8437C20.1615 48.779 22.1699 49.0607 24.0854 49.6764V50.2726C22.4989 49.6711 20.2778 49.3585 18.1625 49.4085C17.6337 49.4085 17.1049 49.4557 16.6157 49.5161V48.9488V48.9488ZM16.6157 51.3128C17.1128 51.255 17.6284 51.2209 18.1493 51.2077C20.1615 51.1431 22.1699 51.4248 24.0854 52.0404V52.6366C22.4989 52.0351 20.2778 51.7226 18.1625 51.7725C17.6337 51.7725 17.1049 51.8197 16.6157 51.8802V51.3128V51.3128ZM16.6157 53.6768C17.1128 53.619 17.6284 53.5849 18.1493 53.5717C20.1615 53.5071 22.1699 53.7888 24.0854 54.4044V55.0007C22.4989 54.3992 20.2778 54.0866 18.1625 54.1365C17.6337 54.1365 17.1049 54.1838 16.6157 54.2442V53.6768V53.6768ZM25.1933 58.2262V45.2373C23.7549 44.2733 20.8675 43.7427 18.1678 43.8057C17.6312 43.8174 17.0955 43.856 16.5628 43.9213C16.1636 43.9712 15.7696 44.0369 15.4126 44.1183V57.1257C18.7132 56.5774 22.1024 56.9587 25.1959 58.2262H25.1933ZM34.6222 47.1495C34.1225 47.0891 33.6016 47.0523 33.0754 47.0418C30.9601 46.9919 28.7311 47.3045 27.1526 47.906V47.3097C29.0681 46.6941 31.0764 46.4124 33.0887 46.4771C33.6175 46.4771 34.1252 46.5243 34.6222 46.5821V47.1495ZM34.6222 49.5135C34.1225 49.4531 33.6016 49.4163 33.0754 49.4058C30.9601 49.3559 28.7311 49.6685 27.1526 50.27V49.6737C29.0682 49.0638 31.0756 48.7874 33.086 48.8568C33.6148 48.8568 34.1225 48.9041 34.6196 48.9619V49.5293L34.6222 49.5135ZM34.6222 51.8775C34.1225 51.8171 33.6016 51.7803 33.0754 51.7698C30.9601 51.7199 28.7311 52.0325 27.1526 52.634V52.0378C29.0682 51.4278 31.0756 51.1514 33.086 51.2209C33.6148 51.2209 34.1225 51.2681 34.6196 51.3259V51.8933L34.6222 51.8775ZM34.6222 54.2416C34.1225 54.1811 33.6016 54.1444 33.0754 54.1339C30.9601 54.084 28.7311 54.3965 27.1526 54.998V54.4018C29.0682 53.7918 31.0756 53.5154 33.086 53.5849C33.6148 53.5849 34.1225 53.6322 34.6196 53.6899V54.2573L34.6222 54.2416ZM35.8253 44.1288C35.4604 44.0474 35.0744 43.9817 34.6751 43.9318C34.1424 43.8665 33.6068 43.8279 33.0701 43.8162C30.3705 43.7532 27.4831 44.2864 26.0447 45.2478V58.2394C29.1383 56.9721 32.5274 56.5909 35.828 57.1388V44.1288H35.8253Z" fill="#CE1531"/>
<path d="M0.47583 39.1191H50.7619V39.9754H0.47583V39.1191Z" fill="#CE1531"/>
<path d="M71.9046 61.0361H73.3773C73.3773 61.0361 73.3773 60.9967 73.3773 60.9231C73.3773 60.8496 73.3641 60.7471 73.3535 60.621C73.343 60.495 73.3377 60.3584 73.3297 60.2008C73.3218 60.0432 73.3297 59.8829 73.3297 59.7175V56.4735H74.2155L77.6899 61.1175L79.3901 61.0466L79.3055 60.9573C79.2499 60.8995 79.1759 60.8233 79.0887 60.7261L78.7952 60.3951C78.6947 60.2796 78.5995 60.1614 78.5096 60.0432L75.3631 55.8405C75.8038 55.3029 76.1872 54.8274 76.5133 54.4142C76.8411 53.9992 77.1241 53.6262 77.362 53.3136C77.6 53.001 77.8063 52.7068 77.9808 52.452C78.1553 52.1973 78.3086 51.9582 78.4461 51.7376C78.5836 51.5169 78.7105 51.2963 78.8375 51.0809H77.3673C77.2589 51.2727 77.1532 51.4644 77.0421 51.6509C76.931 51.8374 76.8041 52.0423 76.6587 52.2603C76.5133 52.4783 76.3361 52.7305 76.1299 53.0168C75.9236 53.3031 75.6698 53.6393 75.3737 54.0307C75.0775 54.4221 74.7232 54.8975 74.3001 55.4228H73.298V51.0074L71.812 51.0783L71.8252 51.2044L71.8543 51.538C71.8667 51.678 71.8763 51.8339 71.8834 52.0055C71.8834 52.1789 71.8966 52.3575 71.8966 52.5308V61.0255L71.9046 61.0361ZM84.6757 61.0361H86.0771C86.0771 61.0361 86.0771 60.9967 86.0771 60.9231C86.0771 60.8496 86.0639 60.7576 86.0533 60.6394C86.0427 60.5212 86.0374 60.3951 86.0295 60.2586C86.0216 60.122 86.0295 59.9959 86.0295 59.8593V53.9335H81.204C81.1899 54.8196 81.1617 55.5866 81.1193 56.2345C81.0881 56.785 81.0236 57.3332 80.9263 57.8761C80.8625 58.2544 80.7515 58.6232 80.5958 58.9741C80.4813 59.2299 80.3094 59.4563 80.0934 59.636C79.8871 59.801 79.6471 59.9193 79.3901 59.9828L79.7761 61.1201C80.2293 61.0463 80.6534 60.8505 81.0026 60.5542C81.3517 60.2578 81.6125 59.8722 81.7566 59.439C81.9713 58.8526 82.1125 58.2421 82.177 57.6214C82.2704 56.8876 82.333 56.0042 82.3647 54.971H84.681V61.0361H84.6757ZM94.1946 59.7858L94.0835 59.8593C93.9992 59.9118 93.9108 59.9575 93.8191 59.9959C93.7209 60.0402 93.6149 60.0652 93.5071 60.0694C93.4632 60.0727 93.4192 60.0651 93.379 60.0472C93.3388 60.0293 93.3038 60.0017 93.277 59.967C93.2286 59.8969 93.2045 59.8129 93.2083 59.728C93.2083 59.552 93.2083 59.3523 93.2083 59.1265C93.2083 58.9006 93.2083 58.6615 93.2083 58.4146C93.2083 58.1677 93.2083 57.9129 93.2215 57.6608C93.2347 57.4086 93.2215 57.1722 93.2347 56.9489C93.248 56.7257 93.2347 56.5234 93.2347 56.3474C93.2612 55.8433 93.1641 55.3404 92.9518 54.8817C92.7655 54.5162 92.4597 54.2245 92.0846 54.0543C91.65 53.8654 91.1784 53.7756 90.7043 53.7916C90.343 53.7914 89.9823 53.8195 89.6255 53.8757C89.3573 53.9169 89.0922 53.9766 88.8323 54.0543C88.663 54.1045 88.4969 54.165 88.3352 54.2356C88.2765 54.2598 88.2192 54.287 88.1633 54.317V55.3834L88.3167 55.3125C88.4573 55.253 88.6012 55.2013 88.7477 55.1575C88.9696 55.091 89.1957 55.0392 89.4246 55.0026C89.7165 54.9552 90.0119 54.9315 90.3077 54.9316C90.6141 54.9193 90.9198 54.9684 91.2067 55.0761C91.4407 55.1733 91.6294 55.3542 91.7355 55.5831C91.8657 55.8892 91.9253 56.2203 91.91 56.5523V56.9988H91.3812C91.167 56.9988 90.937 57.0172 90.6911 57.0356C90.4452 57.054 90.2019 57.0803 89.964 57.1197C89.5093 57.1798 89.0709 57.3279 88.6736 57.5557C88.3575 57.7373 88.0949 57.9982 87.9121 58.3122C87.7437 58.6171 87.6572 58.9599 87.6609 59.3077C87.6593 59.5463 87.6987 59.7835 87.7773 60.009C87.8537 60.2314 87.9762 60.4354 88.1369 60.6079C88.3107 60.7906 88.5228 60.9332 88.7582 61.0255C89.0469 61.1345 89.3538 61.188 89.6625 61.1831C90.0844 61.1857 90.5028 61.1072 90.8947 60.952C91.2713 60.7953 91.6183 60.5759 91.9206 60.3032C91.9767 60.5572 92.1162 60.7855 92.3172 60.952C92.5374 61.1125 92.8059 61.194 93.0787 61.1831C93.3563 61.1826 93.6293 61.1121 93.872 60.9783C93.9479 60.9353 94.0212 60.888 94.0914 60.8364L94.1681 60.7734V59.7936L94.1946 59.7858ZM90.1041 60.0983C89.9018 60.1018 89.7016 60.0577 89.5197 59.9696C89.3684 59.8953 89.2424 59.7784 89.1575 59.6334C89.072 59.4847 89.0282 59.316 89.0306 59.1448C89.0251 58.9671 89.0651 58.7908 89.1469 58.6326C89.2423 58.4662 89.38 58.3277 89.5462 58.2308C89.7819 58.0953 90.0368 57.9961 90.3024 57.9366C90.5139 57.884 90.7202 57.8473 90.9158 57.8184C91.1115 57.7895 91.2992 57.7711 91.4685 57.7579L91.9021 57.7238C91.9021 58.0232 91.8889 58.3227 91.8836 58.6248C91.8783 58.9268 91.8836 59.2289 91.8836 59.5257C91.7406 59.6175 91.5923 59.7008 91.4394 59.7752C91.247 59.8687 91.046 59.9435 90.8392 59.9985C90.6012 60.0624 90.3559 60.0951 90.1094 60.0957L90.1041 60.0983ZM98.6155 54.9132C98.8254 54.9157 99.0345 54.9394 99.2396 54.9842C99.4485 55.0288 99.6626 55.0787 99.8821 55.1313C100.109 55.1827 100.34 55.2187 100.572 55.239L100.686 54.0753C100.458 54.0606 100.232 54.0299 100.009 53.9834C99.8001 53.9387 99.5859 53.8967 99.3691 53.8547C99.1335 53.813 98.8946 53.792 98.6552 53.7916C98.1986 53.7885 97.747 53.8863 97.3331 54.078C96.928 54.2696 96.5677 54.5434 96.2755 54.8817C95.9619 55.2468 95.7206 55.6675 95.5642 56.1215C95.3885 56.6286 95.2991 57.1612 95.2998 57.6975C95.2944 58.1701 95.3667 58.6403 95.514 59.0897C95.6455 59.4957 95.8628 59.8691 96.1512 60.185C96.4441 60.5017 96.8058 60.7478 97.2089 60.9047C97.6766 61.0848 98.1748 61.1739 98.6764 61.1674C98.9618 61.1683 99.2468 61.1437 99.5278 61.0938C99.7431 61.0567 99.9553 61.0032 100.162 60.9336C100.298 60.889 100.431 60.8355 100.559 60.7734L100.694 60.6998V59.6492L100.562 59.7096C100.474 59.7464 100.35 59.791 100.189 59.8409C99.7602 59.9699 99.3146 60.0345 98.8667 60.0327C98.5344 60.0377 98.2053 59.9677 97.9043 59.8278C97.6331 59.6956 97.3961 59.5033 97.2115 59.2657C97.0203 59.0108 96.8778 58.7232 96.7911 58.4172C96.6956 58.0752 96.6484 57.7216 96.651 57.3666C96.6408 56.9242 96.7115 56.4836 96.8598 56.0664C96.9809 55.7245 97.2041 55.4276 97.4997 55.2153C97.825 55.0034 98.2084 54.897 98.597 54.9106L98.6155 54.9132ZM105.268 54.9132C105.478 54.9157 105.687 54.9394 105.892 54.9842C106.101 55.0288 106.315 55.0787 106.535 55.1313C106.762 55.1827 106.993 55.2187 107.225 55.239L107.339 54.0753C107.111 54.0606 106.885 54.0299 106.662 53.9834C106.453 53.9387 106.239 53.8967 106.024 53.8547C105.789 53.8131 105.55 53.792 105.31 53.7916C104.854 53.7885 104.402 53.8863 103.988 54.078C103.583 54.2696 103.223 54.5434 102.931 54.8817C102.617 55.2468 102.376 55.6675 102.219 56.1215C102.044 56.6286 101.954 57.1612 101.955 57.6975C101.95 58.1701 102.022 58.6403 102.169 59.0897C102.301 59.4957 102.518 59.8691 102.806 60.185C103.099 60.5017 103.461 60.7478 103.864 60.9047C104.332 61.0848 104.83 61.1739 105.332 61.1674C105.617 61.1683 105.902 61.1437 106.183 61.0938C106.4 61.0587 106.614 61.0069 106.823 60.9389C106.959 60.8943 107.091 60.8408 107.22 60.7786L107.354 60.7051V59.6544L107.222 59.7148C107.135 59.7516 107.011 59.7963 106.849 59.8462C106.421 59.9751 105.975 60.0398 105.527 60.0379C105.195 60.0431 104.866 59.973 104.565 59.833C104.294 59.7008 104.057 59.5084 103.872 59.2709C103.681 59.016 103.538 58.7285 103.452 58.4225C103.356 58.0804 103.309 57.7268 103.312 57.3718C103.301 56.9294 103.372 56.4889 103.52 56.0716C103.641 55.7298 103.865 55.4329 104.16 55.2206C104.486 55.0087 104.869 54.9022 105.258 54.9159L105.268 54.9132ZM109.076 61.0361H110.398L113.528 56.3474C113.642 56.1741 113.74 56.0112 113.822 55.8615C113.904 55.7118 113.965 55.5988 114.007 55.4964L114.07 55.3519H114.113C114.113 55.3519 114.113 55.4018 114.092 55.4911C114.07 55.5804 114.063 55.7091 114.049 55.8694C114.036 56.0296 114.031 56.2108 114.028 56.4157V61.0308H115.43C115.43 61.0308 115.43 60.9914 115.43 60.9179C115.43 60.8443 115.416 60.7419 115.406 60.6158C115.395 60.4897 115.39 60.3531 115.382 60.1955C115.374 60.0379 115.382 59.8777 115.382 59.7122V53.8626L114.06 53.9335L111.056 58.3989C110.919 58.6037 110.792 58.7981 110.702 58.9794C110.612 59.1606 110.53 59.3051 110.477 59.4206C110.424 59.5362 110.398 59.5914 110.398 59.594H110.34L110.353 59.4784L110.382 59.1711C110.394 59.0415 110.404 58.8971 110.411 58.7377C110.411 58.5801 110.424 58.4146 110.424 58.2465V53.8626L109.01 53.9335C109.01 53.9335 109.01 53.9781 109.023 54.0622L109.052 54.3932C109.064 54.5333 109.074 54.6891 109.081 54.8607C109.081 55.0341 109.094 55.2127 109.094 55.386V61.0255L109.076 61.0361ZM117.616 61.0361H119.018C119.018 61.0361 119.018 60.9967 119.018 60.9231C119.018 60.8496 119.004 60.7471 118.994 60.621C118.983 60.495 118.978 60.3584 118.97 60.2008C118.962 60.0432 118.97 59.8829 118.97 59.7175V57.9129H119.642L122.13 61.1096L123.703 61.0387L123.616 60.9441L123.388 60.6972C123.296 60.5948 123.195 60.4792 123.087 60.3531C122.979 60.227 122.875 60.0904 122.772 59.9722L120.699 57.3456L121.857 55.8956C122.188 55.478 122.455 55.1234 122.651 54.845C122.846 54.5665 122.994 54.3196 123.084 54.1778C123.174 54.0359 123.217 53.9493 123.214 53.9493H121.842C121.842 53.9493 121.81 54.007 121.744 54.12C121.678 54.2329 121.561 54.4142 121.4 54.6453C121.239 54.8765 121.019 55.1943 120.739 55.5725L119.695 56.9647H118.965V53.8626L117.55 53.9335C117.55 53.9335 117.55 53.9781 117.563 54.0622C117.577 54.1463 117.579 54.2539 117.592 54.3932C117.606 54.5324 117.614 54.69 117.622 54.8607C117.629 55.0314 117.635 55.2127 117.635 55.386V61.0255L117.616 61.0361ZM130.789 59.7858L130.678 59.8593C130.594 59.9118 130.506 59.9575 130.414 59.9959C130.316 60.0402 130.21 60.0652 130.102 60.0694C130.058 60.0727 130.014 60.0651 129.974 60.0472C129.934 60.0293 129.899 60.0017 129.872 59.967C129.823 59.8969 129.799 59.813 129.803 59.728C129.803 59.552 129.803 59.3523 129.803 59.1265C129.803 58.9006 129.803 58.6615 129.803 58.4146C129.803 58.1677 129.803 57.9129 129.816 57.6608C129.829 57.4086 129.816 57.1722 129.829 56.9489C129.843 56.7257 129.829 56.5234 129.829 56.3474C129.856 55.8433 129.759 55.3404 129.547 54.8817C129.36 54.5162 129.054 54.2245 128.679 54.0543C128.245 53.8654 127.773 53.7756 127.299 53.7916C126.938 53.7914 126.577 53.8195 126.22 53.8757C125.952 53.917 125.687 53.9766 125.427 54.0543C125.259 54.1046 125.093 54.1651 124.933 54.2356C124.874 54.2598 124.817 54.287 124.761 54.317V55.3834L124.914 55.3125C125.055 55.253 125.199 55.2012 125.345 55.1575C125.567 55.091 125.793 55.0392 126.022 55.0026C126.314 54.9552 126.609 54.9315 126.905 54.9316C127.211 54.9193 127.517 54.9684 127.804 55.0761C128.038 55.1733 128.227 55.3542 128.333 55.5831C128.463 55.8892 128.523 56.2203 128.507 56.5523V56.9988H127.979C127.764 56.9988 127.534 57.0172 127.288 57.0356C127.043 57.054 126.799 57.0803 126.561 57.1197C126.107 57.1798 125.668 57.328 125.271 57.5557C124.966 57.7412 124.713 58.0018 124.539 58.3122C124.37 58.6171 124.284 58.9599 124.287 59.3077C124.286 59.5463 124.325 59.7835 124.404 60.009C124.48 60.2314 124.603 60.4354 124.763 60.6079C124.937 60.7906 125.149 60.9332 125.385 61.0255C125.673 61.1345 125.98 61.188 126.289 61.1831C126.711 61.1857 127.129 61.1072 127.521 60.952C127.898 60.7953 128.245 60.5759 128.547 60.3032C128.604 60.5576 128.744 60.7859 128.946 60.952C129.167 61.1125 129.435 61.194 129.708 61.1831C129.985 61.1826 130.258 61.1121 130.501 60.9783C130.577 60.9353 130.65 60.888 130.721 60.8364L130.797 60.7734V59.7936L130.789 59.7858ZM126.699 60.0983C126.497 60.1018 126.296 60.0577 126.114 59.9696C125.963 59.8953 125.837 59.7784 125.752 59.6334C125.667 59.4847 125.623 59.316 125.625 59.1448C125.62 58.9671 125.66 58.7908 125.742 58.6326C125.833 58.4692 125.965 58.3317 126.125 58.2334C126.361 58.098 126.616 57.9988 126.881 57.9392C127.093 57.8867 127.299 57.8499 127.495 57.821C127.69 57.7921 127.878 57.7737 128.047 57.7606L128.481 57.7264C128.481 58.0259 128.468 58.3253 128.462 58.6274C128.457 58.9294 128.462 59.2315 128.462 59.5283C128.319 59.6201 128.171 59.7034 128.018 59.7779C127.826 59.8713 127.625 59.9461 127.418 60.0011C127.18 60.065 126.935 60.0977 126.688 60.0983H126.699ZM138.817 55.1418C139.123 55.1238 139.429 55.1786 139.709 55.3015C139.99 55.4243 140.237 55.6118 140.43 55.8483C140.8 56.3185 140.988 57.0225 140.99 57.9497C140.992 58.2405 140.947 58.5297 140.856 58.806C140.769 59.064 140.637 59.3042 140.464 59.5152C140.294 59.7255 140.078 59.8944 139.833 60.0091C139.587 60.1238 139.318 60.1813 139.047 60.1771C138.741 60.195 138.436 60.1408 138.156 60.0189C137.875 59.897 137.628 59.7109 137.434 59.4758C137.064 59.0082 136.876 58.3096 136.873 57.3744C136.871 57.0828 136.917 56.7926 137.008 56.5155C137.094 56.2557 137.226 56.0135 137.4 55.8011C137.569 55.5892 137.784 55.4187 138.03 55.3026C138.276 55.1864 138.545 55.1278 138.817 55.1313V55.1418ZM136.437 55.4964C136.501 54.9814 136.624 54.4754 136.805 53.9886C136.958 53.579 137.19 53.2026 137.487 52.8802C137.785 52.5674 138.145 52.3196 138.545 52.1526C139.027 51.9584 139.536 51.8354 140.054 51.7875C140.544 51.7376 140.927 51.6877 141.21 51.6351C141.493 51.5826 141.694 51.538 141.81 51.5038C141.87 51.4893 141.928 51.4699 141.985 51.446L141.829 50.2246L141.76 50.2482C141.71 50.264 141.62 50.285 141.495 50.3139C141.371 50.3428 141.183 50.3743 140.948 50.4085C140.713 50.4426 140.419 50.482 140.033 50.5214C139.39 50.5778 138.76 50.7282 138.161 50.968C137.671 51.1694 137.228 51.4679 136.858 51.8453C136.504 52.2219 136.225 52.6624 136.038 53.1429C135.826 53.6923 135.683 54.2658 135.612 54.8502C135.523 55.5471 135.482 56.2491 135.488 56.9516C135.479 57.5802 135.558 58.2069 135.723 58.8139C135.852 59.2919 136.078 59.7388 136.387 60.1272C136.661 60.4679 137.014 60.7381 137.416 60.9152C137.833 61.0927 138.283 61.1821 138.738 61.1779C139.413 61.1932 140.082 61.0358 140.678 60.7209C141.219 60.4188 141.654 59.9608 141.926 59.4075C142.236 58.7692 142.388 58.067 142.371 57.3587C142.376 56.9113 142.3 56.4666 142.148 56.0453C142.009 55.6603 141.791 55.3079 141.509 55.0104C141.22 54.7142 140.87 54.4839 140.483 54.3354C140.045 54.1683 139.579 54.0854 139.11 54.0911C138.582 54.0848 138.061 54.2113 137.595 54.4588C137.147 54.7089 136.772 55.0711 136.509 55.5095L136.437 55.4964V55.4964ZM145.922 64.6451C145.922 64.6451 145.948 64.5217 146.006 64.2721C146.064 64.0226 146.181 63.6365 146.345 63.1216C146.509 62.6068 146.741 61.958 147.051 61.1674L148.767 56.8071C148.888 56.5024 149.007 56.1819 149.124 55.851C149.24 55.52 149.343 55.1917 149.428 54.866C149.509 54.562 149.565 54.2519 149.594 53.9387H148.336C148.315 54.1305 148.288 54.3144 148.254 54.493C148.219 54.6716 148.177 54.8528 148.124 55.042C148.071 55.2311 148.008 55.4465 147.929 55.6829C147.849 55.9193 147.757 56.2082 147.648 56.5103L147.162 57.9156C147.072 58.1782 146.995 58.412 146.926 58.6431C146.858 58.8743 146.802 59.0792 146.757 59.2604C146.712 59.4417 146.675 59.5835 146.654 59.6859L146.617 59.8462H146.559L146.525 59.6886C146.503 59.5861 146.469 59.4495 146.429 59.2735C146.39 59.0976 146.339 58.9084 146.281 58.6957C146.223 58.4829 146.157 58.2649 146.086 58.0416L144.697 53.8652L143.166 53.9361C143.166 53.9361 143.198 53.9992 143.251 54.1226C143.304 54.2461 143.381 54.4168 143.471 54.6348C143.56 54.8528 143.658 55.1076 143.767 55.3992L145.84 61.0965L145.726 61.3591C145.481 61.9195 145.284 62.4028 145.134 62.8091C144.984 63.2153 144.876 63.555 144.811 63.8282C144.732 64.0909 144.68 64.2853 144.655 64.4113C144.629 64.5401 144.615 64.6005 144.618 64.6005L145.94 64.6583L145.922 64.6451ZM152.003 53.9361C151.979 54.8108 151.942 55.5804 151.887 56.2476C151.844 56.8271 151.766 57.4034 151.651 57.9733C151.571 58.3971 151.438 58.8092 151.255 59.2C151.109 59.51 150.902 59.7878 150.647 60.0169H150.031L150.187 63.408L151.403 63.337C151.403 63.337 151.403 63.2976 151.403 63.2241C151.403 63.1505 151.39 63.0586 151.379 62.9404C151.369 62.8222 151.363 62.6961 151.355 62.5595C151.347 62.4229 151.355 62.2969 151.355 62.1603V61.0387H156.659L156.76 63.4027L157.976 63.3318C157.976 63.3318 157.976 63.2924 157.976 63.2188C157.976 63.1453 157.963 63.0534 157.952 62.9352C157.942 62.8169 157.937 62.6909 157.929 62.5543C157.921 62.4177 157.929 62.2916 157.929 62.155V60.009H156.813V53.9335L152.003 53.9361ZM153.119 54.9737H155.422V60.0169H151.985C152.323 59.6676 152.588 59.0739 152.778 58.2465C152.999 57.1691 153.115 56.0731 153.124 54.9737H153.119ZM161.131 64.6477C161.131 64.6477 161.157 64.5243 161.215 64.2748C161.273 64.0252 161.39 63.6391 161.554 63.1243C161.718 62.6094 161.95 61.9606 162.26 61.17L163.976 56.8097C164.097 56.505 164.216 56.1846 164.333 55.8536C164.449 55.5226 164.552 55.1943 164.637 54.8686C164.718 54.5646 164.774 54.2545 164.803 53.9414H163.545C163.524 54.1331 163.497 54.317 163.463 54.4956C163.428 54.6742 163.386 54.8555 163.333 55.0446C163.28 55.2337 163.217 55.4491 163.138 55.6855C163.058 55.9219 162.966 56.2108 162.857 56.5129L162.371 57.9182C162.281 58.1808 162.204 58.4146 162.135 58.6458C162.067 58.8769 162.011 59.0818 161.966 59.263C161.921 59.4443 161.884 59.5861 161.863 59.6886L161.826 59.8488H161.768L161.734 59.6912C161.712 59.5887 161.678 59.4522 161.638 59.2762C161.599 59.1002 161.548 58.9111 161.49 58.6983C161.432 58.4855 161.366 58.2675 161.295 58.0443L159.906 53.8678L158.376 53.9387C158.376 53.9387 158.407 54.0018 158.46 54.1252C158.513 54.2487 158.59 54.4194 158.68 54.6374C158.769 54.8555 158.867 55.1102 158.976 55.4018L161.049 61.0991L160.935 61.3618C160.69 61.9221 160.493 62.4054 160.343 62.8117C160.193 63.218 160.084 63.5568 160.018 63.8282C159.938 64.0909 159.886 64.2853 159.862 64.4113C159.835 64.5401 159.822 64.6005 159.824 64.6005L161.147 64.6583L161.131 64.6477ZM166.21 61.0387H175.761L175.861 63.4027L177.077 63.3318C177.077 63.3318 177.077 63.2924 177.077 63.2188C177.077 63.1453 177.064 63.0534 177.054 62.9352C177.043 62.8169 177.038 62.6909 177.03 62.5543C177.022 62.4177 177.03 62.2916 177.03 62.155V60.009H175.914V53.8626L174.499 53.9335L174.513 54.0622C174.513 54.1436 174.528 54.2539 174.542 54.3932C174.555 54.5324 174.563 54.69 174.573 54.8607C174.584 55.0314 174.573 55.2127 174.573 55.386V60.0038H171.72V53.8626L170.306 53.9335L170.319 54.0622L170.348 54.3932C170.348 54.5324 170.369 54.69 170.38 54.8607C170.39 55.0314 170.38 55.2127 170.38 55.386V60.0038H167.545V53.8626L166.131 53.9335C166.131 53.9335 166.131 53.9781 166.144 54.0622C166.157 54.1463 166.16 54.2539 166.173 54.3932C166.186 54.5324 166.194 54.69 166.202 54.8607C166.21 55.0314 166.215 55.2127 166.215 55.386V61.0255L166.21 61.0387ZM181.512 53.7943C181.042 53.7904 180.576 53.8797 180.142 54.0569C179.726 54.2264 179.353 54.4857 179.05 54.8161C178.725 55.1737 178.479 55.5952 178.328 56.0532C178.147 56.5979 178.057 57.1686 178.064 57.7422C178.058 58.2203 178.136 58.6958 178.294 59.1475C178.436 59.5528 178.666 59.9229 178.965 60.2323C179.274 60.5474 179.65 60.789 180.065 60.9389C180.541 61.1103 181.045 61.1948 181.551 61.1884C181.889 61.1884 182.227 61.1629 182.561 61.1122C182.819 61.0747 183.073 61.0194 183.323 60.9467C183.485 60.9 183.645 60.8447 183.801 60.7813L183.968 60.7051V59.6676L183.796 59.728C183.685 59.7647 183.532 59.8094 183.344 59.8593C183.156 59.9092 182.945 59.9539 182.707 59.9933C182.466 60.0317 182.223 60.0519 181.98 60.0537C181.5 60.0683 181.024 59.9654 180.594 59.7542C180.233 59.5622 179.942 59.2628 179.761 58.8979C179.554 58.4686 179.441 58.0002 179.431 57.5242H184.394C184.469 57.0385 184.469 56.5442 184.394 56.0585C184.323 55.634 184.163 55.2293 183.923 54.8712C183.68 54.5307 183.352 54.259 182.971 54.0832C182.518 53.8817 182.026 53.783 181.53 53.7943H181.512ZM181.453 54.7609C181.707 54.7555 181.959 54.8057 182.191 54.908C182.387 54.9962 182.557 55.1317 182.686 55.302C182.811 55.4745 182.901 55.67 182.95 55.8772C183.006 56.1023 183.03 56.3339 183.021 56.5654L179.46 56.6232C179.513 56.2806 179.632 55.9514 179.811 55.654C179.976 55.3832 180.207 55.1582 180.483 54.9999C180.777 54.8382 181.109 54.7558 181.446 54.7609H181.453ZM186.16 61.0387H187.561C187.561 61.0387 187.561 60.9993 187.561 60.9257C187.561 60.8522 187.548 60.7603 187.538 60.642C187.527 60.5238 187.522 60.3978 187.514 60.2612C187.506 60.1246 187.514 59.9985 187.514 59.8619V54.9999H189.515C189.708 54.9999 189.891 54.9999 190.065 55.0183C190.24 55.0367 190.38 55.0393 190.491 55.0525L190.66 55.0708L190.718 53.9335H186.083C186.083 53.9335 186.083 53.9781 186.097 54.0596L186.126 54.3932C186.138 54.5333 186.148 54.6891 186.155 54.8607C186.155 55.0341 186.168 55.2127 186.168 55.386V61.0255L186.16 61.0387ZM194.886 54.774C195.2 54.7572 195.514 54.8173 195.8 54.9492C196.086 55.0811 196.335 55.2807 196.525 55.5305C196.906 56.0331 197.098 56.7852 197.101 57.7868C197.103 58.0995 197.056 58.4106 196.961 58.7088C196.872 58.9846 196.736 59.2431 196.559 59.4732C196.391 59.6911 196.177 59.8703 195.933 59.9985C195.68 60.128 195.4 60.1947 195.116 60.1929C194.801 60.2098 194.487 60.1496 194.201 60.0177C193.915 59.8858 193.666 59.6862 193.476 59.4364C193.096 58.9347 192.905 58.1808 192.9 57.1801C192.898 56.8665 192.945 56.5546 193.04 56.2555C193.128 55.9793 193.264 55.7206 193.442 55.4911C193.61 55.273 193.824 55.0937 194.069 54.9658C194.322 54.8382 194.602 54.7725 194.886 54.774V54.774ZM194.814 61.1805C195.496 61.1966 196.169 61.0296 196.763 60.6972C197.311 60.3731 197.747 59.8925 198.016 59.3182C198.326 58.641 198.478 57.9028 198.461 57.1591C198.466 56.6927 198.391 56.2289 198.238 55.7879C198.1 55.3972 197.881 55.0394 197.596 54.7373C197.308 54.4351 196.957 54.2001 196.567 54.0491C196.127 53.8818 195.659 53.7989 195.187 53.8048C194.506 53.789 193.833 53.955 193.238 54.2855C192.691 54.6054 192.254 55.0825 191.985 55.654C191.675 56.3302 191.523 57.0675 191.541 57.8105C191.536 58.2776 191.611 58.7421 191.763 59.1842C191.901 59.58 192.119 59.9431 192.405 60.2507C192.696 60.5539 193.051 60.789 193.445 60.9389C193.885 61.1069 194.353 61.1907 194.825 61.1858L194.814 61.1805Z" fill="#CE1531"/>
</g>
<defs>
<clipPath id="clip0_5195_425">
<rect width="263.963" height="65" fill="white"/>
</clipPath>
</defs>
</svg>
