<svg width="423" height="423" viewBox="0 0 423 423" fill="none" xmlns="http://www.w3.org/2000/svg">
<rect width="423" height="423" rx="211.5" fill="white"/>
<g clip-path="url(#clip0_278_1335)">
<path d="M211.497 57.0001C247.241 56.9969 281.88 69.3874 309.512 92.0607C337.144 114.734 356.06 146.287 363.036 181.343C370.013 216.4 364.618 252.791 347.771 284.315C330.924 315.84 303.667 340.548 270.645 354.229C237.623 367.91 200.879 369.718 166.674 359.345C132.468 348.971 102.918 327.058 83.0574 297.34C63.1971 267.621 54.2557 231.936 57.7568 196.364C61.2579 160.792 76.9849 127.535 102.258 102.258C116.587 87.8902 133.614 76.4953 152.361 68.7285C171.108 60.9616 191.205 56.9758 211.497 57.0001V57.0001ZM318.957 104.037C294.095 79.1749 261.381 63.7032 226.39 60.2575C191.399 56.8118 156.296 65.6053 127.062 85.1398C97.8277 104.674 76.2712 133.741 66.0654 167.387C55.8596 201.034 57.6359 237.178 71.0917 269.661C84.5476 302.145 108.85 328.958 139.859 345.531C170.868 362.105 206.664 367.414 241.149 360.554C275.633 353.694 306.672 335.089 328.977 307.909C351.281 280.73 363.472 246.657 363.471 211.497C363.496 191.535 359.575 171.766 351.935 153.324C344.295 134.882 333.085 118.132 318.951 104.037H318.957Z" fill="#CE1531"/>
<path d="M211.497 98.1909C237.717 98.1737 263.131 107.249 283.41 123.87C303.688 140.491 317.576 163.63 322.706 189.343C327.836 215.056 323.891 241.752 311.544 264.883C299.197 288.013 279.21 306.147 254.992 316.193C230.773 326.239 203.819 327.576 178.725 319.977C153.631 312.377 131.948 296.311 117.372 274.516C102.796 252.721 96.2278 226.546 98.7877 200.452C101.348 174.357 112.877 149.958 131.411 131.411C141.914 120.872 154.396 112.512 168.139 106.811C181.883 101.11 196.618 98.1808 211.497 98.1909V98.1909ZM289.836 133.164C271.713 115.044 247.869 103.769 222.365 101.259C196.861 98.749 171.276 105.16 149.969 119.399C128.661 133.638 112.95 154.824 105.513 179.348C98.0747 203.872 99.3702 230.216 109.178 253.892C118.986 277.568 136.7 297.111 159.302 309.191C181.903 321.27 207.994 325.14 233.129 320.14C258.263 315.139 280.886 301.579 297.144 281.769C313.401 261.959 322.287 237.124 322.287 211.497C322.305 196.945 319.448 182.533 313.879 169.089C308.31 155.645 300.139 143.434 289.836 133.158V133.164Z" fill="#CE1531"/>
<path d="M89.6527 220.792L89.5959 217.639H89.3563L88.7257 217.702L87.8239 217.765C87.4897 217.765 87.1492 217.803 86.7898 217.809L70.6086 218.093L70.4131 207.713L89.4194 207.379L89.3626 204.226H89.123L88.4924 204.289L87.5906 204.352C87.2564 204.352 86.9159 204.39 86.5564 204.396L68.124 204.718L68.4141 221.296L68.679 221.259L69.3915 221.183C69.69 221.153 70.0242 221.128 70.3942 221.107C70.7662 221.107 71.1446 221.063 71.5356 221.057L89.659 220.741L89.6527 220.792ZM89.9869 197.46L92.4336 184.879L90.0752 184.249C90.0752 184.249 90.0752 184.457 90.0373 184.879C89.9995 185.302 89.9238 185.876 89.7977 186.645L88.4356 194.118L81.1018 192.692L82.9305 184.57L80.4081 183.94L78.9388 192.282L71.7563 190.889L73.1625 184.141C73.2445 183.782 73.3202 183.429 73.4084 183.095C73.4967 182.76 73.5724 182.464 73.6481 182.18C73.7237 181.896 73.7868 181.688 73.8309 181.55L73.9066 181.304L71.5797 180.673L69.0573 193.582H69.3285L70.0284 193.657C70.3185 193.657 70.659 193.733 71.0122 193.79C71.3653 193.846 71.75 193.903 72.1409 193.979L89.9932 197.447L89.9869 197.46ZM93.575 179.059L94.5903 176.101L94.3506 176.045L93.72 175.881L92.8498 175.635C92.5282 175.54 92.2192 175.439 91.8661 175.326L87.4519 173.806L88.4609 170.88C88.8195 169.868 88.9925 168.8 88.9716 167.727C88.957 166.772 88.7534 165.829 88.3726 164.952C88.0089 164.116 87.4743 163.364 86.8032 162.746C86.1321 162.128 85.3392 161.658 84.4755 161.364C83.268 160.912 81.9614 160.792 80.6919 161.017C79.4968 161.268 78.4086 161.883 77.5767 162.777C76.5607 163.9 75.7992 165.229 75.3444 166.674L73.3958 172.311L73.6607 172.368L74.3417 172.538C74.6255 172.608 74.9723 172.702 75.3002 172.803C75.6282 172.904 76.0191 173.018 76.3849 173.144L93.575 179.059ZM77.2614 167.796C77.5255 167.001 77.9243 166.256 78.4406 165.596C78.847 165.067 79.3662 164.636 79.9604 164.334C80.5018 164.074 81.0936 163.934 81.6945 163.924C82.3134 163.919 82.9283 164.024 83.5106 164.233C84.2984 164.49 85.0109 164.936 85.5853 165.532C86.1188 166.092 86.4762 166.796 86.6132 167.557C86.754 168.422 86.6671 169.308 86.361 170.13L85.352 173.055L76.5236 170.01L77.2929 167.771L77.2614 167.796ZM100.423 149.358L95.0948 138.845C94.9434 138.536 94.7858 138.215 94.6218 137.956C94.4579 137.698 94.3065 137.42 94.1615 137.193C94.0164 136.966 93.9029 136.783 93.8146 136.651L93.6759 136.449L93.7642 136.361L94.0227 136.556C94.1993 136.683 94.4452 136.853 94.7732 137.074C95.1011 137.294 95.492 137.528 95.9461 137.799L108.779 145.208L110.311 142.553L110.09 142.453L109.504 142.175L108.709 141.759C108.413 141.608 108.079 141.444 107.801 141.267L91.6832 131.959L90.3463 134.564L95.7064 145.196C95.8263 145.435 95.9587 145.675 96.0974 145.915C96.2361 146.154 96.3686 146.387 96.4884 146.596L96.7974 147.094L96.9172 147.289L96.873 147.371H95.656C95.2965 147.371 94.9119 147.371 94.4957 147.409L82.3125 148.159L81.0513 150.6L81.3477 150.732L82.0918 151.092C82.4008 151.243 82.7224 151.407 83.0881 151.596C83.4539 151.785 83.7944 151.968 84.1349 152.17L99.572 161.08L100.921 158.741L100.701 158.64L100.152 158.381L99.4207 158.016C99.1558 157.883 98.9099 157.751 98.6639 157.612L88.5744 151.798C88.1392 151.546 87.7357 151.325 87.3699 151.167L86.4871 150.726L86.1402 150.562V150.467H86.5186C86.7582 150.467 87.0861 150.467 87.4771 150.467C87.8681 150.467 88.2906 150.467 88.7383 150.417L100.209 149.698L100.423 149.332V149.358ZM105.323 118.49C105.736 118.021 106.176 117.577 106.641 117.159C107.099 116.739 107.545 116.36 107.978 116.024C108.407 115.665 108.804 115.33 109.151 115.015L107.637 113.123C107.246 113.47 106.843 113.811 106.42 114.158C105.998 114.504 105.569 114.864 105.159 115.255C104.713 115.662 104.292 116.096 103.898 116.554C102.929 117.629 102.206 118.903 101.779 120.287C101.409 121.535 101.344 122.855 101.59 124.134C101.864 125.486 102.399 126.771 103.166 127.917C104.045 129.25 105.107 130.454 106.319 131.493C107.377 132.428 108.589 133.173 109.901 133.693C111.095 134.159 112.373 134.374 113.653 134.324C114.925 134.276 116.171 133.951 117.304 133.372C118.557 132.723 119.671 131.837 120.584 130.761C121.075 130.2 121.53 129.608 121.946 128.989C122.241 128.55 122.507 128.09 122.74 127.615C122.883 127.324 123.01 127.025 123.119 126.719C123.156 126.616 123.187 126.51 123.213 126.404L121.271 125.401C121.271 125.401 121.202 125.565 121.057 125.88C120.831 126.315 120.58 126.736 120.306 127.142C119.88 127.792 119.408 128.412 118.894 128.996C118.289 129.727 117.548 130.333 116.712 130.78C115.989 131.151 115.196 131.366 114.385 131.411C113.585 131.45 112.784 131.347 112.02 131.108C111.207 130.858 110.427 130.509 109.699 130.068C108.93 129.601 108.202 129.07 107.524 128.478C106.697 127.765 105.971 126.942 105.367 126.032C104.832 125.223 104.437 124.33 104.201 123.39C103.989 122.538 103.972 121.65 104.15 120.791C104.333 119.932 104.735 119.135 105.317 118.477L105.323 118.49ZM127.072 123.219L129.469 121.208L129.292 121.037L128.838 120.571C128.649 120.375 128.447 120.161 128.208 119.94C127.968 119.719 127.753 119.436 127.526 119.164L123.056 113.836L124.5 112.625L136.538 115.488L139.205 113.048H138.94L138.272 112.966L137.37 112.827C137.049 112.777 136.74 112.707 136.418 112.638L125.54 110.071C125.519 108.591 125.49 107.29 125.452 106.168C125.42 105.039 125.37 104.055 125.319 103.204C125.269 102.353 125.206 101.609 125.143 100.946C125.08 100.284 124.998 99.6853 124.916 99.143C124.834 98.6006 124.746 98.0583 124.651 97.5349L122.28 99.5276C122.368 99.988 122.456 100.448 122.532 100.909C122.608 101.369 122.683 101.873 122.747 102.428C122.81 102.983 122.873 103.639 122.929 104.39C122.986 105.14 123.037 106.035 123.093 107.082C123.15 108.129 123.201 109.371 123.257 110.803L121.63 112.171L115.57 104.881L113.25 107.025L113.445 107.208L113.95 107.713C114.16 107.927 114.391 108.171 114.643 108.444C114.896 108.715 115.154 108.999 115.4 109.302L127.072 123.213V123.219ZM142.339 110.355L144.811 108.987L146.217 91.0524C146.245 90.5272 146.245 90.001 146.217 89.4759C146.217 89.0155 146.161 88.6498 146.123 88.3849C146.085 88.1201 146.066 87.9814 146.066 87.975L146.186 87.9435L146.318 88.303C146.413 88.5363 146.545 88.8453 146.716 89.2299C146.886 89.6146 147.1 90.0308 147.346 90.4911L154.592 103.557L157.329 102.044L157.19 101.842L156.83 101.3C156.685 101.073 156.528 100.82 156.351 100.537C156.175 100.253 155.998 99.9564 155.828 99.6474L146.817 83.3591L144.42 84.8599L143.039 102.517C143.039 102.92 143.039 103.324 143.039 103.715C143.039 104.106 143.039 104.459 143.077 104.774C143.115 105.09 143.115 105.348 143.128 105.537C143.14 105.726 143.128 105.827 143.128 105.827L142.982 105.871C142.982 105.871 142.926 105.72 142.812 105.436C142.699 105.153 142.541 104.806 142.333 104.326C142.125 103.847 141.866 103.374 141.576 102.832L134.564 90.1632L131.878 91.828L132.035 92.0487L132.433 92.6415C132.601 92.8895 132.779 93.1712 132.969 93.4865C133.164 93.8018 133.36 94.1171 133.549 94.4702L142.377 110.355H142.339ZM164.536 73.301C165.147 73.1021 165.735 72.8378 166.289 72.5128C166.762 72.2222 167.204 71.8841 167.607 71.5038C167.958 71.1862 168.276 70.8356 168.56 70.457C168.797 70.1565 169.008 69.8357 169.19 69.4985L167.027 68.1553C166.769 68.6156 166.491 69.0508 166.207 69.467C165.927 69.871 165.594 70.2357 165.217 70.5516C164.824 70.8773 164.373 71.1255 163.887 71.2831C163.393 71.4465 162.873 71.5149 162.354 71.4849C161.87 71.4495 161.392 71.3477 160.936 71.1822C160.469 71.0182 159.996 70.8227 159.51 70.602L158.527 72.9731C158.863 73.138 159.21 73.2771 159.567 73.3893C160.006 73.5334 160.458 73.6327 160.917 73.6857C161.466 73.7451 162.02 73.7451 162.569 73.6857C163.227 73.6186 163.876 73.4811 164.505 73.2758L164.536 73.301ZM163.508 98.7583L166.195 97.8881L171.006 80.5529C171.15 80.0462 171.258 79.5299 171.328 79.0079C171.391 78.5476 171.429 78.1881 171.441 77.9107C171.454 77.6332 171.441 77.5008 171.441 77.4945H171.568C171.568 77.4945 171.568 77.6269 171.631 77.8728C171.694 78.1188 171.75 78.4467 171.845 78.8566C171.94 79.2665 172.072 79.7205 172.23 80.2187L176.846 94.4261L179.822 93.4613L179.721 93.2405L179.475 92.61C179.374 92.364 179.267 92.0802 179.147 91.7713C179.028 91.4623 178.914 91.1407 178.807 90.8001L173.031 73.1118L170.388 74.1271L165.659 91.21C165.552 91.601 165.463 91.9857 165.394 92.3703C165.325 92.755 165.274 93.1081 165.23 93.4234C165.186 93.7387 165.161 93.9973 165.142 94.1864C165.123 94.3756 165.142 94.4765 165.142 94.4828H164.99C164.99 94.4828 164.99 94.3189 164.908 94.0288C164.826 93.7387 164.77 93.3351 164.65 92.8433C164.53 92.3514 164.379 91.8217 164.19 91.2289L159.706 77.4251L156.761 78.5665L156.875 78.8124L157.152 79.443C157.27 79.7205 157.392 80.0316 157.518 80.3763C157.65 80.7232 157.783 81.0826 157.902 81.4546L163.515 98.7268L163.508 98.7583ZM203.539 89.7218C203.539 89.7218 203.539 89.6335 203.608 89.4506C203.678 89.2678 203.747 88.9399 203.892 88.4858C204.037 88.0318 204.239 87.4075 204.523 86.594C204.806 85.7806 205.153 84.8031 205.569 83.5987L208.722 74.8838C209.256 73.4208 209.666 72.1596 209.952 71.1002C210.242 70.0534 210.438 69.2589 210.545 68.7039C210.652 68.149 210.703 67.8715 210.696 67.8652L207.972 68.0544C207.972 68.0544 207.972 68.2625 207.877 68.685C207.783 69.1075 207.695 69.6561 207.518 70.3939C207.341 71.1317 207.108 71.9957 206.793 72.9983L204.989 78.5413C204.788 79.1719 204.617 79.7142 204.472 80.2187C204.327 80.7232 204.226 81.1393 204.151 81.4799C204.075 81.8204 204.037 81.9465 204.037 81.9528H203.93C203.93 81.9528 203.861 81.7889 203.728 81.4925C203.596 81.1961 203.413 80.7925 203.179 80.2943C202.946 79.7962 202.656 79.2349 202.328 78.6233L196.993 68.7796L193.79 69.0949L193.96 69.3534C194.067 69.5174 194.212 69.7444 194.389 70.0282C194.565 70.312 194.767 70.6588 194.975 70.993C195.183 71.3272 195.404 71.7182 195.606 72.1029L202.543 84.7148C202.253 85.3896 201.994 86.0265 201.761 86.6066C201.527 87.1868 201.313 87.7669 201.13 88.303C200.947 88.839 200.752 89.3813 200.575 89.9047L203.577 89.6966L203.539 89.7218ZM230.024 90.8443L233.127 91.2226C233.127 91.2226 233.127 91.1343 233.127 90.9767C233.127 90.819 233.127 90.5983 233.127 90.3461C233.127 90.0939 233.158 89.7786 233.183 89.4443C233.209 89.1101 233.24 88.7696 233.284 88.4165L235.554 69.9399L232.401 69.7066C232.401 69.7066 232.401 69.8012 232.401 69.9777V70.6903C232.401 70.993 232.37 71.3209 232.345 71.693C232.319 72.065 232.275 72.4434 232.231 72.8344L231.493 78.8314L220.824 77.5197L221.959 68.2688L218.806 68.0355C218.806 68.0355 218.806 68.1301 218.806 68.3067C218.806 68.4832 218.806 68.7228 218.806 69.0192C218.806 69.3156 218.774 69.6498 218.743 70.0219C218.711 70.3939 218.68 70.7723 218.635 71.1633L216.428 89.1606L219.531 89.5389C219.531 89.5389 219.531 89.4506 219.531 89.293C219.531 89.1353 219.531 88.9209 219.531 88.6624C219.531 88.4039 219.562 88.0949 219.588 87.7606C219.613 87.4264 219.644 87.0859 219.689 86.7328L220.546 79.7394L231.216 81.0511L230.011 90.8443H230.024ZM239.943 92.4901L242.63 93.3604L256.711 82.1609C257.116 81.824 257.504 81.4662 257.871 81.0889C258.193 80.7547 258.433 80.4583 258.603 80.2754C258.773 80.0926 258.861 79.9601 258.861 79.9538L258.969 80.0232L258.798 80.3637C258.691 80.5907 258.559 80.8997 258.395 81.2844C258.231 81.6691 258.073 82.1168 257.903 82.6086L253.287 96.816L256.27 97.7935L256.32 97.5538C256.358 97.3962 256.408 97.1881 256.471 96.9232C256.534 96.6584 256.61 96.3746 256.705 96.053C256.799 95.7314 256.888 95.4224 257.001 95.063L262.752 77.3621L260.053 76.6306L246.18 87.6724C245.871 87.9309 245.549 88.2021 245.291 88.4732C245.032 88.7444 244.761 88.9903 244.54 89.2236L244.017 89.7849L243.822 90.0056L243.689 89.9299C243.689 89.9299 243.765 89.7849 243.891 89.5074C244.017 89.2299 244.187 88.8768 244.377 88.3975C244.566 87.9183 244.755 87.4075 244.95 86.821L249.434 73.0172L246.382 72.1848L246.325 72.4497L246.18 73.1497C246.113 73.4397 246.029 73.7634 245.928 74.1208C245.833 74.4802 245.726 74.846 245.606 75.218L239.994 92.4901H239.943ZM262.544 100.511L268.093 103.336C269.021 103.823 270.012 104.175 271.038 104.383C271.917 104.558 272.821 104.558 273.699 104.383C274.518 104.217 275.285 103.858 275.938 103.336C276.65 102.751 277.229 102.02 277.634 101.192C277.964 100.548 278.153 99.8407 278.189 99.1177C278.223 98.3853 278.092 97.6547 277.805 96.98C277.487 96.2375 277.006 95.5759 276.398 95.0441V94.9873C277.683 95.0261 278.936 94.5881 279.917 93.7576C280.442 93.3099 280.871 92.7608 281.178 92.1433C281.64 91.2872 281.858 90.3211 281.809 89.3498C281.728 88.3685 281.344 87.4366 280.712 86.6823C279.878 85.7266 278.856 84.9537 277.71 84.4122L272.035 81.5177L271.94 81.7699L271.675 82.4005C271.562 82.6717 271.429 82.9807 271.278 83.3149C271.127 83.6491 270.963 83.996 270.786 84.3428L262.544 100.511ZM272.899 94.5081C273.607 94.851 274.227 95.354 274.708 95.9774C275.118 96.5269 275.357 97.1848 275.396 97.8691C275.426 98.5865 275.263 99.2988 274.923 99.9312C274.594 100.622 274.081 101.209 273.441 101.628C272.858 101.993 272.18 102.177 271.492 102.157C270.723 102.126 269.97 101.922 269.292 101.558L266.139 99.9438L269.72 92.9063L272.911 94.5333L272.899 94.5081ZM276.449 86.1778C277.431 86.5868 278.233 87.337 278.706 88.2903C278.87 88.7456 278.929 89.2318 278.88 89.713C278.831 90.1943 278.675 90.6585 278.423 91.0713C278.229 91.4559 277.976 91.8071 277.672 92.1118C277.419 92.3605 277.133 92.5727 276.821 92.7424C276.569 92.8839 276.303 92.9981 276.026 93.0829C275.833 93.1446 275.634 93.191 275.434 93.2216H275.2L270.71 90.9326L273.826 84.8157L276.449 86.1778ZM279.293 110.323L289.792 117.676L291.312 115.784L290.757 115.494C290.398 115.299 289.887 114.984 289.237 114.555L282.969 110.273L287.251 104.156L293.929 109.125L295.55 107.076L288.525 102.34L292.725 96.3431L298.318 100.373C298.614 100.593 298.904 100.808 299.176 101.003L299.913 101.596L300.431 102.025L300.626 102.189L302.127 100.297L291.356 92.7298L291.23 92.9694L290.877 93.6C290.732 93.8522 290.555 94.1423 290.36 94.445C290.164 94.7477 289.956 95.0756 289.729 95.3972L279.274 110.323H279.293ZM294.194 121.409L296.369 123.661L296.527 123.471L296.956 122.986C297.132 122.784 297.341 122.563 297.587 122.355C297.832 122.147 298.059 121.863 298.312 121.618L301.673 118.37L303.823 120.596C304.558 121.376 305.427 122.016 306.39 122.488C307.247 122.908 308.18 123.155 309.133 123.213C310.043 123.268 310.955 123.132 311.809 122.813C312.664 122.495 313.443 122.002 314.096 121.365C315.042 120.497 315.739 119.391 316.114 118.162C316.433 116.983 316.381 115.734 315.962 114.586C315.426 113.162 314.587 111.871 313.503 110.803L309.366 106.521L309.196 106.729L308.735 107.259C308.54 107.479 308.313 107.725 308.067 107.99C307.821 108.255 307.55 108.533 307.266 108.804L294.207 121.416L294.194 121.409ZM311.624 112.007C312.201 112.598 312.675 113.282 313.024 114.031C313.299 114.624 313.441 115.27 313.44 115.923C313.427 116.525 313.282 117.117 313.017 117.657C312.741 118.21 312.37 118.71 311.92 119.133C311.334 119.719 310.613 120.153 309.82 120.394C309.08 120.616 308.29 120.616 307.55 120.394C306.714 120.127 305.962 119.647 305.368 119.001L303.218 116.775L309.946 110.279L311.592 111.982L311.624 112.007ZM327.237 130.459C327.595 130.967 327.924 131.495 328.221 132.041C328.511 132.579 328.78 133.099 329.028 133.599C329.28 134.097 329.52 134.557 329.747 134.967L331.942 133.933C331.689 133.479 331.45 133.006 331.204 132.514C330.958 132.022 330.706 131.524 330.428 131.013C330.124 130.474 329.787 129.954 329.419 129.456C328.591 128.272 327.515 127.282 326.266 126.555C325.132 125.914 323.86 125.555 322.558 125.508C321.173 125.467 319.793 125.698 318.497 126.189C316.997 126.752 315.583 127.522 314.297 128.478C313.148 129.298 312.149 130.312 311.346 131.474C310.618 132.531 310.116 133.727 309.871 134.986C309.63 136.24 309.667 137.532 309.978 138.77C310.327 140.136 310.939 141.422 311.781 142.553C312.219 143.159 312.695 143.736 313.206 144.281C313.568 144.669 313.956 145.031 314.367 145.366C314.618 145.57 314.882 145.76 315.155 145.933L315.439 146.097L316.858 144.433L316.441 144.117C316.063 143.798 315.703 143.457 315.363 143.096C314.826 142.534 314.328 141.936 313.875 141.305C313.312 140.55 312.901 139.694 312.664 138.782C312.468 137.999 312.438 137.182 312.576 136.386C312.718 135.599 312.998 134.844 313.402 134.154C313.827 133.417 314.342 132.735 314.934 132.123C315.563 131.477 316.247 130.886 316.977 130.358C317.859 129.712 318.824 129.19 319.847 128.806C320.755 128.467 321.715 128.283 322.684 128.264C323.555 128.253 324.416 128.436 325.207 128.8C326.003 129.172 326.689 129.743 327.199 130.459H327.237ZM317.438 151.067L318.762 153.589L336.671 155.317C337.196 155.357 337.722 155.369 338.248 155.355C338.708 155.355 339.074 155.31 339.339 155.279C339.603 155.247 339.742 155.228 339.748 155.228V155.348L339.389 155.474C339.156 155.563 338.847 155.689 338.456 155.853C338.065 156.017 337.648 156.225 337.194 156.483L324.002 163.496L325.472 166.258L325.673 166.119L326.222 165.772L326.991 165.305C327.281 165.135 327.578 164.965 327.893 164.801L344.339 156.004L342.876 153.583L325.219 151.893C324.816 151.893 324.412 151.855 324.021 151.855C323.63 151.855 323.277 151.855 322.962 151.855L322.199 151.893H321.909L321.865 151.741L322.3 151.577C322.583 151.47 322.93 151.319 323.422 151.117C323.914 150.915 324.381 150.669 324.929 150.385L337.743 143.569L336.129 140.851L335.908 141.002L335.277 141.393C335.025 141.557 334.739 141.732 334.42 141.917C334.104 142.106 333.789 142.295 333.423 142.478L317.438 151.067ZM328.631 177.016L329.495 180.024L329.722 179.935L330.352 179.708L331.204 179.412C331.519 179.305 331.834 179.198 332.187 179.103L347.833 174.619L348.879 178.712C348.98 179.109 349.075 179.494 349.144 179.853C349.214 180.213 349.277 180.484 349.315 180.743C349.352 181.001 349.378 181.096 349.378 181.102L351.774 180.541L347.24 164.719L344.881 165.299C344.881 165.299 344.926 165.4 345.001 165.583C345.077 165.766 345.172 166.037 345.298 166.371C345.424 166.705 345.55 167.103 345.695 167.563L347.026 171.763L328.669 177.028L328.631 177.016ZM331.828 190.574L333.613 203.261L336.04 203.072C336.04 203.072 335.984 202.87 335.876 202.441C335.769 202.013 335.656 201.458 335.53 200.688L334.369 193.209L341.766 192.169L342.662 200.455L345.266 200.241L343.936 191.873L351.181 190.857L352.051 197.693C352.096 198.059 352.133 198.418 352.159 198.759C352.184 199.099 352.209 199.421 352.228 199.705C352.247 199.988 352.228 200.209 352.266 200.379C352.304 200.55 352.266 200.632 352.266 200.632L354.662 200.449L352.833 187.427L352.575 187.496L351.894 187.654C351.604 187.717 351.263 187.786 350.923 187.849C350.582 187.912 350.185 187.982 349.794 188.039L331.784 190.561L331.828 190.574ZM333.493 213.439L333.436 216.592H333.682L334.313 216.554L335.214 216.516C335.549 216.516 335.895 216.516 336.249 216.516L352.524 216.8L352.329 221.019C352.329 221.429 352.285 221.826 352.247 222.185C352.209 222.545 352.177 222.854 352.152 223.087C352.127 223.321 352.108 223.44 352.108 223.447L354.567 223.611L354.858 207.158L352.43 207.026C352.43 207.026 352.43 207.133 352.43 207.329C352.43 207.524 352.461 207.808 352.48 208.167C352.499 208.527 352.48 208.943 352.48 209.428L352.524 213.843L333.43 213.508L333.493 213.439Z" fill="#CE1531"/>
<path d="M79.7012 268.125L80.9624 270.982L81.1768 270.862L81.7506 270.553L82.5515 270.143C82.8479 269.992 83.1821 269.846 83.4848 269.701L87.7539 267.81L89.0151 270.641C89.4427 271.621 90.0429 272.516 90.7871 273.283C91.4484 273.971 92.2392 274.522 93.114 274.904C93.9508 275.267 94.8543 275.451 95.7665 275.445C96.6787 275.438 97.5795 275.241 98.4111 274.866C99.5988 274.374 100.633 273.572 101.406 272.545C102.11 271.547 102.486 270.355 102.485 269.134C102.461 267.62 102.11 266.13 101.457 264.764L99.0354 259.328L98.802 259.467L98.1714 259.807C97.9129 259.952 97.6165 260.104 97.2886 260.268C96.9607 260.432 96.6138 260.602 96.2607 260.76L79.7012 268.125ZM99.2939 265.249C99.6387 266.007 99.852 266.817 99.9245 267.646C99.9817 268.307 99.8912 268.972 99.6596 269.594C99.4409 270.154 99.1031 270.66 98.6696 271.076C98.2201 271.5 97.6992 271.842 97.1309 272.085C96.3805 272.435 95.5554 272.596 94.7284 272.552C93.9567 272.505 93.2157 272.233 92.5969 271.77C91.9139 271.231 91.3817 270.525 91.052 269.72L89.7908 266.889L98.3354 263.105L99.3002 265.268L99.2939 265.249ZM90.6736 289.061L98.0264 299.56L100.101 298.299L99.6786 297.839C99.4074 297.53 99.048 297.063 98.575 296.439L94.1608 290.272L100.278 285.99L104.849 292.926L107.069 291.583L102.087 284.729L108.078 280.529L111.956 286.204C112.158 286.513 112.36 286.835 112.536 287.106L113.028 287.913C113.173 288.159 113.287 288.348 113.369 288.493L113.495 288.714L115.544 287.453L107.977 276.682L107.775 276.859L107.239 277.306C107.012 277.496 106.754 277.704 106.464 277.937C106.174 278.17 105.865 278.391 105.543 278.618L90.6736 289.061ZM105.039 307.613L107.17 309.902L107.328 309.719L107.769 309.24C107.952 309.045 108.16 308.83 108.4 308.609C108.639 308.389 108.879 308.13 109.138 307.884L113.243 304.056L115.935 306.945L112.965 316.359L115.418 318.768C115.418 318.768 115.418 318.623 115.488 318.365C115.557 318.106 115.601 317.766 115.696 317.356C115.79 316.946 115.898 316.505 116.03 316.044L118.338 308.326C119.03 308.743 119.797 309.021 120.596 309.145C121.404 309.263 122.228 309.192 123.004 308.937C123.889 308.639 124.697 308.148 125.369 307.5C126.234 306.726 126.856 305.718 127.16 304.599C127.433 303.451 127.356 302.247 126.939 301.143C126.4 299.729 125.576 298.441 124.518 297.36L120.457 293.008L120.28 293.216L119.814 293.74C119.618 293.961 119.385 294.2 119.126 294.459C118.868 294.717 118.597 294.995 118.313 295.26L105.045 307.632L105.039 307.613ZM122.632 298.52C123.378 299.27 123.962 300.165 124.348 301.149C124.628 301.879 124.666 302.68 124.455 303.432C124.195 304.164 123.762 304.821 123.193 305.349C122.625 305.877 121.937 306.26 121.188 306.465C120.47 306.635 119.717 306.587 119.025 306.327C118.215 306.014 117.489 305.515 116.907 304.87L114.794 302.606L121.012 296.805L122.626 298.539L122.632 298.52ZM134.727 326.676L145.504 321.902C145.82 321.77 146.135 321.625 146.419 321.48C146.702 321.335 146.974 321.196 147.207 321.057L147.762 320.736L147.97 320.61L148.058 320.704L147.85 320.957C147.718 321.127 147.528 321.366 147.295 321.675C147.062 321.984 146.803 322.369 146.507 322.811L138.435 335.24L141.008 336.911L141.122 336.696L141.431 336.122C141.563 335.889 141.708 335.631 141.878 335.341C142.049 335.05 142.225 334.76 142.421 334.464L152.561 318.85L150.038 317.387L139.135 322.186C138.889 322.293 138.643 322.413 138.391 322.539L137.691 322.893L137.174 323.176L136.972 323.283L136.897 323.233C136.897 323.233 136.897 323.113 136.897 322.893C136.897 322.672 136.897 322.388 136.941 322.029C136.985 321.669 136.941 321.284 136.941 320.868L136.827 308.666L134.494 307.348L134.343 307.638L133.945 308.363C133.781 308.666 133.592 308.994 133.384 309.335C133.176 309.675 132.974 310.022 132.753 310.35L123.049 325.301L125.312 326.771L125.426 326.556L125.716 326.02C125.836 325.8 125.968 325.566 126.12 325.308C126.271 325.049 126.41 324.81 126.567 324.576L132.873 314.821C133.144 314.398 133.39 314.007 133.592 313.654C133.794 313.301 133.958 313.024 134.078 312.797L134.261 312.462H134.355C134.355 312.462 134.355 312.595 134.317 312.841C134.28 313.087 134.267 313.402 134.242 313.793C134.216 314.184 134.242 314.606 134.242 315.054L134.362 326.468L134.721 326.701L134.727 326.676ZM184.381 330.788L181.593 330.157L181.549 330.422L181.411 331.122C181.354 331.418 181.278 331.752 181.196 332.106C181.114 332.459 181.013 332.837 180.906 333.209L177.999 343.337C177.791 344.093 177.466 344.813 177.034 345.468C176.645 346.055 176.141 346.557 175.552 346.944C174.965 347.32 174.298 347.556 173.604 347.631C172.808 347.71 172.004 347.631 171.239 347.398C170.43 347.18 169.67 346.81 169 346.307C168.435 345.876 167.979 345.319 167.67 344.68C167.372 344.041 167.211 343.347 167.197 342.643C167.182 341.86 167.289 341.079 167.512 340.329L171.296 327.048L168.218 326.323L168.174 326.588L168.036 327.288C167.977 327.582 167.903 327.908 167.815 328.265C167.733 328.625 167.638 328.997 167.531 329.375L164.637 339.465C164.307 340.551 164.169 341.686 164.227 342.819C164.279 343.824 164.55 344.806 165.021 345.695C165.501 346.586 166.176 347.358 166.995 347.953C167.948 348.636 169.016 349.143 170.148 349.447C171.373 349.819 172.655 349.966 173.932 349.882C174.969 349.814 175.979 349.514 176.885 349.003C177.791 348.492 178.57 347.784 179.166 346.931C179.777 346.054 180.236 345.079 180.521 344.049L184.305 330.769L184.381 330.788ZM203.791 355.122L206.313 355.034L208.205 333.676L205.436 333.587C205.436 333.587 205.436 333.682 205.436 333.859C205.436 334.035 205.436 334.275 205.436 334.578C205.436 334.88 205.436 335.208 205.436 335.58C205.436 335.952 205.399 336.331 205.361 336.722L204.364 348.123C204.364 348.432 204.327 348.753 204.32 349.069C204.314 349.384 204.32 349.699 204.32 349.977C204.32 350.254 204.32 350.481 204.32 350.652C204.32 350.822 204.32 350.916 204.32 350.923H204.226L204.131 350.677C204.062 350.513 203.98 350.305 203.872 350.046C203.765 349.788 203.639 349.516 203.5 349.233C203.362 348.949 203.223 348.671 203.078 348.407L194.205 332.421L191.532 332.339C191.532 332.339 191.532 332.433 191.532 332.61C191.532 332.787 191.532 333.026 191.532 333.329C191.532 333.632 191.532 333.96 191.532 334.332C191.532 334.704 191.494 335.088 191.462 335.473L189.879 353.565L192.604 353.805C192.604 353.805 192.604 353.716 192.604 353.559C192.604 353.401 192.604 353.18 192.604 352.928C192.604 352.676 192.604 352.36 192.604 352.026C192.604 351.692 192.635 351.351 192.667 350.998L193.688 339.32C193.688 339.112 193.688 338.866 193.688 338.576C193.688 338.285 193.688 337.989 193.688 337.699C193.688 337.409 193.688 337.169 193.688 336.974C193.688 336.778 193.688 336.671 193.688 336.671H193.777L193.896 336.955C193.972 337.131 194.067 337.358 194.186 337.623C194.306 337.888 194.426 338.166 194.559 338.43C194.691 338.695 194.798 338.929 194.899 339.112L203.803 355.104L203.791 355.122ZM218.477 354.877L221.592 354.605C221.592 354.605 221.592 354.523 221.548 354.366C221.504 354.208 221.485 353.994 221.441 353.735C221.397 353.477 221.359 353.174 221.315 352.84C221.271 352.505 221.233 352.165 221.201 351.812L219.581 333.266L216.428 333.695L216.478 333.96L216.598 334.666C216.648 334.96 216.697 335.292 216.743 335.662C216.793 336.028 216.838 336.413 216.875 336.797L218.458 354.889L218.477 354.877ZM239.577 346.256C239.52 346.704 239.476 347.126 239.451 347.517C239.426 347.908 239.4 348.274 239.394 348.583C239.388 348.892 239.394 349.138 239.394 349.315C239.394 349.491 239.394 349.579 239.394 349.586H239.274L239.085 349.151C238.959 348.873 238.782 348.52 238.549 348.047C238.316 347.574 238.045 347.089 237.723 346.54L229.361 332.667L226.328 333.442C226.328 333.442 226.423 333.575 226.612 333.827C226.801 334.079 227.053 334.458 227.375 334.924C227.697 335.391 228.062 335.984 228.478 336.671L238.297 352.796L240.914 352.102L243.506 335.511C243.613 334.805 243.707 334.136 243.789 333.512C243.871 332.888 243.916 332.251 243.947 331.689C243.979 331.128 243.947 330.498 243.947 329.892L241.355 330.397C241.355 330.882 241.355 331.374 241.355 331.866C241.355 332.358 241.317 332.881 241.267 333.417C241.217 333.953 241.154 334.546 241.065 335.177L239.596 346.225L239.577 346.256ZM257.309 347.908L269.19 343.11L268.433 340.77L267.891 341.079C267.525 341.274 266.989 341.527 266.277 341.842L259.271 344.768L256.471 337.831L264.278 334.937L263.439 332.459L255.638 335.807L252.895 329.022L259.321 326.5C259.668 326.373 260.002 326.247 260.33 326.134L261.232 325.837L261.862 325.636L262.108 325.566L261.352 323.283L249.162 328.208L249.288 328.448L249.604 329.079C249.736 329.344 249.881 329.646 250.032 329.974C250.184 330.302 250.341 330.655 250.486 331.021L257.297 347.883L257.309 347.908ZM278.75 338.405L281.461 336.841L281.316 336.646L280.951 336.11C280.799 335.889 280.635 335.637 280.459 335.353C280.282 335.069 280.099 334.779 279.923 334.47L277.079 329.602L280.497 327.628L289.003 332.642L291.898 330.794L291.519 330.636C291.28 330.529 290.965 330.39 290.58 330.207C290.195 330.025 289.792 329.816 289.375 329.577L282.376 325.591C282.938 325.01 283.381 324.325 283.681 323.574C283.975 322.813 284.09 321.995 284.015 321.184C283.924 320.253 283.627 319.355 283.145 318.554C282.585 317.537 281.741 316.705 280.717 316.158C279.66 315.634 278.469 315.438 277.299 315.596C275.805 315.807 274.369 316.322 273.081 317.11L267.929 320.086L268.086 320.301L268.49 320.875C268.66 321.114 268.843 321.398 269.039 321.701C269.234 322.003 269.442 322.331 269.631 322.672L278.712 338.399L278.75 338.405ZM273.844 319.216C274.741 318.659 275.744 318.292 276.789 318.138C277.562 318.029 278.349 318.173 279.034 318.548C279.688 318.966 280.231 319.535 280.617 320.208C281.004 320.881 281.222 321.638 281.253 322.413C281.254 323.152 281.034 323.874 280.623 324.488C280.136 325.204 279.488 325.796 278.731 326.216L276.051 327.767L271.801 320.402L273.85 319.216H273.844ZM291.501 306.648C291.879 306.318 292.274 306.009 292.686 305.721C293.064 305.456 293.437 305.217 293.796 304.996L294.874 304.328C295.234 304.101 295.599 303.842 295.978 303.565L294.717 301.452C294.3 301.748 293.916 302.007 293.544 302.247L292.459 302.934C292.1 303.155 291.74 303.394 291.374 303.659C291.009 303.924 290.611 304.233 290.202 304.586C289.188 305.429 288.367 306.478 287.793 307.664C287.319 308.643 287.133 309.736 287.257 310.817C287.404 311.889 287.869 312.893 288.594 313.698C289.09 314.285 289.696 314.769 290.378 315.124C290.987 315.424 291.649 315.602 292.327 315.647C293.021 315.686 293.717 315.626 294.395 315.47C295.129 315.303 295.848 315.075 296.545 314.789C297.264 314.499 297.941 314.253 298.576 314.052C299.153 313.861 299.749 313.735 300.354 313.673C300.871 313.619 301.393 313.675 301.887 313.837C302.378 314.026 302.812 314.339 303.148 314.745C303.613 315.25 303.879 315.907 303.898 316.593C303.884 317.312 303.665 318.012 303.268 318.611C302.772 319.39 302.16 320.087 301.451 320.679C300.94 321.128 300.406 321.549 299.85 321.94C299.339 322.3 298.872 322.571 298.462 322.829C298.053 323.088 297.725 323.239 297.491 323.359L297.126 323.529L298.658 325.295L298.986 325.169C299.2 325.081 299.503 324.936 299.894 324.728C300.37 324.465 300.833 324.179 301.281 323.87C301.889 323.444 302.474 322.987 303.034 322.502C304.187 321.544 305.149 320.378 305.872 319.065C306.439 318.034 306.687 316.857 306.585 315.685C306.445 314.532 305.949 313.452 305.166 312.595C304.652 311.971 304.005 311.469 303.274 311.126C302.625 310.841 301.92 310.706 301.212 310.728C300.453 310.756 299.701 310.879 298.973 311.094C298.191 311.315 297.384 311.586 296.539 311.907C295.747 312.215 294.928 312.45 294.092 312.607C293.441 312.739 292.768 312.719 292.125 312.551C291.502 312.363 290.949 311.994 290.536 311.491C290.155 311.074 289.911 310.55 289.836 309.99C289.773 309.421 289.88 308.846 290.145 308.338C290.477 307.696 290.936 307.127 291.494 306.667L291.501 306.648ZM316.535 309.442L318.667 307.153L318.471 307.008L317.961 306.604C317.752 306.434 317.519 306.245 317.267 306.024C317.015 305.803 316.756 305.583 316.498 305.337L302.933 292.636L300.89 295.052L301.105 295.215L301.666 295.657C301.901 295.842 302.16 296.052 302.441 296.288C302.725 296.527 303.015 296.779 303.299 297.044L316.58 309.429L316.535 309.442ZM328.63 294.402L330.421 291.842L330.207 291.722L329.646 291.394C329.412 291.255 329.16 291.098 328.876 290.921C328.592 290.745 328.309 290.555 328.019 290.347L314.688 281.014L317.21 277.628C317.456 277.3 317.696 276.997 317.929 276.707C318.162 276.417 318.358 276.19 318.509 276.014C318.661 275.837 318.742 275.743 318.749 275.743L316.807 274.217L307.348 287.699L309.283 289.168L309.429 288.897C309.529 288.72 309.674 288.481 309.857 288.172C310.04 287.863 310.267 287.541 310.538 287.112L312.966 283.436L328.611 294.389L328.63 294.402ZM340.612 274.406L341.873 271.549L341.64 271.473L341.009 271.259L340.164 270.937C339.855 270.818 339.533 270.685 339.212 270.54L334.085 268.251L328.681 260.76C328.05 259.839 327.47 259.063 326.959 258.445C326.448 257.827 326.045 257.361 325.748 257.052C325.452 256.743 325.294 256.585 325.288 256.585L324.09 259.278C324.09 259.278 324.342 259.511 324.815 259.99C325.288 260.469 325.925 261.214 326.738 262.216L331.651 268.358L319.436 269.367L318.175 272.52L318.459 272.47L319.203 272.35L320.25 272.199L321.441 272.047L332.893 270.963L340.605 274.393L340.612 274.406Z" fill="#CE1531"/>
<path fill-rule="evenodd" clip-rule="evenodd" d="M82.5641 240.668C83.0867 240.668 83.5975 240.823 84.032 241.114C84.4665 241.404 84.8052 241.817 85.0052 242.3C85.2052 242.782 85.2575 243.314 85.1555 243.826C85.0536 244.339 84.8019 244.809 84.4324 245.179C84.0629 245.549 83.5921 245.8 83.0796 245.902C82.567 246.004 82.0358 245.952 81.553 245.752C81.0702 245.552 80.6575 245.213 80.3672 244.779C80.0768 244.344 79.9219 243.833 79.9219 243.311C79.9219 242.61 80.2002 241.938 80.6958 241.442C81.1913 240.947 81.8633 240.668 82.5641 240.668V240.668Z" fill="#CE1531"/>
<path fill-rule="evenodd" clip-rule="evenodd" d="M340.435 240.668C340.958 240.668 341.469 240.823 341.903 241.114C342.338 241.404 342.676 241.817 342.876 242.3C343.076 242.782 343.129 243.314 343.027 243.826C342.925 244.339 342.673 244.809 342.303 245.179C341.934 245.549 341.463 245.8 340.951 245.902C340.438 246.004 339.907 245.952 339.424 245.752C338.941 245.552 338.529 245.213 338.238 244.779C337.948 244.344 337.793 243.833 337.793 243.311C337.793 242.61 338.071 241.938 338.567 241.442C339.062 240.947 339.734 240.668 340.435 240.668V240.668Z" fill="#CE1531"/>
<path d="M213.509 129.368V131.322H223.743V129.368H220.458V110.437H219.985L212.739 112.095L212.884 113.659L217.557 113.243V129.368H213.509Z" fill="#CE1531"/>
<path d="M238.953 112.241L238.663 109.971C236.382 110.185 234.172 110.874 232.174 111.995C230.432 113.015 229.032 114.53 228.151 116.346C227.17 118.499 226.697 120.849 226.77 123.213C226.762 124.338 226.919 125.458 227.237 126.537C227.52 127.499 227.977 128.401 228.586 129.198C229.161 129.942 229.896 130.548 230.736 130.97C231.629 131.398 232.609 131.614 233.599 131.6C234.625 131.618 235.644 131.429 236.595 131.045C237.414 130.708 238.149 130.193 238.745 129.538C239.31 128.898 239.739 128.149 240.006 127.337C240.301 126.484 240.448 125.586 240.441 124.683C240.453 123.799 240.303 122.921 240 122.091C239.726 121.385 239.312 120.741 238.783 120.199C238.272 119.681 237.661 119.273 236.986 119.001C236.287 118.725 235.542 118.586 234.791 118.591C234.063 118.587 233.337 118.682 232.635 118.875C231.994 119.053 231.385 119.332 230.831 119.701C230.313 120.047 229.87 120.493 229.526 121.013C229.628 119.888 229.904 118.786 230.345 117.746C230.718 116.877 231.238 116.078 231.884 115.388C232.492 114.737 233.199 114.186 233.978 113.754C234.743 113.34 235.551 113.008 236.387 112.764C237.228 112.523 238.086 112.342 238.953 112.222V112.241ZM230.049 125.231C230.045 124.665 230.128 124.101 230.295 123.56C230.449 123.058 230.699 122.591 231.033 122.185C231.376 121.782 231.808 121.463 232.294 121.252C232.844 121.019 233.437 120.903 234.034 120.912C234.715 120.897 235.386 121.081 235.964 121.441C236.503 121.791 236.928 122.291 237.187 122.879C237.485 123.554 237.632 124.286 237.616 125.023C237.637 125.814 237.5 126.601 237.213 127.337C236.965 127.97 236.524 128.509 235.952 128.876C235.292 129.266 234.535 129.458 233.77 129.431C233.217 129.44 232.672 129.312 232.181 129.059C231.728 128.823 231.332 128.492 231.02 128.088C230.704 127.684 230.462 127.227 230.308 126.738C230.148 126.254 230.067 125.747 230.068 125.238L230.049 125.231Z" fill="#CE1531"/>
<path d="M183.303 129.368V131.322H193.537V129.368H190.252V110.437H189.779L182.533 112.095L182.685 113.659L187.357 113.243V129.368H183.303Z" fill="#CE1531"/>
<path d="M197.775 129.576L198.071 131.827C200.352 131.613 202.562 130.923 204.56 129.803C206.303 128.783 207.703 127.268 208.583 125.452C209.563 123.303 210.035 120.957 209.965 118.597C209.974 117.472 209.817 116.352 209.498 115.274C209.215 114.312 208.757 113.41 208.148 112.613C207.574 111.868 206.839 111.262 205.998 110.841C205.105 110.412 204.125 110.196 203.135 110.21C202.11 110.193 201.091 110.382 200.14 110.765C199.323 111.101 198.591 111.614 197.996 112.266C197.431 112.909 197.002 113.66 196.735 114.473C196.44 115.327 196.292 116.224 196.299 117.128C196.288 118.012 196.44 118.89 196.747 119.719C197.014 120.437 197.426 121.092 197.958 121.643C198.468 122.16 199.08 122.566 199.755 122.835C200.453 123.115 201.198 123.256 201.95 123.251C202.678 123.254 203.404 123.159 204.106 122.967C204.746 122.79 205.353 122.511 205.903 122.141C206.407 121.792 206.836 121.346 207.165 120.829C207.069 121.956 206.796 123.06 206.357 124.102C205.99 124.971 205.474 125.769 204.831 126.461C204.228 127.096 203.531 127.634 202.763 128.056C201.999 128.475 201.191 128.807 200.354 129.046C199.513 129.285 198.655 129.462 197.788 129.576H197.775ZM206.679 116.648C206.685 117.205 206.602 117.758 206.433 118.288C206.28 118.783 206.031 119.244 205.702 119.644C205.358 120.046 204.927 120.363 204.44 120.571C203.888 120.803 203.293 120.919 202.694 120.911C202.02 120.935 201.356 120.75 200.792 120.382C200.228 120.014 199.791 119.481 199.541 118.856C199.241 118.139 199.095 117.368 199.112 116.592C199.097 115.845 199.245 115.105 199.547 114.422C199.813 113.816 200.252 113.3 200.808 112.94C201.453 112.561 202.192 112.37 202.94 112.392C203.496 112.384 204.046 112.511 204.541 112.764C205.013 112.998 205.425 113.337 205.746 113.754C206.058 114.162 206.297 114.62 206.452 115.11C206.611 115.607 206.691 116.126 206.692 116.648H206.679Z" fill="#CE1531"/>
<path d="M138.039 136.576H286.374V239.553C286.193 259.291 278.225 278.16 264.203 292.054C250.181 305.948 231.24 313.743 211.5 313.743C191.761 313.743 172.819 305.948 158.797 292.054C144.775 278.16 136.807 259.291 136.626 239.553V136.576H138.039ZM211.497 139.407H139.457V239.553C139.635 258.543 147.304 276.695 160.795 290.061C174.286 303.426 192.509 310.925 211.5 310.925C230.491 310.925 248.714 303.426 262.206 290.061C275.697 276.695 283.365 258.543 283.543 239.553V139.407H211.497Z" fill="#CE1531"/>
<path d="M242.869 250.809H242.9L243.833 251.055V294.288L242.333 293.986C231.669 291.816 221.277 293.481 211.496 297.769C201.728 293.494 191.317 291.842 180.66 293.986L179.159 294.288V251.067L180.092 250.821H180.13C181.636 250.435 183.165 250.146 184.708 249.957C186.351 249.754 188.004 249.634 189.659 249.598C197.894 249.402 206.805 251.086 211.496 254.138C216.188 251.092 225.098 249.402 233.334 249.598C234.989 249.634 236.641 249.754 238.284 249.957C239.827 250.146 241.357 250.435 242.862 250.821L242.869 250.809ZM185.188 260.268C186.644 260.097 188.152 259.996 189.671 259.959C195.763 259.814 202.214 260.696 207.019 262.405V264.158C202.409 262.393 195.889 261.466 189.709 261.636C188.164 261.674 186.644 261.775 185.181 261.951V260.286L185.188 260.268ZM185.188 267.204C186.644 267.034 188.152 266.933 189.671 266.895C195.763 266.75 202.214 267.633 207.019 269.348V271.101C202.409 269.336 195.889 268.409 189.709 268.579C188.164 268.617 186.644 268.718 185.181 268.894V267.229L185.188 267.204ZM185.188 274.141C186.644 273.971 188.152 273.87 189.671 273.832C195.763 273.687 202.214 274.57 207.019 276.279V278.032C202.409 276.266 195.889 275.339 189.709 275.509C188.164 275.547 186.644 275.648 185.181 275.824V274.16L185.188 274.141ZM185.188 281.077C186.644 280.907 188.152 280.806 189.671 280.768C195.763 280.623 202.214 281.506 207.019 283.221V284.974C202.409 283.209 195.889 282.282 189.709 282.452C188.164 282.49 186.644 282.591 185.181 282.767V281.103L185.188 281.077ZM210.235 294.509V256.27C206.035 253.438 197.592 251.855 189.703 252.057C188.134 252.092 186.568 252.206 185.011 252.398C183.845 252.543 182.722 252.738 181.65 252.978V291.249C191.296 289.644 201.198 290.774 210.235 294.509V294.509ZM237.811 261.945C236.355 261.768 234.828 261.661 233.29 261.623C227.11 261.472 220.59 262.399 215.98 264.146V262.393C220.785 260.684 227.236 259.795 233.328 259.946C234.847 259.984 236.361 260.085 237.811 260.255V261.945ZM237.811 268.882C236.355 268.705 234.828 268.598 233.29 268.56C227.11 268.415 220.59 269.336 215.98 271.082V269.329C220.785 267.62 227.236 266.731 233.328 266.876C234.847 266.914 236.361 267.015 237.811 267.185V268.882ZM237.811 275.818C236.355 275.642 234.828 275.534 233.29 275.497C227.11 275.352 220.59 276.272 215.98 278.019V276.266C220.785 274.557 227.236 273.668 233.328 273.819C234.847 273.857 236.355 273.958 237.811 274.128V275.818ZM237.811 282.755C236.355 282.578 234.828 282.471 233.29 282.433C227.11 282.288 220.59 283.209 215.98 284.956V283.202C220.785 281.494 227.236 280.604 233.328 280.749C234.847 280.787 236.361 280.888 237.811 281.058V282.73V282.755ZM241.33 252.965C240.264 252.726 239.135 252.53 237.969 252.385C236.412 252.193 234.846 252.079 233.277 252.045C225.388 251.855 216.945 253.426 212.745 256.257V294.478C221.783 290.748 231.686 289.626 241.33 291.236V252.997V252.965Z" fill="#CE1531"/>
<path d="M138.013 238.285H284.98V240.807H138.013V238.285Z" fill="#CE1531"/>
<path d="M255.6 196.621L267.519 219.853L267.658 220.117V237.263H266.396C265.829 237.263 265.261 237.263 264.347 237.263C257.442 237.125 251.237 235.712 251.073 221.101L242.837 215.501L242.585 215.678C241.012 216.759 239.319 217.654 237.54 218.345C236.015 218.932 234.428 219.345 232.811 219.575L231.02 228.599H231.36C234.406 228.769 236.096 230.1 237.036 232.168C237.975 234.236 238.051 236.746 238.051 239.584V240.845H214.441V236.721V235.46V228.769H209.573V227.508V227.388V227.262V227.035V226.795V226.549V226.329V226.152V226.045V225.988V225.932C209.573 225.818 209.611 225.704 209.636 225.591V225.534V225.477V225.421V225.377V225.32V225.263V225.15V225.093V225.055L209.699 224.834L209.769 224.614C209.844 224.38 209.926 224.16 210.014 223.933C210.164 223.567 210.337 223.211 210.532 222.867V222.867C211.032 221.977 211.67 221.172 212.423 220.483V220.483C212.7 220.235 212.99 220.004 213.294 219.789H199.9C198.637 220.96 197.165 221.882 195.561 222.507V222.507C195.214 222.64 194.886 222.747 194.571 222.829V228.523H194.647C198.121 228.523 199.994 229.898 201.016 232.118C201.924 234.136 202.037 236.721 202.037 239.559V240.82H160.235V228.776H155.373V227.514C155.371 226.191 155.646 224.883 156.179 223.672C156.712 222.461 157.492 221.375 158.469 220.483C158.786 220.195 159.121 219.927 159.472 219.682H155.373V218.421C155.38 216.844 155.774 215.292 156.522 213.903C157.27 212.514 158.348 211.331 159.661 210.457C159.857 210.33 160.058 210.204 160.292 210.091V204.731H157.895L157.561 203.993C156.074 200.57 155.328 196.872 155.373 193.14C155.381 187.829 156.777 182.612 159.421 178.006C162.184 173.145 166.41 169.279 171.497 166.958C175.31 165.259 179.444 164.399 183.618 164.435H217.544C218.849 162.54 220.499 160.906 222.406 159.618C222.784 159.365 223.207 159.107 223.667 158.842C224.551 158.346 225.475 157.924 226.429 157.581C225.998 156.755 225.748 155.847 225.697 154.917C225.646 153.987 225.794 153.057 226.133 152.189C226.553 151.191 227.26 150.34 228.163 149.742C229.07 149.149 230.125 148.823 231.209 148.803C233.366 148.759 235.743 149.869 237.477 152.624H253.116C254.85 149.869 257.227 148.752 259.384 148.803C260.468 148.823 261.523 149.149 262.43 149.742C263.34 150.347 264.05 151.21 264.467 152.221C265.268 154.113 265.097 156.635 263.206 159.246C271 174.014 266.031 182.017 256.654 189.722V189.931C256.552 192.189 256.208 194.43 255.626 196.615L255.6 196.621ZM197.497 233.827V238.342H199.515C199.483 236.299 199.326 234.495 198.739 233.215C198.153 231.935 196.942 231.09 194.647 231.09H192.061V220.691L193.127 220.521C193.384 220.479 193.639 220.424 193.89 220.357C194.167 220.281 194.426 220.199 194.659 220.111C194.949 220.004 195.233 219.878 195.517 219.739H186.184C184.92 220.911 183.446 221.833 181.839 222.457C181.499 222.583 181.158 222.697 180.83 222.785L180.502 222.867L178.226 228.706C179.227 228.827 180.178 229.21 180.984 229.815C181.79 230.421 182.422 231.228 182.817 232.156C183.599 233.852 183.788 235.977 183.826 238.316H192.957V233.801H194.218V238.316H196.236V233.801L197.497 233.827ZM179.065 233.827V238.342H181.328C181.297 236.299 181.139 234.495 180.553 233.215C179.966 231.935 178.756 231.09 176.46 231.09H174.632L175.294 229.387L178.447 221.341L178.711 220.66L179.229 220.578C182.049 219.793 184.535 218.107 186.309 215.778C188.083 213.448 189.046 210.603 189.053 207.676V207.676C189.063 205.074 188.316 202.526 186.903 200.342C186.632 199.922 186.337 199.518 186.02 199.131C185.774 198.835 185.509 198.532 185.232 198.248H188.498C188.675 198.488 188.845 198.734 189.003 198.986C190.673 201.562 191.562 204.567 191.563 207.638V207.638C191.564 211.096 190.434 214.459 188.347 217.217H209.674C209.774 216.374 209.986 215.549 210.305 214.764C210.455 214.398 210.628 214.042 210.822 213.698V213.698C211.683 212.185 212.941 210.936 214.46 210.085L214.366 198.254H216.888L216.97 210.866V211.68L216.232 212.014C214.87 212.627 213.738 213.656 212.997 214.953V214.953C212.601 215.642 212.328 216.396 212.19 217.179H216.97V220.767L216.289 221.076H216.232H216.194L216.024 221.158H215.911L215.835 221.196L215.772 221.227L215.709 221.259L215.646 221.29H215.589H215.545H215.501H215.457H215.412H215.368H215.324L215.217 221.366H215.179L215.002 221.505L214.908 221.58L214.832 221.65L214.712 221.757L214.466 221.997L214.385 222.079L214.315 222.154L214.277 222.198L214.214 222.274L214.176 222.324L214.139 222.375L214.05 222.482L213.886 222.703C213.737 222.906 213.598 223.116 213.47 223.333V223.333C213.401 223.46 213.331 223.586 213.268 223.712V223.743V223.794L213.231 223.882V224.74V224.79V224.859V224.904V224.967V225.005V225.068L213.142 225.332V225.421V225.465V225.534V225.597V225.667V225.711V225.749L213.085 225.976V226.114H217.865V236.526V238.153H226.624V233.644H227.886V238.153H229.904V233.644H231.165V238.153H233.183V233.644H234.444V238.153H236.462C236.43 236.109 236.273 234.306 235.686 233.026C235.1 231.746 232.937 231.046 230.66 231.046H227.955L228.529 228.183L229.197 224.828L230.225 219.72L230.528 218.175L230.711 217.261L231.209 214.776L231.335 214.146L231.928 213.881C233.007 213.405 234.019 212.788 234.936 212.046C235.106 211.907 235.283 211.756 235.465 211.592C235.648 211.428 235.831 211.257 235.983 211.106C237.758 209.329 238.999 207.09 239.564 204.642C239.675 204.158 239.76 203.667 239.817 203.173C239.876 202.677 239.908 202.178 239.911 201.679V201.407V198.254H242.434V201.407V201.685C242.432 202.279 242.399 202.873 242.333 203.463C241.918 207.026 240.314 210.346 237.78 212.884C237.565 213.099 237.364 213.288 237.149 213.458C236.935 213.629 236.739 213.818 236.519 213.994C235.6 214.733 234.601 215.368 233.542 215.886L233.334 216.92C234.468 216.702 235.58 216.383 236.657 215.968C238.258 215.35 239.782 214.548 241.198 213.578C248.134 208.874 253.015 200.335 253.992 191.816C252.101 193.254 250.089 194.704 248.002 196.23L246.003 197.624L245.271 198.147L244.54 197.624L242.566 196.205C228.491 186.115 217.733 178.346 226.94 160.078C226.226 160.351 225.532 160.676 224.865 161.049V161.049C224.525 161.238 224.165 161.465 223.78 161.724C221.966 162.949 220.425 164.535 219.253 166.384L218.887 166.964H183.573C179.756 166.919 175.974 167.693 172.481 169.234C167.871 171.341 164.043 174.847 161.54 179.255C159.12 183.478 157.844 188.26 157.839 193.128C157.817 196.24 158.395 199.327 159.541 202.221H160.348V198.254H162.871V203.993H162.751V211.686L162.02 212.02C161.68 212.173 161.353 212.352 161.042 212.556C160.731 212.76 160.436 212.988 160.159 213.238C159.024 214.276 158.262 215.658 157.99 217.172H162.764V220.761L162.032 221.095C161.352 221.403 160.725 221.816 160.172 222.318C159.037 223.357 158.275 224.739 158.003 226.253H162.783V238.291H171.296V233.776H172.557V238.291H174.575V233.776H175.836V238.291H177.854V233.776L179.065 233.827ZM263.136 230.276V234.728C263.552 234.728 263.981 234.773 264.397 234.779H265.148V220.716L254.516 199.995C252.529 205.35 249.229 210.12 244.918 213.868L253.021 219.373L253.57 219.745V220.376C253.57 228.624 255.632 232.124 258.615 233.619V230.207H259.876V234.123C260.535 234.323 261.21 234.464 261.894 234.545V230.207L263.136 230.276ZM235.882 168.824H242.818L242.648 170.035C242.478 171.265 242.289 172.312 242.112 173.314C241.481 176.997 240.926 180.024 242.415 183.574H248.09C249.578 180.03 249.042 176.997 248.393 173.314C248.216 172.312 248.027 171.265 247.857 170.035L247.686 168.824H254.623L250.127 170.956C250.234 171.624 250.354 172.299 250.467 172.949C251.218 177.205 251.83 180.667 249.723 185.094L249.433 185.724H241.065L240.775 185.094C238.663 180.68 239.274 177.205 240.031 172.949C240.145 172.318 240.264 171.624 240.378 170.956L235.882 168.831V168.824ZM245.265 182.433L247.573 180.73L246.69 179.381H243.834L242.951 180.73L245.259 182.433H245.265ZM244.004 194.225L245.265 195.12L246.526 194.225C259.971 184.558 270.167 177.199 260.601 159.775L260.198 159.031L260.734 158.401C262.417 156.351 262.676 154.529 262.14 153.255C261.909 152.712 261.523 152.249 261.03 151.924C260.522 151.59 259.929 151.406 259.321 151.395C257.852 151.363 256.168 152.284 254.907 154.548L254.554 155.178H235.989L235.636 154.548C234.375 152.259 232.703 151.338 231.222 151.395C230.613 151.406 230.021 151.59 229.513 151.924C229.02 152.249 228.634 152.712 228.403 153.255C227.867 154.516 228.125 156.351 229.809 158.401L230.345 159.031L229.941 159.775C220.382 177.224 230.572 184.558 244.016 194.225H244.004Z" fill="#CE1531"/>
<path fill-rule="evenodd" clip-rule="evenodd" d="M242.831 168.787C242.537 169.462 242.052 170.036 241.436 170.44C240.82 170.843 240.099 171.058 239.363 171.058C238.626 171.058 237.906 170.843 237.29 170.44C236.674 170.036 236.189 169.462 235.895 168.787H242.831Z" fill="#CE1531"/>
<path fill-rule="evenodd" clip-rule="evenodd" d="M254.667 168.787C254.373 169.462 253.888 170.036 253.272 170.44C252.656 170.843 251.935 171.058 251.199 171.058C250.462 171.058 249.742 170.843 249.126 170.44C248.51 170.036 248.025 169.462 247.73 168.787H254.667Z" fill="#CE1531"/>
</g>
<defs>
<clipPath id="clip0_278_1335">
<rect width="309" height="309" fill="white" transform="translate(57 57)"/>
</clipPath>
</defs>
</svg>
