<svg width="851" height="318" viewBox="0 0 851 318" fill="none" xmlns="http://www.w3.org/2000/svg">
<rect width="851" height="318" rx="56" fill="white"/>
<g clip-path="url(#clip0_278_1333)">
<path d="M309.485 87.4039H273.479V90.5567H277.649V120.408H273.479V123.561H286.749V120.408H282.686V90.5634H300.379V120.415H296.209V123.568H309.479V120.415H305.416V90.5634H309.479V87.4039H309.485ZM350.776 114.236H347.435L346.921 120.381H334.106V106.858L345.885 107.273V103.269L334.106 103.732V90.5634H346.914L347.429 96.7081H350.769V87.4039H324.953V90.5567H329.068V120.408H324.953V123.561H350.776V114.236ZM366.297 123.561H380.595V120.408H375.45V109.776H380.695C382.47 109.794 384.238 109.546 385.94 109.038C387.443 108.593 388.842 107.852 390.056 106.858C391.206 105.905 392.121 104.697 392.728 103.329C393.388 101.806 393.716 100.16 393.691 98.4991C393.752 96.3533 393.188 94.2361 392.067 92.4081C390.94 90.7168 389.324 89.4128 387.437 88.6717C385.124 87.7748 382.659 87.344 380.181 87.4039H366.297V90.5567H370.413V120.408H366.297V123.561ZM375.45 106.676V90.5768H379.459C381.227 90.5222 382.983 90.8877 384.584 91.6434C385.856 92.2678 386.905 93.2733 387.584 94.5212C388.252 95.8055 388.588 97.2382 388.559 98.687C388.565 99.7425 388.389 100.791 388.038 101.786C387.699 102.731 387.174 103.598 386.495 104.335C385.805 105.084 384.962 105.672 384.023 106.059C382.963 106.495 381.827 106.712 380.682 106.697L375.45 106.676ZM408.303 123.561H420.289V120.408H416.173V96.6074C416.173 95.9769 416.14 95.4 416.093 94.8835C416.046 94.3669 415.993 93.9443 415.939 93.629C415.886 93.3137 415.859 93.1527 415.859 93.146L416.013 93.0924C416.013 93.0924 416.073 93.2467 416.187 93.5485C416.3 93.8504 416.481 94.2529 416.721 94.7694C416.962 95.2859 417.256 95.8561 417.61 96.5001L428.514 114.78H429.128L440.6 96.6007C440.953 96.048 441.267 95.4721 441.542 94.8767C441.756 94.4405 441.946 93.9926 442.11 93.5351C442.237 93.1796 442.297 92.9985 442.297 92.9918L442.451 93.0454C442.451 93.0454 442.451 93.1662 442.418 93.3808C442.384 93.5955 442.358 93.8906 442.324 94.2395C442.291 94.5883 442.264 94.9707 442.237 95.3731C442.211 95.7756 442.197 96.1714 442.197 96.5538V120.415H438.028V123.568H451.043V120.415H446.981V90.5634H451.043V87.4039H441.79L429.549 107.294L418.051 87.4039H408.303V90.5567H412.365V120.408H408.303V123.561ZM493.931 98.0698V88.7455C493.931 88.7455 493.717 88.6247 493.263 88.4168C492.642 88.1447 492.007 87.9095 491.359 87.7124C490.345 87.4021 489.312 87.1623 488.265 86.9947C486.863 86.7815 485.447 86.6761 484.029 86.6794C481.983 86.6677 479.949 87.0057 478.016 87.6789C476.24 88.2989 474.587 89.2276 473.132 90.4225C471.706 91.5992 470.479 92.9991 469.497 94.5682C468.503 96.1624 467.744 97.8933 467.246 99.7066C466.721 101.598 466.458 103.553 466.464 105.516C466.431 108.185 466.865 110.839 467.747 113.358C468.53 115.564 469.771 117.578 471.388 119.268C472.998 120.892 474.937 122.15 477.074 122.957C479.433 123.859 481.939 124.314 484.463 124.299C485.77 124.298 487.075 124.22 488.372 124.064C489.376 123.946 490.373 123.774 491.359 123.547C492.192 123.351 492.826 123.178 493.263 123.031C493.699 122.883 493.922 122.805 493.931 122.796V113.438H490.59L490.129 120.146C489.378 120.338 488.618 120.49 487.851 120.603C486.851 120.746 485.841 120.818 484.831 120.817C483.259 120.831 481.698 120.551 480.227 119.992C478.877 119.476 477.635 118.709 476.566 117.731C475.498 116.75 474.596 115.601 473.894 114.33C473.162 113 472.614 111.576 472.263 110.098C471.89 108.536 471.704 106.934 471.709 105.328C471.708 103.845 471.862 102.365 472.17 100.914C472.479 99.4864 472.964 98.1028 473.613 96.7953C474.24 95.5252 475.071 94.3672 476.072 93.3674C477.09 92.3596 478.295 91.5619 479.619 91.0196C481.107 90.4274 482.696 90.1312 484.296 90.1475C485.137 90.1445 485.975 90.2186 486.802 90.3689C487.468 90.4849 488.123 90.6577 488.76 90.8854C489.239 91.0575 489.708 91.2591 490.163 91.4891L490.577 98.0497L493.931 98.0698ZM509.913 90.5835H514.028V120.435H509.913V123.588H523.182V120.435H519.066V106.468H523.075L535.222 123.561H541.803V120.408H538.983L527.251 103.886L537.38 90.5634H540.366V87.4039H529.716V90.5567H532.649L524.211 103.369H519.066V90.5634H523.182V87.4039H509.913V90.5567V90.5835ZM555.005 90.5835H559.121V120.435H555.019V123.588H564.172L580.989 96.0842C581.303 95.5677 581.59 95.0512 581.858 94.5413C582.115 94.0542 582.338 93.5499 582.526 93.032L582.786 93.1326C582.653 93.6285 582.553 94.1327 582.486 94.642C582.41 95.2045 582.373 95.7715 582.372 96.3391V120.415H578.256V123.568H591.526V120.415H587.41V90.5634H591.526V87.4039H582.372L566.016 114.008C565.655 114.605 565.295 115.216 564.947 115.84C564.6 116.464 564.279 117.128 563.958 117.852L563.751 117.752C563.903 117.032 564.008 116.304 564.065 115.571C564.132 114.834 564.159 114.082 564.159 113.311V90.5634H568.274V87.4039H555.019V90.5567L555.005 90.5835ZM625.099 83.1241C626.149 83.1242 627.196 83.005 628.22 82.7685C629.137 82.5629 630.032 82.2686 630.892 81.8898C631.642 81.5545 632.362 81.155 633.044 80.6957C633.587 80.3388 634.097 79.9324 634.567 79.4815L631.787 76C631.119 76.6104 630.451 77.1941 629.85 77.7575C629.218 78.2995 628.514 78.751 627.759 79.0992C626.918 79.4744 626.006 79.6621 625.086 79.6492C624.166 79.6621 623.254 79.4744 622.413 79.0992C621.658 78.751 620.954 78.2995 620.322 77.7575C619.687 77.2008 619.046 76.6104 618.385 76L615.605 79.5151C616.087 79.953 616.605 80.348 617.155 80.6957C617.816 81.1496 618.516 81.5425 619.246 81.8696C620.106 82.2517 621.001 82.5461 621.919 82.7484C622.971 82.9872 624.047 83.1065 625.126 83.1039L625.099 83.1241ZM607 90.5634H611.142V120.415H607V123.568H616.153L632.97 96.0641C633.284 95.5476 633.571 95.031 633.839 94.5212C634.096 94.0341 634.319 93.5298 634.507 93.0119L634.767 93.1125C634.634 93.6084 634.534 94.1126 634.467 94.6218C634.391 95.1844 634.354 95.7514 634.353 96.319V120.415H630.237V123.568H643.507V120.415H639.404V90.5634H643.52V87.4039H634.366L618.004 114.008C617.643 114.605 617.282 115.216 616.935 115.84C616.587 116.464 616.267 117.128 615.946 117.852L615.739 117.752C615.89 117.032 615.995 116.304 616.053 115.571C616.12 114.834 616.146 114.082 616.146 113.311V90.5634H620.262V87.4039H607V90.5567V90.5634Z" fill="#CE1531"/>
<path d="M307.995 141.74H295.782V144.893H299.898L293.624 161.106C293.423 161.589 293.236 162.086 293.056 162.589C292.875 163.092 292.702 163.562 292.561 163.991C292.421 164.42 292.308 164.776 292.221 165.031C292.134 165.286 292.08 165.433 292.08 165.447H291.927C291.927 165.447 291.887 165.306 291.8 165.044C291.713 164.783 291.599 164.44 291.459 164.011C291.319 163.582 291.152 163.105 290.951 162.589C290.751 162.072 290.557 161.563 290.337 161.06L283.134 144.893H287.25V141.74H273.479V144.893H277.595L289.582 170.25C289.215 170.991 288.735 171.671 288.158 172.262C287.588 172.829 286.905 173.268 286.154 173.55C285.248 173.878 284.29 174.035 283.328 174.013C282.892 174.02 282.458 173.977 282.032 173.885C281.878 173.853 281.726 173.81 281.577 173.758V177.89C281.683 177.942 281.792 177.984 281.905 178.018C282.21 178.13 282.526 178.213 282.847 178.266C283.363 178.36 283.886 178.408 284.41 178.407C285.546 178.417 286.667 178.15 287.677 177.629C288.708 177.069 289.617 176.307 290.35 175.388C291.212 174.297 291.956 173.116 292.568 171.866C293.236 170.478 293.951 168.928 294.626 167.171L303.933 144.859H308.049V141.74H307.995ZM320.637 177.89H333.906V174.737H329.79V160.925H347.997V174.711H343.888V177.863H357.157V174.711H353.041V144.859H357.157V141.74H343.888V144.893H348.003V157.638H329.79V144.893H333.906V141.74H320.63V144.893H324.746V174.744H320.63V177.897L320.637 177.89ZM372.617 144.866H376.733V174.717H372.617V177.87H381.771L398.588 150.367C398.902 149.85 399.189 149.334 399.457 148.824C399.713 148.337 399.937 147.832 400.125 147.314L400.385 147.415C400.252 147.911 400.152 148.415 400.085 148.924C400.009 149.487 399.971 150.054 399.971 150.622V174.684H395.869V177.837H409.138V174.684H405.022V144.832H409.138V141.74H400.011L383.655 168.338C383.294 168.928 382.934 169.545 382.586 170.169C382.239 170.793 381.918 171.457 381.597 172.182L381.39 172.081C381.542 171.362 381.646 170.634 381.704 169.901C381.771 169.163 381.798 168.412 381.798 167.64V144.866H385.913V141.74H372.617V144.893V144.866ZM424.605 177.863H438.442C440.328 177.886 442.208 177.661 444.035 177.193C445.567 176.792 447.013 176.11 448.297 175.18C449.45 174.341 450.383 173.234 451.017 171.954C451.671 170.59 452 169.093 451.979 167.58C451.985 166.478 451.783 165.386 451.384 164.36C451.012 163.43 450.466 162.58 449.774 161.858C449.073 161.136 448.255 160.54 447.355 160.094C446.408 159.629 445.4 159.3 444.362 159.114V158.906C445.535 158.51 446.626 157.904 447.582 157.115C448.466 156.384 449.179 155.468 449.674 154.432C450.18 153.333 450.438 152.135 450.429 150.923C450.472 149.226 450.007 147.555 449.092 146.127C448.075 144.672 446.653 143.552 445.003 142.907C442.831 142.069 440.515 141.672 438.188 141.74H424.612V144.893H428.741V174.744H424.625V177.897L424.605 177.863ZM433.759 174.711V160.523H439.211C440.671 160.489 442.118 160.811 443.427 161.462C444.522 162.026 445.428 162.901 446.032 163.978C446.637 165.087 446.943 166.335 446.921 167.6C446.939 168.876 446.616 170.134 445.985 171.242C445.353 172.324 444.426 173.202 443.313 173.771C441.978 174.431 440.504 174.758 439.017 174.724L433.759 174.711ZM445.484 151.266C445.488 152.126 445.357 152.982 445.097 153.801C444.858 154.587 444.463 155.315 443.934 155.941C443.394 156.572 442.705 157.056 441.93 157.35H433.765V144.866H437.934C439.179 144.839 440.419 145.011 441.609 145.376C442.483 145.64 443.28 146.112 443.934 146.751C444.489 147.317 444.903 148.007 445.144 148.763C445.391 149.569 445.51 150.409 445.498 151.252L445.484 151.266ZM493.056 168.573H489.715L489.201 174.717H476.392V161.133L488.172 161.549V157.571L476.392 158.034V144.866H489.201L489.715 151.011H493.056V141.74H467.239V144.893H471.355V174.744H467.239V177.897H493.062V168.573H493.056ZM508.576 177.87H522.875V174.717H517.73V164.078H522.948C524.723 164.097 526.491 163.848 528.193 163.34C529.694 162.902 531.093 162.168 532.309 161.18C533.459 160.227 534.374 159.019 534.981 157.652C535.641 156.129 535.969 154.482 535.943 152.822C536.005 150.676 535.441 148.559 534.32 146.731C533.193 145.04 531.577 143.736 529.69 142.994C527.387 142.106 524.933 141.68 522.467 141.74H508.576V144.893H512.692V174.744H508.576V177.897V177.87ZM517.73 160.986V144.886H521.739C523.507 144.832 525.263 145.197 526.863 145.953C528.136 146.577 529.184 147.583 529.863 148.831C530.531 150.115 530.867 151.548 530.839 152.996C530.844 154.052 530.668 155.1 530.318 156.095C529.979 157.041 529.454 157.908 528.774 158.645C528.087 159.392 527.246 159.981 526.309 160.369C525.249 160.805 524.113 161.021 522.968 161.006L517.73 160.986ZM577.996 152.359V143.082C577.996 143.082 577.782 142.961 577.328 142.753C576.707 142.481 576.071 142.246 575.423 142.049C574.43 141.734 573.417 141.488 572.39 141.311C570.988 141.098 569.572 140.992 568.154 140.995C566.108 140.984 564.074 141.322 562.141 141.995C560.365 142.615 558.712 143.544 557.257 144.739C555.832 145.911 554.605 147.306 553.622 148.871C552.627 150.465 551.869 152.196 551.371 154.009C550.848 155.892 550.585 157.837 550.589 159.792C550.556 162.461 550.99 165.115 551.872 167.633C552.655 169.84 553.896 171.854 555.513 173.543C557.118 175.187 559.058 176.464 561.199 177.287C563.561 178.175 566.066 178.616 568.588 178.588C569.895 178.587 571.2 178.509 572.497 178.353C573.501 178.235 574.498 178.063 575.484 177.837C576.317 177.64 576.951 177.468 577.388 177.32C577.824 177.172 578.047 177.094 578.056 177.085V167.741H574.715L574.254 174.449C573.503 174.641 572.743 174.793 571.976 174.905C570.976 175.049 569.966 175.121 568.956 175.12C567.384 175.133 565.823 174.854 564.352 174.295C563.002 173.778 561.76 173.011 560.691 172.034C559.623 171.053 558.721 169.904 558.018 168.633C557.287 167.302 556.739 165.879 556.388 164.4C556.015 162.838 555.829 161.237 555.834 159.631C555.833 158.147 555.987 156.668 556.295 155.217C556.603 153.787 557.088 152.401 557.738 151.091C558.365 149.821 559.196 148.663 560.197 147.663C561.215 146.655 562.42 145.858 563.744 145.315C565.232 144.723 566.821 144.427 568.421 144.443C569.262 144.44 570.1 144.514 570.927 144.665C571.593 144.781 572.248 144.954 572.885 145.181C573.364 145.353 573.833 145.555 574.288 145.785L574.702 152.346L577.996 152.359ZM593.978 144.873H598.093V174.724H593.978V177.877H603.124L619.941 150.373C620.262 149.857 620.543 149.34 620.81 148.831C621.067 148.343 621.29 147.839 621.478 147.321L621.732 147.422C621.599 147.918 621.498 148.422 621.431 148.931C621.356 149.494 621.318 150.061 621.318 150.628V174.69H617.202V177.843H630.518V174.69H626.402V144.839H630.518V141.74H621.364L605.008 168.338C604.648 168.928 604.287 169.545 603.939 170.169C603.592 170.793 603.271 171.457 602.951 172.182L602.744 172.081C602.897 171.362 603.004 170.634 603.064 169.901C603.131 169.163 603.158 168.412 603.158 167.64V144.866H607.273V141.74H593.984V144.893L593.978 144.873ZM648.023 151.017L648.538 144.926H657.177V174.724H652.566V177.877H666.865V174.724H662.234V144.92H670.873L671.388 151.011H674.728V141.74H644.662V151.038L648.023 151.017ZM714.703 168.573H711.362L710.848 174.717H698.066V161.133L709.846 161.549V157.571L698.066 158.034V144.866H710.875L711.389 151.011H714.73V141.74H688.906V144.893H693.022V174.744H688.906V177.897H714.703V168.573ZM732.282 151.017L732.796 144.926H741.435V174.724H736.805V177.877H751.103V174.724H746.506V144.92H755.145L755.66 151.011H759V141.74H728.934V151.038L732.282 151.017Z" fill="#CE1531"/>
<path d="M194.893 139.727L205.196 159.892L205.316 160.127V175.012H204.234C203.746 175.012 203.252 175.012 202.463 175.012C196.497 174.892 191.105 173.671 190.985 160.986L183.862 156.122L183.642 156.276C182.277 157.216 180.809 157.992 179.266 158.591C177.947 159.1 176.575 159.458 175.177 159.657L173.633 167.493H173.927C176.56 167.64 178.023 168.794 178.838 170.592C179.653 172.389 179.72 174.57 179.72 177.032V178.118H159.282V174.536V173.483V167.674H155.072V166.56V166.453V166.352V166.151V165.943V165.795V165.735V165.547V165.393V165.299V165.198C155.072 165.098 155.106 164.997 155.126 164.903V164.856V164.809V164.709V164.662V164.548V164.454V164.407V164.36L155.179 164.172L155.239 163.984C155.306 163.783 155.373 163.588 155.453 163.394C155.583 163.076 155.732 162.767 155.901 162.468V162.468C156.34 161.695 156.899 160.998 157.558 160.402V160.402C157.797 160.186 158.05 159.985 158.313 159.798H146.707C145.615 160.815 144.341 161.616 142.952 162.16V162.16C142.652 162.274 142.364 162.367 142.097 162.441V167.459H142.164C145.171 167.459 146.787 168.653 147.669 170.578C148.464 172.309 148.545 174.556 148.545 177.018V178.105H112.412V167.64H108.189V166.56C108.187 165.412 108.424 164.276 108.884 163.225C109.344 162.174 110.018 161.23 110.862 160.456C111.135 160.214 111.422 159.99 111.724 159.785H108.189V158.698C108.196 157.329 108.537 155.983 109.184 154.778C109.83 153.574 110.762 152.547 111.897 151.789C112.064 151.675 112.238 151.567 112.419 151.467V146.811H110.414L110.127 146.14C108.824 143.17 108.163 139.955 108.189 136.709C108.196 132.097 109.403 127.567 111.69 123.568C114.078 119.348 117.73 115.991 122.127 113.975C125.425 112.513 128.998 111.779 132.603 111.822H161.934C163.071 110.175 164.505 108.757 166.163 107.642C166.491 107.421 166.832 107.2 167.252 106.972C168.018 106.541 168.818 106.175 169.644 105.878C169.269 105.159 169.053 104.368 169.009 103.558C168.965 102.748 169.095 101.938 169.39 101.182C169.754 100.315 170.366 99.5749 171.148 99.0559C171.931 98.5395 172.843 98.2558 173.78 98.2375C175.644 98.1973 177.702 99.1633 179.199 101.558H192.722C194.218 99.1633 196.276 98.204 198.14 98.2375C199.077 98.2558 199.99 98.5395 200.773 99.0559C201.555 99.5752 202.166 100.315 202.53 101.182C203.198 102.826 203.071 104.993 201.441 107.28C208.182 120.099 203.886 127.042 195.782 133.73V133.912C195.695 135.877 195.397 137.827 194.893 139.727V139.727ZM144.656 171.994V175.911H146.4C146.464 174.397 146.237 172.885 145.732 171.457C145.211 170.317 144.182 169.612 142.191 169.612H139.926V160.623L140.848 160.476C141.073 160.438 141.296 160.389 141.516 160.328C141.756 160.261 141.977 160.194 142.184 160.114C142.431 160.02 142.678 159.912 142.926 159.792H134.848C133.756 160.809 132.482 161.61 131.093 162.153C130.799 162.267 130.505 162.361 130.224 162.435L129.944 162.502L127.973 167.566C128.84 167.674 129.664 168.01 130.361 168.54C131.058 169.07 131.603 169.775 131.941 170.585C132.59 172.296 132.888 174.122 132.817 175.952H140.707V172.034H141.79V175.952H143.534V172.034L144.656 171.994ZM128.721 171.994V175.911H130.679C130.743 174.399 130.516 172.889 130.011 171.464C129.489 170.323 128.454 169.619 126.469 169.619H124.853L125.427 168.143L128.14 161.194L128.367 160.603L128.815 160.536C131.252 159.855 133.401 158.392 134.934 156.371C136.467 154.35 137.3 151.881 137.307 149.34C137.312 147.076 136.66 144.859 135.429 142.961C135.195 142.595 134.941 142.244 134.667 141.908C134.454 141.646 134.226 141.391 133.999 141.143H136.826C136.979 141.351 137.126 141.566 137.26 141.814C138.686 144.045 139.442 146.642 139.438 149.293C139.438 152.297 138.459 155.218 136.652 157.611H155.092C155.184 156.881 155.373 156.165 155.654 155.485C155.784 155.167 155.933 154.858 156.101 154.559V154.559C156.846 153.245 157.934 152.159 159.248 151.42L159.181 141.123H161.339L161.413 152.077V152.782L160.745 153.07C159.569 153.602 158.591 154.495 157.952 155.619C157.62 156.22 157.394 156.873 157.284 157.551H161.413V160.67L160.825 160.939H160.772H160.738L160.591 161.006H160.524H160.457H160.404H160.351H160.297H160.244H160.204H160.15H160.11H159.99H159.95H159.836L159.743 161.073H159.709L159.556 161.194L159.475 161.261L159.409 161.321L159.302 161.415L159.088 161.623L159.021 161.697L158.961 161.764L158.927 161.804L158.874 161.871L158.841 161.911L158.807 161.952L158.734 162.045L158.593 162.24C158.463 162.421 158.343 162.609 158.233 162.804C158.17 162.911 158.112 163.02 158.059 163.132V163.172L158.025 163.246V163.307V163.36V163.414L157.945 163.642V163.716V163.756V163.816V163.87V163.93V163.971L157.899 164.172V164.293H162.028V173.329V174.737H169.598V170.82H170.68V174.737H172.424V170.82H173.506V174.737H175.25V170.82H176.332V174.737H177.522C177.586 173.225 177.359 171.715 176.854 170.29C176.332 169.149 175.297 168.445 173.312 168.445H170.974L171.468 165.956L172.043 163.045L172.932 158.611L173.199 157.269L173.359 156.478L173.793 154.324L173.907 153.768L174.422 153.54C175.289 153.505 176.15 153.373 176.987 153.144V153.144C177.134 153.023 177.288 152.896 177.442 152.755C177.595 152.614 177.756 152.466 177.889 152.332C179.425 150.791 180.499 148.848 180.989 146.724C181.086 146.304 181.16 145.878 181.21 145.45C181.261 145.02 181.288 144.588 181.29 144.155V143.913V141.176H183.448V143.9V144.141C183.447 144.659 183.418 145.176 183.361 145.691C183.303 146.201 183.216 146.707 183.101 147.207C182.522 149.729 181.248 152.037 179.426 153.868C179.245 154.056 179.065 154.217 178.905 154.365C178.744 154.512 178.551 154.673 178.357 154.834C177.563 155.478 176.7 156.032 175.785 156.484L175.604 157.383C176.584 157.194 177.546 156.918 178.477 156.558C179.86 156.022 181.176 155.326 182.399 154.485C188.372 150.4 192.615 143.001 193.457 135.595C191.826 136.843 190.083 138.097 188.279 139.405L186.575 140.64L185.94 141.096L185.305 140.64L183.595 139.405C171.428 130.598 162.155 123.876 170.085 108.018C169.467 108.258 168.866 108.543 168.288 108.87V108.87C167.994 109.031 167.68 109.232 167.353 109.454C165.786 110.511 164.453 111.881 163.437 113.478L163.123 113.982H132.603C129.304 113.941 126.034 114.611 123.015 115.947C119.028 117.782 115.719 120.834 113.561 124.668C111.463 128.343 110.36 132.506 110.361 136.742C110.341 139.445 110.84 142.125 111.831 144.638H112.499V141.143H114.717V146.12H114.583V152.828L113.949 153.124C113.656 153.258 113.375 153.415 113.107 153.593C112.838 153.77 112.583 153.967 112.345 154.184C111.365 155.087 110.707 156.289 110.474 157.605H114.583V160.717L113.949 161.012C113.36 161.279 112.817 161.637 112.338 162.072C111.357 162.973 110.698 164.173 110.461 165.487H114.583V175.938H121.933V172.021H123.015V175.938H124.759V172.021H125.841V175.938H127.585V172.021L128.721 171.994ZM201.408 168.908V172.772C201.768 172.772 202.136 172.812 202.503 172.819H203.171V160.65L193.931 142.659C192.218 147.319 189.364 151.471 185.633 154.734L192.635 159.517L193.109 159.839V160.415C193.109 167.573 194.887 170.612 197.459 171.906V168.941H198.541V172.336C199.111 172.51 199.694 172.633 200.285 172.705V168.941L201.408 168.908ZM177.809 115.578H183.822L183.675 116.625C183.528 117.691 183.368 118.603 183.214 119.469C182.653 122.662 182.192 125.298 183.475 128.377H188.379C189.668 125.298 189.201 122.669 188.639 119.476C188.486 118.603 188.325 117.698 188.178 116.631L188.045 115.578H194.058L190.169 117.43C190.263 118.013 190.363 118.597 190.463 119.16C191.132 122.856 191.646 125.868 189.795 129.705L189.548 130.229H182.299L182.052 129.705C180.228 125.862 180.755 122.856 181.384 119.16C181.484 118.597 181.584 118.013 181.677 117.43L177.809 115.578ZM185.927 127.384L187.931 125.909L187.17 124.741H184.704L183.942 125.909L185.947 127.384H185.927ZM184.871 137.621L185.934 138.386L187.009 137.608C198.635 129.216 207.447 122.85 199.183 107.703L198.835 107.032L199.303 106.462C200.759 104.684 200.98 103.108 200.519 101.994C200.316 101.539 199.986 101.153 199.57 100.881C199.131 100.591 198.619 100.433 198.094 100.424C196.824 100.424 195.368 101.196 194.292 103.181L193.985 103.752H177.949L177.642 103.181C176.566 101.169 175.11 100.398 173.84 100.424C173.315 100.434 172.803 100.592 172.364 100.881C171.937 101.161 171.602 101.563 171.402 102.034C170.934 103.141 171.161 104.718 172.618 106.502L173.085 107.072L172.738 107.743C164.473 122.89 173.286 129.256 184.911 137.648L184.871 137.621Z" fill="#CE1531"/>
<path fill-rule="evenodd" clip-rule="evenodd" d="M183.822 115.578C183.571 116.17 183.152 116.675 182.618 117.03C182.083 117.385 181.456 117.575 180.815 117.575C180.174 117.575 179.547 117.385 179.013 117.03C178.478 116.675 178.059 116.17 177.809 115.578H183.822Z" fill="#CE1531"/>
<path fill-rule="evenodd" clip-rule="evenodd" d="M194.058 115.578C193.807 116.17 193.389 116.675 192.854 117.03C192.319 117.385 191.692 117.575 191.052 117.575C190.411 117.575 189.784 117.385 189.249 117.03C188.715 116.675 188.296 116.17 188.045 115.578H194.058Z" fill="#CE1531"/>
<path d="M190.256 202.771V204.072H197.037V202.771H194.866V190.173H194.552L189.741 191.273L189.841 192.319L192.942 192.044V202.771H190.256Z" fill="#CE1531"/>
<path d="M207.126 191.38L206.932 189.884C205.42 190.025 203.955 190.482 202.63 191.226C201.474 191.903 200.544 192.909 199.957 194.117C199.308 195.547 198.995 197.108 199.042 198.679C199.036 199.428 199.139 200.174 199.349 200.892C199.537 201.533 199.84 202.133 200.244 202.663C200.624 203.159 201.111 203.563 201.667 203.844C202.258 204.132 202.908 204.279 203.565 204.273C204.251 204.288 204.933 204.162 205.569 203.904C206.111 203.678 206.597 203.334 206.992 202.898C207.374 202.472 207.665 201.972 207.848 201.429C208.042 200.861 208.139 200.265 208.135 199.665C208.142 199.077 208.042 198.493 207.841 197.941C207.661 197.463 207.386 197.027 207.033 196.66C206.695 196.315 206.29 196.043 205.843 195.861C205.38 195.677 204.885 195.583 204.387 195.586C203.904 195.583 203.423 195.646 202.957 195.774C202.532 195.892 202.128 196.078 201.761 196.324C201.417 196.554 201.122 196.851 200.892 197.196C200.96 196.448 201.142 195.715 201.434 195.023C201.681 194.444 202.027 193.913 202.456 193.453C202.858 193.031 203.322 192.673 203.832 192.393C204.339 192.113 204.874 191.888 205.429 191.722C205.986 191.562 206.553 191.441 207.126 191.36V191.38ZM201.226 200.027C201.223 199.65 201.277 199.274 201.387 198.913C201.488 198.578 201.654 198.266 201.875 197.994C202.099 197.729 202.379 197.518 202.696 197.377C203.062 197.221 203.455 197.143 203.852 197.149C204.302 197.139 204.746 197.26 205.128 197.498C205.485 197.732 205.766 198.065 205.937 198.457C206.136 198.907 206.234 199.394 206.224 199.886C206.238 200.411 206.147 200.933 205.957 201.422C205.794 201.845 205.501 202.204 205.122 202.449C204.685 202.706 204.185 202.834 203.679 202.818C203.314 202.822 202.954 202.737 202.63 202.569C202.327 202.405 202.065 202.176 201.861 201.899C201.653 201.629 201.495 201.325 201.393 201C201.287 200.677 201.233 200.34 201.233 200L201.226 200.027Z" fill="#CE1531"/>
<path d="M105.857 202.771V204.072H112.639V202.771H110.468V190.173H110.154L105.35 191.273L105.443 192.319L108.543 192.044V202.771H105.857Z" fill="#CE1531"/>
<path d="M115.452 202.912L115.645 204.408C117.157 204.267 118.623 203.81 119.948 203.066C121.104 202.389 122.035 201.383 122.621 200.175C123.27 198.745 123.583 197.184 123.536 195.613C123.544 194.864 123.44 194.118 123.229 193.4C123.041 192.759 122.738 192.159 122.334 191.629C121.953 191.133 121.467 190.729 120.91 190.448C120.32 190.159 119.67 190.012 119.013 190.019C118.327 190.005 117.645 190.13 117.008 190.388C116.47 190.611 115.987 190.95 115.592 191.38C115.203 191.807 114.905 192.309 114.717 192.856C114.522 193.424 114.425 194.02 114.429 194.62C114.419 195.208 114.516 195.792 114.717 196.344C114.893 196.822 115.166 197.259 115.519 197.626C115.859 197.973 116.269 198.245 116.721 198.424C117.184 198.61 117.679 198.703 118.178 198.699C118.661 198.701 119.142 198.638 119.608 198.511C120.031 198.393 120.433 198.208 120.797 197.961C121.138 197.731 121.429 197.435 121.652 197.089C121.589 197.839 121.408 198.575 121.118 199.269C120.873 199.848 120.529 200.379 120.102 200.839C119.7 201.261 119.236 201.619 118.726 201.899C118.22 202.181 117.684 202.406 117.129 202.57C116.573 202.73 116.005 202.849 115.432 202.925L115.452 202.912ZM121.351 194.305C121.356 194.674 121.302 195.04 121.191 195.392C121.088 195.721 120.923 196.026 120.703 196.291C120.48 196.557 120.199 196.768 119.881 196.908C119.516 197.063 119.122 197.141 118.726 197.136C118.282 197.155 117.844 197.036 117.469 196.796C117.095 196.556 116.804 196.206 116.634 195.794C116.435 195.319 116.337 194.807 116.347 194.292C116.337 193.796 116.435 193.303 116.634 192.849C116.814 192.444 117.109 192.101 117.483 191.863C117.91 191.612 118.398 191.486 118.893 191.501C119.262 191.496 119.626 191.581 119.955 191.749C120.258 191.912 120.52 192.142 120.723 192.42C120.928 192.695 121.084 193.004 121.184 193.332C121.291 193.664 121.345 194.01 121.345 194.359L121.351 194.305Z" fill="#CE1531"/>
<path d="M93.2227 87.6187H221.471V177.005C221.471 194.243 214.651 210.774 202.511 222.963C190.37 235.152 173.905 242 156.736 242C139.567 242 123.101 235.152 110.961 222.963C98.8203 210.774 92 194.243 92 177.005V87.6187H93.2227ZM156.736 90.0873H94.4454V177.005C94.4454 193.591 101.008 209.497 112.689 221.225C124.37 232.953 140.213 239.542 156.732 239.542C173.252 239.542 189.095 232.953 200.776 221.225C212.457 209.497 219.019 193.591 219.019 177.005V90.0873H156.736Z" fill="#CE1531"/>
<path d="M183.855 186.772L184.663 186.986V224.519L183.367 224.257C174.147 222.372 165.167 223.821 156.708 227.524C148.29 223.814 139.284 222.379 130.083 224.25L128.787 224.512V186.993L129.596 186.779C130.905 186.437 132.235 186.182 133.578 186.014C134.997 185.836 136.424 185.731 137.854 185.699C144.976 185.524 152.673 186.993 156.735 189.636C160.791 186.993 168.494 185.524 175.617 185.699C177.046 185.731 178.474 185.836 179.893 186.014C181.226 186.178 182.547 186.429 183.848 186.765L183.855 186.772ZM133.985 194.969C135.241 194.822 136.544 194.734 137.86 194.701C142.945 194.536 148.02 195.255 152.86 196.827V198.35C148.851 196.821 143.239 196.016 137.894 196.143C136.558 196.143 135.221 196.264 133.985 196.418V194.969V194.969ZM133.985 201.007C135.241 200.859 136.544 200.772 137.86 200.738C142.945 200.573 148.02 201.292 152.86 202.865V204.387C148.851 202.851 143.239 202.053 137.894 202.18C136.558 202.18 135.221 202.301 133.985 202.455V201.007V201.007ZM133.985 207.044C135.241 206.896 136.544 206.809 137.86 206.776C142.945 206.61 148.02 207.33 152.86 208.902V210.425C148.851 208.889 143.239 208.09 137.894 208.218C136.558 208.218 135.221 208.339 133.985 208.493V207.044V207.044ZM133.985 213.081C135.241 212.934 136.544 212.846 137.86 212.813C142.945 212.648 148.02 213.367 152.86 214.939V216.462C148.851 214.926 143.239 214.128 137.894 214.255C136.558 214.255 135.221 214.376 133.985 214.53V213.081V213.081ZM155.66 224.7V191.528C152.025 189.066 144.729 187.711 137.907 187.872C136.551 187.902 135.198 188 133.852 188.167C132.843 188.295 131.847 188.462 130.945 188.67V221.889C139.285 220.489 147.849 221.463 155.666 224.7H155.66ZM179.485 196.411C178.222 196.257 176.906 196.163 175.577 196.136C170.232 196.009 164.599 196.807 160.61 198.343V196.821C165.451 195.248 170.525 194.529 175.61 194.694C176.946 194.694 178.229 194.815 179.485 194.962V196.411ZM179.485 202.449C178.222 202.294 176.906 202.201 175.577 202.174C170.232 202.046 164.599 202.845 160.61 204.381V202.858C165.451 201.3 170.523 200.594 175.603 200.772C176.94 200.772 178.222 200.892 179.479 201.04V202.489L179.485 202.449ZM179.485 208.486C178.222 208.332 176.906 208.238 175.577 208.211C170.232 208.084 164.599 208.882 160.61 210.418V208.895C165.451 207.338 170.523 206.632 175.603 206.809C176.94 206.809 178.222 206.93 179.479 207.077V208.526L179.485 208.486ZM179.485 214.523C178.222 214.369 176.906 214.275 175.577 214.248C170.232 214.121 164.599 214.919 160.61 216.455V214.933C165.451 213.375 170.523 212.669 175.603 212.846C176.94 212.846 178.222 212.967 179.479 213.115V214.564L179.485 214.523ZM182.525 188.697C181.603 188.489 180.628 188.321 179.619 188.194C178.273 188.027 176.919 187.929 175.563 187.899C168.742 187.738 161.446 189.1 157.811 191.555V224.733C165.628 221.497 174.192 220.523 182.532 221.923V188.697H182.525Z" fill="#CE1531"/>
<path d="M93.2031 175.904H220.269V178.091H93.2031V175.904Z" fill="#CE1531"/>
<path d="M273.693 231.877H277.414C277.414 231.877 277.414 231.777 277.414 231.589C277.414 231.401 277.381 231.139 277.354 230.817C277.328 230.495 277.314 230.147 277.294 229.744C277.274 229.342 277.294 228.932 277.294 228.51V220.225H279.532L288.312 232.085L292.608 231.904L292.394 231.676C292.254 231.529 292.067 231.334 291.846 231.086L291.104 230.241C290.851 229.945 290.61 229.644 290.383 229.342L282.432 218.609C283.546 217.236 284.514 216.022 285.338 214.966C286.167 213.906 286.882 212.954 287.483 212.155C288.084 211.357 288.606 210.606 289.047 209.955C289.488 209.304 289.875 208.694 290.223 208.13C290.57 207.567 290.891 207.004 291.211 206.453H287.497C287.223 206.943 286.955 207.433 286.675 207.909C286.394 208.385 286.073 208.909 285.706 209.465C285.338 210.022 284.891 210.666 284.37 211.397C283.849 212.129 283.207 212.987 282.459 213.987C281.71 214.986 280.815 216.2 279.746 217.542H277.214V206.266L273.459 206.447L273.492 206.769L273.566 207.621C273.597 207.978 273.622 208.376 273.639 208.815C273.639 209.257 273.673 209.714 273.673 210.156V231.851L273.693 231.877ZM305.964 231.877H309.505C309.505 231.877 309.505 231.777 309.505 231.589C309.505 231.401 309.472 231.166 309.445 230.864C309.418 230.563 309.405 230.241 309.385 229.892C309.365 229.543 309.385 229.221 309.385 228.872V213.739H297.191C297.156 216.001 297.084 217.96 296.977 219.615C296.898 221.021 296.735 222.421 296.49 223.807C296.328 224.773 296.048 225.715 295.654 226.611C295.365 227.265 294.931 227.843 294.385 228.302C293.864 228.723 293.257 229.025 292.608 229.187L293.583 232.092C294.728 231.903 295.8 231.404 296.682 230.647C297.564 229.89 298.223 228.905 298.588 227.799C299.13 226.301 299.487 224.742 299.65 223.157C299.886 221.283 300.044 219.027 300.124 216.388H305.977V231.877H305.964ZM330.017 228.684L329.736 228.872C329.523 229.006 329.3 229.123 329.068 229.221C328.82 229.334 328.552 229.398 328.28 229.409C328.169 229.417 328.057 229.398 327.956 229.352C327.854 229.306 327.766 229.236 327.698 229.147C327.576 228.968 327.515 228.754 327.525 228.537C327.525 228.087 327.525 227.577 327.525 227.001C327.525 226.424 327.525 225.813 327.525 225.183C327.525 224.552 327.525 223.901 327.558 223.257C327.591 222.613 327.558 222.01 327.591 221.439C327.625 220.869 327.591 220.353 327.591 219.903C327.658 218.616 327.413 217.331 326.876 216.16C326.406 215.227 325.633 214.482 324.685 214.047C323.587 213.565 322.395 213.335 321.197 213.376C320.284 213.376 319.373 213.447 318.471 213.591C317.793 213.696 317.124 213.849 316.467 214.047C316.039 214.175 315.62 214.33 315.211 214.51C315.063 214.572 314.918 214.641 314.776 214.718V217.441L315.164 217.26C315.52 217.108 315.883 216.976 316.253 216.865C316.814 216.695 317.385 216.562 317.964 216.469C318.701 216.348 319.448 216.287 320.195 216.288C320.969 216.256 321.742 216.382 322.467 216.657C323.058 216.905 323.535 217.367 323.803 217.951C324.132 218.733 324.283 219.579 324.244 220.427V221.567H322.908C322.367 221.567 321.785 221.614 321.164 221.661C320.543 221.708 319.928 221.775 319.326 221.876C318.178 222.029 317.07 222.407 316.066 222.989C315.267 223.453 314.604 224.119 314.142 224.921C313.716 225.7 313.498 226.575 313.507 227.463C313.503 228.073 313.602 228.679 313.801 229.254C313.994 229.822 314.304 230.343 314.71 230.784C315.149 231.251 315.685 231.615 316.28 231.851C317.009 232.129 317.785 232.265 318.565 232.253C319.631 232.26 320.688 232.059 321.678 231.663C322.63 231.263 323.507 230.702 324.271 230.006C324.412 230.654 324.765 231.237 325.273 231.663C325.829 232.073 326.508 232.281 327.197 232.253C327.899 232.252 328.588 232.071 329.202 231.73C329.393 231.62 329.579 231.499 329.756 231.368L329.95 231.207V228.704L330.017 228.684ZM319.681 229.483C319.169 229.491 318.664 229.379 318.204 229.154C317.822 228.964 317.503 228.665 317.289 228.295C317.073 227.916 316.962 227.485 316.968 227.047C316.954 226.593 317.055 226.143 317.262 225.739C317.503 225.314 317.851 224.961 318.271 224.713C318.866 224.367 319.511 224.114 320.182 223.962C320.716 223.828 321.237 223.734 321.732 223.66C322.226 223.586 322.701 223.539 323.128 223.506L324.224 223.418C324.224 224.183 324.191 224.948 324.177 225.719C324.164 226.491 324.177 227.262 324.177 228.02C323.816 228.255 323.441 228.467 323.055 228.657C322.569 228.896 322.061 229.087 321.538 229.228C320.937 229.391 320.317 229.474 319.694 229.476L319.681 229.483ZM341.188 216.241C341.718 216.247 342.247 216.308 342.765 216.422C343.293 216.536 343.834 216.663 344.388 216.797C344.963 216.929 345.545 217.021 346.132 217.072L346.419 214.101C345.844 214.063 345.273 213.985 344.709 213.866C344.181 213.752 343.64 213.645 343.092 213.537C342.497 213.431 341.893 213.377 341.288 213.376C340.134 213.368 338.993 213.618 337.947 214.107C336.924 214.597 336.013 215.296 335.275 216.16C334.483 217.093 333.873 218.167 333.478 219.326C333.034 220.621 332.808 221.982 332.809 223.351C332.796 224.558 332.979 225.759 333.351 226.907C333.683 227.943 334.232 228.897 334.961 229.704C335.701 230.513 336.615 231.141 337.633 231.542C338.815 232.002 340.074 232.23 341.342 232.213C342.063 232.215 342.783 232.152 343.493 232.025C344.037 231.93 344.573 231.793 345.096 231.616C345.439 231.502 345.774 231.365 346.099 231.207L346.439 231.019V228.335L346.105 228.49C345.885 228.584 345.571 228.698 345.163 228.825C344.08 229.155 342.954 229.32 341.823 229.315C340.983 229.328 340.151 229.149 339.391 228.792C338.705 228.454 338.106 227.963 337.64 227.356C337.157 226.705 336.797 225.971 336.578 225.189C336.336 224.316 336.217 223.413 336.224 222.506C336.198 221.376 336.377 220.251 336.751 219.186C337.057 218.313 337.621 217.554 338.368 217.012C339.19 216.471 340.159 216.199 341.141 216.234L341.188 216.241ZM357.998 216.241C358.529 216.247 359.057 216.308 359.575 216.422C360.103 216.536 360.644 216.663 361.199 216.797C361.773 216.929 362.356 217.021 362.942 217.072L363.23 214.101C362.655 214.063 362.083 213.985 361.519 213.866C360.991 213.752 360.45 213.645 359.909 213.537C359.314 213.431 358.71 213.377 358.105 213.376C356.951 213.368 355.81 213.618 354.764 214.107C353.741 214.597 352.83 215.296 352.092 216.16C351.3 217.093 350.69 218.167 350.295 219.326C349.851 220.621 349.625 221.982 349.626 223.351C349.613 224.558 349.795 225.759 350.168 226.907C350.5 227.943 351.049 228.897 351.778 229.704C352.518 230.513 353.432 231.141 354.45 231.542C355.632 232.002 356.891 232.23 358.159 232.213C358.88 232.215 359.6 232.152 360.31 232.025C360.858 231.935 361.399 231.803 361.927 231.629C362.27 231.515 362.604 231.379 362.929 231.22L363.27 231.032V228.349L362.936 228.503C362.715 228.597 362.401 228.711 361.994 228.839C360.911 229.168 359.785 229.333 358.653 229.328C357.813 229.341 356.982 229.163 356.221 228.805C355.536 228.467 354.937 227.976 354.47 227.369C353.987 226.718 353.627 225.984 353.408 225.203C353.167 224.329 353.048 223.426 353.054 222.519C353.028 221.39 353.207 220.265 353.582 219.199C353.888 218.326 354.452 217.568 355.199 217.026C356.021 216.484 356.989 216.213 357.971 216.247L357.998 216.241ZM367.619 231.877H370.96L378.871 219.903C379.158 219.461 379.405 219.045 379.612 218.662C379.82 218.28 379.973 217.991 380.08 217.73L380.24 217.361H380.347C380.347 217.361 380.347 217.488 380.294 217.716C380.24 217.945 380.22 218.273 380.187 218.682C380.154 219.092 380.14 219.554 380.134 220.078V231.864H383.675C383.675 231.864 383.675 231.763 383.675 231.575C383.675 231.388 383.641 231.126 383.615 230.804C383.588 230.482 383.574 230.133 383.554 229.731C383.534 229.328 383.554 228.919 383.554 228.496V213.557L380.214 213.739L372.624 225.142C372.276 225.666 371.956 226.162 371.728 226.625C371.501 227.088 371.294 227.457 371.16 227.752C371.027 228.047 370.96 228.188 370.96 228.195H370.813L370.846 227.899L370.92 227.115C370.951 226.784 370.976 226.415 370.993 226.008C370.993 225.605 371.027 225.183 371.027 224.753V213.557L367.452 213.739C367.452 213.739 367.452 213.853 367.486 214.067L367.559 214.912C367.59 215.27 367.615 215.668 367.633 216.106C367.633 216.549 367.666 217.005 367.666 217.448V231.851L367.619 231.877ZM389.2 231.877H392.741C392.741 231.877 392.741 231.777 392.741 231.589C392.741 231.401 392.708 231.139 392.681 230.817C392.654 230.495 392.641 230.147 392.621 229.744C392.601 229.342 392.621 228.932 392.621 228.51V223.901H394.318L400.605 232.065L404.581 231.884L404.36 231.643L403.786 231.012C403.552 230.75 403.298 230.455 403.024 230.133C402.75 229.811 402.489 229.462 402.229 229.161L396.991 222.452L399.917 218.75C400.752 217.683 401.427 216.777 401.921 216.066C402.416 215.355 402.79 214.725 403.017 214.362C403.244 214 403.351 213.779 403.345 213.779H399.877C399.877 213.779 399.797 213.926 399.63 214.215C399.463 214.503 399.169 214.966 398.761 215.556C398.354 216.147 397.799 216.958 397.091 217.924L394.452 221.48H392.608V213.557L389.033 213.739C389.033 213.739 389.033 213.853 389.067 214.067C389.1 214.282 389.107 214.557 389.14 214.912C389.173 215.268 389.193 215.67 389.213 216.106C389.234 216.543 389.247 217.005 389.247 217.448V231.851L389.2 231.877ZM422.487 228.684L422.206 228.872C421.993 229.006 421.77 229.123 421.538 229.221C421.29 229.334 421.022 229.398 420.75 229.409C420.639 229.417 420.527 229.398 420.426 229.352C420.324 229.306 420.236 229.236 420.168 229.147C420.045 228.968 419.984 228.754 419.995 228.537C419.995 228.087 419.995 227.577 419.995 227.001C419.995 226.424 419.995 225.813 419.995 225.183C419.995 224.552 419.995 223.901 420.028 223.257C420.061 222.613 420.028 222.01 420.061 221.439C420.095 220.869 420.061 220.353 420.061 219.903C420.128 218.616 419.883 217.331 419.346 216.16C418.876 215.227 418.103 214.482 417.155 214.047C416.057 213.565 414.865 213.335 413.667 213.376C412.754 213.376 411.843 213.447 410.941 213.591C410.263 213.696 409.594 213.849 408.937 214.047C408.511 214.175 408.094 214.33 407.687 214.51C407.539 214.572 407.394 214.641 407.253 214.718V217.441L407.641 217.26C407.996 217.108 408.36 216.976 408.73 216.865C409.291 216.695 409.862 216.562 410.44 216.469C411.178 216.348 411.924 216.287 412.672 216.288C413.446 216.256 414.219 216.382 414.943 216.657C415.535 216.905 416.011 217.367 416.28 217.951C416.609 218.733 416.759 219.579 416.721 220.427V221.567H415.384C414.843 221.567 414.262 221.614 413.641 221.661C413.019 221.708 412.404 221.775 411.803 221.876C410.654 222.029 409.547 222.407 408.543 222.989C407.771 223.463 407.134 224.128 406.692 224.921C406.266 225.7 406.048 226.575 406.057 227.463C406.053 228.073 406.153 228.679 406.351 229.254C406.544 229.822 406.854 230.343 407.26 230.784C407.699 231.251 408.235 231.615 408.83 231.851C409.559 232.129 410.335 232.265 411.115 232.253C412.181 232.26 413.238 232.059 414.228 231.663C415.18 231.263 416.057 230.702 416.821 230.006C416.964 230.655 417.319 231.238 417.83 231.663C418.386 232.073 419.064 232.281 419.754 232.253C420.455 232.252 421.145 232.071 421.758 231.73C421.95 231.62 422.135 231.499 422.313 231.368L422.507 231.207V228.704L422.487 228.684ZM412.151 229.483C411.639 229.491 411.133 229.379 410.674 229.154C410.292 228.964 409.973 228.665 409.759 228.295C409.543 227.916 409.432 227.485 409.438 227.047C409.424 226.593 409.525 226.143 409.732 225.739C409.963 225.322 410.296 224.971 410.701 224.72C411.296 224.374 411.941 224.121 412.612 223.968C413.146 223.834 413.667 223.74 414.162 223.667C414.656 223.593 415.13 223.546 415.558 223.512L416.654 223.425C416.654 224.19 416.62 224.955 416.607 225.726C416.594 226.497 416.607 227.269 416.607 228.027C416.246 228.261 415.871 228.474 415.485 228.664C414.999 228.903 414.491 229.094 413.968 229.234C413.367 229.398 412.747 229.481 412.124 229.483H412.151ZM442.771 216.824C443.545 216.778 444.317 216.918 445.026 217.232C445.735 217.546 446.359 218.025 446.847 218.629C447.782 219.83 448.257 221.627 448.263 223.995C448.269 224.738 448.154 225.477 447.923 226.182C447.705 226.841 447.37 227.455 446.934 227.993C446.504 228.53 445.959 228.962 445.338 229.255C444.717 229.548 444.038 229.694 443.353 229.684C442.581 229.729 441.809 229.591 441.1 229.28C440.392 228.968 439.767 228.493 439.277 227.893C438.342 226.699 437.867 224.914 437.86 222.526C437.854 221.781 437.969 221.04 438.201 220.333C438.417 219.669 438.752 219.051 439.19 218.508C439.617 217.967 440.162 217.531 440.783 217.235C441.404 216.938 442.084 216.789 442.771 216.797V216.824ZM436.758 217.73C436.918 216.415 437.23 215.122 437.687 213.879C438.074 212.833 438.66 211.872 439.411 211.049C440.163 210.25 441.073 209.617 442.083 209.19C443.303 208.694 444.588 208.38 445.898 208.258C447.134 208.13 448.103 208.003 448.818 207.869C449.533 207.735 450.041 207.621 450.335 207.533C450.485 207.496 450.633 207.447 450.776 207.386L450.381 204.267L450.208 204.327C450.081 204.367 449.853 204.421 449.539 204.495C449.225 204.568 448.751 204.649 448.156 204.736C447.562 204.823 446.82 204.924 445.845 205.025C444.22 205.169 442.626 205.553 441.114 206.165C439.876 206.679 438.755 207.442 437.82 208.406C436.926 209.367 436.223 210.492 435.749 211.719C435.213 213.123 434.851 214.587 434.673 216.08C434.448 217.859 434.343 219.652 434.359 221.446C434.337 223.052 434.537 224.652 434.954 226.202C435.28 227.423 435.851 228.564 436.631 229.556C437.325 230.426 438.216 231.116 439.23 231.569C440.286 232.022 441.423 232.25 442.571 232.24C444.278 232.279 445.967 231.877 447.475 231.072C448.84 230.301 449.94 229.131 450.629 227.718C451.411 226.088 451.796 224.295 451.751 222.486C451.764 221.343 451.574 220.208 451.19 219.132C450.838 218.148 450.287 217.249 449.573 216.489C448.843 215.732 447.959 215.144 446.981 214.765C445.874 214.338 444.698 214.127 443.513 214.141C442.178 214.125 440.861 214.448 439.684 215.08C438.552 215.719 437.605 216.644 436.938 217.763L436.758 217.73V217.73ZM460.724 241.094C460.724 241.094 460.791 240.779 460.938 240.142C461.085 239.505 461.379 238.518 461.793 237.204C462.207 235.889 462.795 234.232 463.577 232.213L467.913 221.077C468.221 220.299 468.521 219.481 468.815 218.635C469.109 217.79 469.37 216.952 469.584 216.12C469.789 215.344 469.93 214.552 470.004 213.752H466.824C466.771 214.242 466.704 214.711 466.617 215.167C466.53 215.624 466.423 216.086 466.29 216.569C466.156 217.052 465.996 217.602 465.795 218.206C465.595 218.81 465.361 219.548 465.087 220.319L463.858 223.908C463.63 224.579 463.437 225.176 463.263 225.766C463.089 226.357 462.949 226.88 462.835 227.343C462.722 227.806 462.628 228.168 462.575 228.429L462.481 228.839H462.334L462.247 228.436C462.194 228.174 462.107 227.826 462.007 227.376C461.907 226.927 461.78 226.444 461.633 225.9C461.486 225.357 461.319 224.8 461.138 224.23L457.631 213.564L453.762 213.745C453.762 213.745 453.842 213.906 453.976 214.221C454.11 214.537 454.303 214.973 454.53 215.53C454.758 216.086 455.005 216.737 455.279 217.482L460.517 232.032L460.23 232.702C459.611 234.134 459.112 235.368 458.733 236.405C458.354 237.443 458.083 238.31 457.918 239.008C457.717 239.679 457.586 240.175 457.524 240.497C457.457 240.826 457.423 240.98 457.43 240.98L460.771 241.128L460.724 241.094ZM476.091 213.745C476.031 215.979 475.938 217.945 475.797 219.648C475.689 221.128 475.491 222.6 475.203 224.056C475 225.138 474.664 226.19 474.2 227.188C473.832 227.98 473.31 228.69 472.664 229.275H471.107L471.501 237.935L474.574 237.754C474.574 237.754 474.574 237.653 474.574 237.465C474.574 237.277 474.541 237.043 474.514 236.741C474.488 236.439 474.474 236.117 474.454 235.768C474.434 235.419 474.454 235.097 474.454 234.748V231.884H487.857L488.111 237.921L491.184 237.74C491.184 237.74 491.184 237.64 491.184 237.452C491.184 237.264 491.151 237.029 491.124 236.727C491.098 236.425 491.084 236.103 491.064 235.755C491.044 235.406 491.064 235.084 491.064 234.735V229.254H488.245V213.739L476.091 213.745ZM478.911 216.395H484.73V229.275H476.044C476.9 228.382 477.568 226.866 478.049 224.753C478.607 222.002 478.9 219.203 478.924 216.395H478.911ZM499.155 241.101C499.155 241.101 499.222 240.786 499.369 240.149C499.516 239.511 499.81 238.525 500.224 237.21C500.638 235.896 501.226 234.239 502.008 232.219L506.344 221.084C506.652 220.306 506.952 219.487 507.246 218.642C507.54 217.797 507.801 216.958 508.015 216.127C508.22 215.35 508.361 214.558 508.436 213.759H505.255C505.202 214.248 505.135 214.718 505.048 215.174C504.961 215.63 504.854 216.093 504.721 216.576C504.587 217.059 504.427 217.609 504.226 218.213C504.026 218.817 503.792 219.554 503.518 220.326L502.289 223.915C502.062 224.586 501.868 225.183 501.694 225.773C501.52 226.363 501.38 226.886 501.267 227.349C501.153 227.812 501.059 228.174 501.006 228.436L500.912 228.845H500.765L500.679 228.443C500.625 228.181 500.538 227.832 500.438 227.383C500.338 226.933 500.211 226.45 500.064 225.907C499.917 225.364 499.75 224.807 499.569 224.237L496.062 213.571L492.193 213.752C492.193 213.752 492.273 213.913 492.407 214.228C492.541 214.543 492.734 214.98 492.962 215.536C493.189 216.093 493.436 216.744 493.71 217.488L498.948 232.038L498.661 232.709C498.042 234.14 497.543 235.375 497.164 236.412C496.786 237.45 496.512 238.315 496.342 239.008C496.142 239.679 496.011 240.175 495.948 240.497C495.881 240.826 495.848 240.98 495.855 240.98L499.195 241.128L499.155 241.101ZM511.99 231.884H536.123L536.377 237.921L539.45 237.74C539.45 237.74 539.45 237.64 539.45 237.452C539.45 237.264 539.417 237.029 539.39 236.727C539.364 236.425 539.35 236.103 539.33 235.755C539.31 235.406 539.33 235.084 539.33 234.735V229.254H536.511V213.557L532.936 213.739L532.97 214.067C532.97 214.275 533.01 214.557 533.043 214.912C533.076 215.268 533.097 215.67 533.123 216.106C533.15 216.543 533.123 217.005 533.123 217.448V229.241H525.914V213.557L522.34 213.739L522.373 214.067L522.446 214.912C522.446 215.268 522.5 215.67 522.527 216.106C522.553 216.543 522.527 217.005 522.527 217.448V229.241H515.364V213.557L511.79 213.739C511.79 213.739 511.79 213.853 511.823 214.067C511.856 214.282 511.863 214.557 511.897 214.912C511.93 215.268 511.95 215.67 511.97 216.106C511.99 216.543 512.003 217.005 512.003 217.448V231.851L511.99 231.884ZM550.655 213.383C549.468 213.373 548.292 213.601 547.194 214.054C546.143 214.487 545.2 215.149 544.435 215.992C543.613 216.906 542.992 217.982 542.611 219.152C542.152 220.543 541.927 222 541.943 223.465C541.928 224.686 542.125 225.901 542.524 227.054C542.885 228.089 543.463 229.034 544.221 229.825C545 230.629 545.95 231.246 547 231.629C548.204 232.067 549.476 232.283 550.755 232.266C551.61 232.266 552.463 232.201 553.308 232.072C553.958 231.976 554.601 231.835 555.232 231.649C555.642 231.53 556.046 231.389 556.441 231.227L556.862 231.032V228.382L556.428 228.537C556.147 228.631 555.76 228.745 555.285 228.872C554.811 229 554.276 229.114 553.675 229.214C553.067 229.312 552.453 229.364 551.838 229.369C550.626 229.406 549.424 229.143 548.337 228.604C547.425 228.113 546.689 227.349 546.232 226.417C545.708 225.32 545.424 224.124 545.397 222.909H557.938C558.128 221.668 558.128 220.406 557.938 219.165C557.76 218.081 557.355 217.048 556.749 216.133C556.135 215.264 555.306 214.57 554.343 214.121C553.199 213.606 551.955 213.354 550.702 213.383H550.655ZM550.508 215.852C551.149 215.838 551.786 215.966 552.372 216.227C552.866 216.453 553.295 216.799 553.622 217.233C553.939 217.674 554.166 218.173 554.29 218.703C554.43 219.277 554.491 219.869 554.47 220.46L545.47 220.608C545.604 219.733 545.906 218.892 546.359 218.132C546.775 217.441 547.359 216.866 548.056 216.462C548.8 216.049 549.638 215.839 550.488 215.852H550.508ZM562.401 231.884H565.942C565.942 231.884 565.942 231.783 565.942 231.596C565.942 231.408 565.909 231.173 565.882 230.871C565.855 230.569 565.842 230.247 565.822 229.898C565.802 229.55 565.822 229.228 565.822 228.879V216.462H570.88C571.367 216.462 571.828 216.462 572.269 216.509C572.71 216.556 573.064 216.563 573.345 216.596L573.773 216.643L573.92 213.739H562.207C562.207 213.739 562.207 213.853 562.241 214.06L562.314 214.912C562.345 215.27 562.37 215.668 562.388 216.106C562.388 216.549 562.421 217.005 562.421 217.448V231.851L562.401 231.884ZM584.449 215.885C585.245 215.842 586.038 215.996 586.761 216.333C587.483 216.669 588.112 217.179 588.592 217.817C589.554 219.101 590.039 221.021 590.048 223.579C590.053 224.378 589.933 225.172 589.694 225.934C589.47 226.638 589.126 227.298 588.679 227.886C588.253 228.442 587.713 228.9 587.095 229.228C586.457 229.558 585.749 229.729 585.031 229.724C584.235 229.767 583.442 229.613 582.72 229.277C581.997 228.94 581.368 228.43 580.888 227.792C579.926 226.511 579.445 224.586 579.432 222.03C579.427 221.229 579.546 220.432 579.786 219.669C580.008 218.963 580.352 218.302 580.801 217.716C581.226 217.159 581.767 216.702 582.385 216.375C583.025 216.049 583.732 215.881 584.449 215.885V215.885ZM584.269 232.246C585.991 232.287 587.692 231.861 589.193 231.012C590.577 230.184 591.681 228.957 592.36 227.49C593.144 225.761 593.527 223.876 593.483 221.976C593.497 220.785 593.307 219.601 592.921 218.474C592.571 217.477 592.018 216.563 591.298 215.791C590.572 215.02 589.684 214.419 588.699 214.034C587.586 213.606 586.402 213.395 585.211 213.41C583.49 213.37 581.789 213.794 580.287 214.637C578.904 215.455 577.8 216.673 577.12 218.132C576.336 219.859 575.952 221.742 575.998 223.64C575.986 224.833 576.176 226.019 576.559 227.148C576.907 228.159 577.459 229.086 578.182 229.872C578.917 230.646 579.814 231.246 580.808 231.629C581.921 232.058 583.104 232.272 584.296 232.26L584.269 232.246Z" fill="#CE1531"/>
</g>
<defs>
<clipPath id="clip0_278_1333">
<rect width="667" height="166" fill="white" transform="translate(92 76)"/>
</clipPath>
</defs>
</svg>
